<svg width="22" height="29" viewBox="0 0 22 29" fill="none" xmlns="http://www.w3.org/2000/svg">
<path d="M2.53846 29H19.4615C20.8613 29 22 27.8567 22 26.4512V8.49609H16.0769C14.6772 8.49609 13.5385 7.35275 13.5385 5.94727V0H2.53846C1.1387 0 0 1.14335 0 2.54883V26.4512C0 27.8567 1.1387 29 2.53846 29ZM5.92308 11.9512H16.0769C16.5446 11.9512 16.9231 12.3312 16.9231 12.8008C16.9231 13.2704 16.5446 13.6504 16.0769 13.6504H5.92308C5.45538 13.6504 5.07692 13.2704 5.07692 12.8008C5.07692 12.3312 5.45538 11.9512 5.92308 11.9512ZM5.92308 15.3496H16.0769C16.5446 15.3496 16.9231 15.7296 16.9231 16.1992C16.9231 16.6688 16.5446 17.0488 16.0769 17.0488H5.92308C5.45538 17.0488 5.07692 16.6688 5.07692 16.1992C5.07692 15.7296 5.45538 15.3496 5.92308 15.3496ZM5.92308 18.748H16.0769C16.5446 18.748 16.9231 19.128 16.9231 19.5977C16.9231 20.0673 16.5446 20.4473 16.0769 20.4473H5.92308C5.45538 20.4473 5.07692 20.0673 5.07692 19.5977C5.07692 19.128 5.45538 18.748 5.92308 18.748ZM5.92308 22.1465H12.6923C13.16 22.1465 13.5385 22.5265 13.5385 22.9961C13.5385 23.4657 13.16 23.8457 12.6923 23.8457H5.92308C5.45538 23.8457 5.07692 23.4657 5.07692 22.9961C5.07692 22.5265 5.45538 22.1465 5.92308 22.1465Z" fill="white"/>
<path d="M16.0769 6.79687H21.5042L15.2308 0.497811V5.94726C15.2308 6.41602 15.6101 6.79687 16.0769 6.79687Z" fill="white"/>
</svg>
