<svg width="28" height="38" viewBox="0 0 28 38" fill="none" xmlns="http://www.w3.org/2000/svg">
<path d="M4.74996 21.1642H17.0133C18.0277 21.1642 18.8528 20.3356 18.8528 19.3172V6.30597H14.5606C13.5463 6.30597 12.7211 5.47744 12.7211 4.45896V0.149254H4.74996C3.73562 0.149254 2.91046 0.977784 2.91046 1.99627V19.3172C2.91046 20.3356 3.73562 21.1642 4.74996 21.1642ZM7.20263 8.8097H14.5606C14.8996 8.8097 15.1738 9.08507 15.1738 9.42537C15.1738 9.76568 14.8996 10.041 14.5606 10.041H7.20263C6.86372 10.041 6.58947 9.76568 6.58947 9.42537C6.58947 9.08507 6.86372 8.8097 7.20263 8.8097ZM7.20263 11.2724H14.5606C14.8996 11.2724 15.1738 11.5478 15.1738 11.8881C15.1738 12.2284 14.8996 12.5037 14.5606 12.5037H7.20263C6.86372 12.5037 6.58947 12.2284 6.58947 11.8881C6.58947 11.5478 6.86372 11.2724 7.20263 11.2724ZM7.20263 13.7351H14.5606C14.8996 13.7351 15.1738 14.0104 15.1738 14.3507C15.1738 14.691 14.8996 14.9664 14.5606 14.9664H7.20263C6.86372 14.9664 6.58947 14.691 6.58947 14.3507C6.58947 14.0104 6.86372 13.7351 7.20263 13.7351ZM7.20263 16.1978H12.108C12.4469 16.1978 12.7211 16.4731 12.7211 16.8134C12.7211 17.1537 12.4469 17.4291 12.108 17.4291H7.20263C6.86372 17.4291 6.58947 17.1537 6.58947 16.8134C6.58947 16.4731 6.86372 16.1978 7.20263 16.1978Z" fill="#27AC57"/>
<path d="M14.5606 5.07462H18.4935L13.9475 0.509994V4.45895C13.9475 4.79864 14.2223 5.07462 14.5606 5.07462Z" fill="#27AC57"/>
<path d="M1.21692 34.9403V27.9932H3.87635C4.37839 27.9932 4.79562 28.0724 5.12805 28.2307C5.46274 28.3867 5.71262 28.6004 5.87771 28.8718C6.04505 29.1431 6.12872 29.4507 6.12872 29.7944C6.12872 30.0771 6.07445 30.3191 5.9659 30.5204C5.85735 30.7194 5.71149 30.881 5.52832 31.0054C5.34514 31.1298 5.14048 31.2191 4.91434 31.2734V31.3412C5.16084 31.3548 5.39716 31.4306 5.6233 31.5685C5.8517 31.7042 6.03827 31.8964 6.183 32.1452C6.32773 32.3939 6.4001 32.6947 6.4001 33.0475C6.4001 33.4071 6.31303 33.7304 6.1389 34.0176C5.96477 34.3026 5.70245 34.5276 5.35193 34.6927C5.00141 34.8578 4.56043 34.9403 4.029 34.9403H1.21692ZM2.4754 33.8887H3.82886C4.28567 33.8887 4.6147 33.8017 4.81597 33.6275C5.0195 33.4512 5.12126 33.225 5.12126 32.9491C5.12126 32.7433 5.07038 32.5579 4.96862 32.3928C4.86685 32.2255 4.72212 32.0943 4.53442 31.9993C4.34673 31.9021 4.12284 31.8535 3.86278 31.8535H2.4754V33.8887ZM2.4754 30.9478H3.72031C3.93741 30.9478 4.13302 30.9082 4.30715 30.829C4.48128 30.7476 4.6181 30.6334 4.7176 30.4864C4.81936 30.3372 4.87024 30.1608 4.87024 29.9573C4.87024 29.6881 4.77526 29.4665 4.58531 29.2924C4.39761 29.1183 4.11832 29.0312 3.74745 29.0312H2.4754V30.9478ZM7.4949 34.9403V27.9932H8.75338V33.8853H11.8131V34.9403H7.4949ZM18.8424 31.4668C18.8424 32.2153 18.7022 32.8564 18.4218 33.3901C18.1436 33.9215 17.7637 34.3286 17.282 34.6113C16.8026 34.8939 16.2588 35.0353 15.6504 35.0353C15.0421 35.0353 14.4971 34.8939 14.0154 34.6113C13.536 34.3263 13.1561 33.9181 12.8757 33.3867C12.5975 32.853 12.4584 32.213 12.4584 31.4668C12.4584 30.7182 12.5975 30.0782 12.8757 29.5468C13.1561 29.0131 13.536 28.6049 14.0154 28.3223C14.4971 28.0396 15.0421 27.8982 15.6504 27.8982C16.2588 27.8982 16.8026 28.0396 17.282 28.3223C17.7637 28.6049 18.1436 29.0131 18.4218 29.5468C18.7022 30.0782 18.8424 30.7182 18.8424 31.4668ZM17.5772 31.4668C17.5772 30.9398 17.4946 30.4955 17.3295 30.1336C17.1667 29.7696 16.9406 29.4948 16.6511 29.3094C16.3616 29.1217 16.0281 29.0278 15.6504 29.0278C15.2728 29.0278 14.9392 29.1217 14.6498 29.3094C14.3603 29.4948 14.133 29.7696 13.9679 30.1336C13.8051 30.4955 13.7237 30.9398 13.7237 31.4668C13.7237 31.9937 13.8051 32.4392 13.9679 32.8033C14.133 33.1651 14.3603 33.4398 14.6498 33.6275C14.9392 33.813 15.2728 33.9057 15.6504 33.9057C16.0281 33.9057 16.3616 33.813 16.6511 33.6275C16.9406 33.4398 17.1667 33.1651 17.3295 32.8033C17.4946 32.4392 17.5772 31.9937 17.5772 31.4668ZM24.6862 30.2117C24.6297 30.0285 24.5517 29.8645 24.4522 29.7198C24.3549 29.5728 24.2373 29.4473 24.0994 29.3433C23.9637 29.2393 23.8077 29.1612 23.6313 29.1092C23.4549 29.055 23.2627 29.0278 23.0546 29.0278C22.6815 29.0278 22.349 29.1217 22.0573 29.3094C21.7656 29.4971 21.5361 29.773 21.3687 30.137C21.2036 30.4989 21.1211 30.9398 21.1211 31.46C21.1211 31.9846 21.2036 32.429 21.3687 32.7931C21.5338 33.1572 21.7633 33.4342 22.0573 33.6242C22.3513 33.8118 22.6928 33.9057 23.0817 33.9057C23.4345 33.9057 23.7398 33.8379 23.9976 33.7022C24.2577 33.5665 24.4578 33.3743 24.598 33.1255C24.7382 32.8745 24.8083 32.5805 24.8083 32.2436L25.0933 32.2877H23.2073V31.3039H26.0261V32.1384C26.0261 32.7332 25.8995 33.2476 25.6462 33.6818C25.3929 34.116 25.0447 34.4507 24.6014 34.6859C24.1582 34.9188 23.6494 35.0353 23.075 35.0353C22.435 35.0353 21.873 34.8917 21.3891 34.6045C20.9074 34.315 20.5309 33.9046 20.2595 33.3731C19.9904 32.8394 19.8558 32.2062 19.8558 31.4735C19.8558 30.9127 19.935 30.4118 20.0933 29.9708C20.2538 29.5299 20.4777 29.1556 20.7649 28.848C21.0521 28.5382 21.3891 28.303 21.7758 28.1425C22.1625 27.9796 22.5831 27.8982 23.0376 27.8982C23.4221 27.8982 23.7805 27.9548 24.113 28.0678C24.4454 28.1787 24.7405 28.337 24.9983 28.5427C25.2584 28.7485 25.4721 28.9928 25.6394 29.2754C25.8068 29.5581 25.9164 29.8702 25.9684 30.2117H24.6862Z" fill="#27AC57"/>
</svg>
