<svg width="28" height="37" viewBox="0 0 28 37" fill="none" xmlns="http://www.w3.org/2000/svg">
<path fill-rule="evenodd" clip-rule="evenodd" d="M13.1772 2.38439L26.6856 27.8877C26.9502 28.3875 26.7724 29.0207 26.2908 29.2949L16.1823 35.0538C15.7004 35.3283 15.0901 35.1442 14.8252 34.6444L1.31674 9.14141C1.05212 8.64163 1.22959 8.00836 1.7115 7.73393L11.82 1.97498C12.3016 1.70054 12.9125 1.8846 13.1772 2.38439Z" stroke="#43D477" stroke-width="2" stroke-miterlimit="22.9256"/>
<path fill-rule="evenodd" clip-rule="evenodd" d="M13.1772 2.38439L26.6856 27.8877C26.9502 28.3875 26.7724 29.0207 26.2908 29.2949L16.1823 35.0538C15.7004 35.3283 15.0901 35.1442 14.8252 34.6444L1.31674 9.14141C1.05212 8.64163 1.22959 8.00836 1.7115 7.73393L11.82 1.97498C12.3016 1.70054 12.9125 1.8846 13.1772 2.38439Z" fill="white"/>
</svg>
