<svg width="77" height="77" viewBox="0 0 77 77" fill="none" xmlns="http://www.w3.org/2000/svg">
<g filter="url(#filter0_d_267_16)">
<rect x="8" y="38.8995" width="43.6985" height="43.6985" rx="7" transform="rotate(-45 8 38.8995)" fill="url(#paint0_linear_267_16)"/>
</g>
<path d="M46.5729 51.1523H41.6254C41.6254 48.6016 41.6254 46.0511 41.6254 43.5008C41.6249 42.4096 40.9887 41.7773 39.8928 41.7773H37.108C36.0121 41.7773 35.3759 42.4096 35.3759 43.5008C35.3759 46.0511 35.3759 48.6016 35.3759 51.1523H30.428C29.3946 50.7576 29.1264 50.3633 29.1264 49.2388V40.2148C28.5711 40.2148 28.0435 40.2258 27.5169 40.2122C26.5102 40.1867 25.814 39.2674 26.0441 38.2852C26.1663 37.7643 26.5363 37.4164 26.8906 37.0617C30.2269 33.7211 33.5653 30.3822 36.9061 27.0451C37.2834 26.6732 37.6696 26.3195 38.1878 26.1523H38.8141C39.3406 26.3232 39.7336 26.682 40.1135 27.0638C41.0554 28.0107 41.9998 28.9548 42.9468 29.8961C43.0116 29.9607 43.0804 30.0216 43.189 30.1232C43.189 29.8065 43.1853 29.5419 43.189 29.2773C43.2031 28.4044 43.8674 27.7336 44.7426 27.7174C45.2191 27.7091 45.6961 27.7138 46.1731 27.7174C47.232 27.7174 47.8745 28.3617 47.875 29.418C47.875 31.1268 47.8781 32.8352 47.8718 34.5435C47.8664 34.6321 47.8808 34.7208 47.9139 34.8033C47.9471 34.8857 47.9981 34.9597 48.0634 35.0201C48.7418 35.6805 49.4025 36.3544 50.0721 37.0216C50.4593 37.4076 50.8299 37.8029 51 38.3419V38.9148C50.9812 38.9711 50.9603 39.0273 50.9431 39.0846C50.7344 39.7701 50.1754 40.2018 49.4604 40.2154C49.1045 40.2221 48.7486 40.2154 48.3927 40.2154H47.8776V40.5669C47.8776 43.544 47.8776 46.5213 47.8776 49.4987C47.8776 50.157 47.6041 50.6529 47.03 50.9727C46.886 51.0513 46.7253 51.0935 46.5729 51.1523Z" fill="white"/>
<defs>
<filter id="filter0_d_267_16" x="0.899475" y="0.899536" width="76" height="76" filterUnits="userSpaceOnUse" color-interpolation-filters="sRGB">
<feFlood flood-opacity="0" result="BackgroundImageFix"/>
<feColorMatrix in="SourceAlpha" type="matrix" values="0 0 0 0 0 0 0 0 0 0 0 0 0 0 0 0 0 0 127 0" result="hardAlpha"/>
<feOffset/>
<feGaussianBlur stdDeviation="5"/>
<feComposite in2="hardAlpha" operator="out"/>
<feColorMatrix type="matrix" values="0 0 0 0 0.366667 0 0 0 0 0.366667 0 0 0 0 0.366667 0 0 0 0.25 0"/>
<feBlend mode="normal" in2="BackgroundImageFix" result="effect1_dropShadow_267_16"/>
<feBlend mode="normal" in="SourceGraphic" in2="effect1_dropShadow_267_16" result="shape"/>
</filter>
<linearGradient id="paint0_linear_267_16" x1="55.0227" y1="83.2359" x2="9.76785" y2="40.8095" gradientUnits="userSpaceOnUse">
<stop stop-color="#148B3F"/>
<stop offset="1" stop-color="#2DD569"/>
</linearGradient>
</defs>
</svg>
