<svg width="29" height="38" viewBox="0 0 29 38" fill="none" xmlns="http://www.w3.org/2000/svg">
<path fill-rule="evenodd" clip-rule="evenodd" d="M14.5318 5.89155V34.9885C14.5318 35.5587 14.0819 36.0252 13.5322 36.0252H1.9996C1.44988 36.0252 1 35.5587 1 34.9885V5.89155C1 5.32143 1.44988 4.85486 1.9996 4.85486H13.5322C14.0819 4.85486 14.5318 5.32143 14.5318 5.89155Z" stroke="#43D477" stroke-width="2" stroke-miterlimit="22.9256"/>
<path fill-rule="evenodd" clip-rule="evenodd" d="M14.5318 5.89155V34.9885C14.5318 35.5587 14.0819 36.0252 13.5322 36.0252H1.9996C1.44988 36.0252 1 35.5587 1 34.9885V5.89155C1 5.32143 1.44988 4.85486 1.9996 4.85486H13.5322C14.0819 4.85486 14.5318 5.32143 14.5318 5.89155Z" fill="white"/>
<path fill-rule="evenodd" clip-rule="evenodd" d="M14.5943 4.45482L20.254 32.9536C20.3648 33.512 20.0151 34.0633 19.4763 34.1782L8.18091 36.591C7.64244 36.7059 7.1109 36.3432 7.00009 35.7847L1.34042 7.28596C1.22932 6.72752 1.57906 6.17625 2.11782 6.06133L13.4132 3.64858C13.9517 3.53365 14.4832 3.89638 14.594 4.45512L14.5943 4.45482Z" stroke="#43D477" stroke-width="2" stroke-miterlimit="22.9256"/>
<path fill-rule="evenodd" clip-rule="evenodd" d="M14.5943 4.45482L20.254 32.9536C20.3648 33.512 20.0151 34.0633 19.4763 34.1782L8.18091 36.591C7.64244 36.7059 7.1109 36.3432 7.00009 35.7847L1.34042 7.28596C1.22932 6.72752 1.57906 6.17625 2.11782 6.06133L13.4132 3.64858C13.9517 3.53365 14.4832 3.89638 14.594 4.45512L14.5943 4.45482Z" fill="white"/>
<path fill-rule="evenodd" clip-rule="evenodd" d="M14.177 2.38439L27.6855 27.8877C27.9501 28.3875 27.7723 29.0207 27.2907 29.2949L17.1822 35.0538C16.7003 35.3283 16.0899 35.1442 15.825 34.6444L2.31661 9.14141C2.052 8.64163 2.22947 8.00836 2.71138 7.73393L12.8199 1.97498C13.3015 1.70054 13.9124 1.8846 14.177 2.38439Z" stroke="#43D477" stroke-width="2" stroke-miterlimit="22.9256"/>
<path fill-rule="evenodd" clip-rule="evenodd" d="M14.177 2.38439L27.6855 27.8877C27.9501 28.3875 27.7723 29.0207 27.2907 29.2949L17.1822 35.0538C16.7003 35.3283 16.0899 35.1442 15.825 34.6444L2.31661 9.14141C2.052 8.64163 2.22947 8.00836 2.71138 7.73393L12.8199 1.97498C13.3015 1.70054 13.9124 1.8846 14.177 2.38439Z" fill="white"/>
<path fill-rule="evenodd" clip-rule="evenodd" d="M9.62385 7.08154C10.2117 7.08154 10.6884 7.57565 10.6884 8.18557C10.6884 8.79519 10.212 9.28959 9.62385 9.28959C9.03604 9.28959 8.55933 8.79549 8.55933 8.18557C8.55933 7.57594 9.03575 7.08154 9.62385 7.08154Z" fill="#43D477"/>
</svg>
