<svg width="33" height="37" viewBox="0 0 33 37" fill="none" xmlns="http://www.w3.org/2000/svg">
<path d="M18.3278 15.587C17.8603 15.868 17.2615 16.0228 16.6418 16.0228C16.0221 16.0228 15.4234 15.8681 14.9558 15.587L7.32275 10.999C7.32275 10.999 6.63379 10.5851 6.63379 11.5227C6.63379 12.5874 6.63379 15.7815 6.63379 15.7815C6.63379 15.8241 6.63379 16.0379 6.63379 16.1042C6.63379 18.5176 11.1145 21.1194 16.6416 21.1194C22.1688 21.1194 26.6495 18.5177 26.6495 16.1042C26.6495 16.0379 26.6495 15.8241 26.6495 15.7815C26.6495 15.7815 26.6495 12.3937 26.6495 11.2644C26.6495 10.5118 26.1597 10.8796 26.1597 10.8796L18.3278 15.587Z" fill="#27AC57"/>
<path d="M29.3362 7.34955C29.9227 6.99703 29.9227 6.42016 29.3362 6.06758L17.7082 0.368861C17.1216 0.0163488 16.1619 0.0163488 15.5754 0.368861L3.94735 6.06758C3.36083 6.4201 3.36083 6.99697 3.94735 7.34955L15.5754 14.3388C16.1619 14.6913 17.1216 14.6913 17.7082 14.3388" fill="#27AC57"/>
<path d="M28.8554 17.7093C28.8554 15.7795 28.8554 9.99019 28.8554 9.99019C28.8554 9.99019 28.8608 9.62457 28.6395 9.74531C28.4619 9.84216 28.0266 10.0799 27.8733 10.2107C27.6962 10.3615 27.7361 10.7 27.7361 10.7C27.7361 10.7 27.7361 15.957 27.7361 17.7093C27.7361 17.8088 27.6489 17.8562 27.6073 17.8803C27.2053 18.1118 26.935 18.5393 26.935 19.0294C26.935 19.7659 27.5442 20.363 28.2958 20.363C29.0473 20.363 29.6565 19.7659 29.6565 19.0294C29.6565 18.5375 29.3842 18.1086 28.9797 17.8776C28.9394 17.8546 28.8554 17.8087 28.8554 17.7093Z" fill="#27AC57"/>
<path d="M1.32699 33.9403V26.9932H2.58548V32.8853H5.64518V33.9403H1.32699ZM6.73744 33.9403V26.9932H11.2558V28.0482H7.99592V29.9342H11.0217V30.9891H7.99592V32.8853H11.2829V33.9403H6.73744ZM13.4318 33.9403H12.0885L14.5343 26.9932H16.0878L18.537 33.9403H17.1937L15.3382 28.4179H15.2839L13.4318 33.9403ZM13.4759 31.2164H17.1394V32.2273H13.4759V31.2164ZM19.452 33.9403V26.9932H22.0572C22.5908 26.9932 23.0386 27.0859 23.4004 27.2714C23.7645 27.4568 24.0393 27.7169 24.2247 28.0516C24.4124 28.384 24.5063 28.7718 24.5063 29.2151C24.5063 29.6606 24.4113 30.0473 24.2213 30.3752C24.0336 30.7008 23.7566 30.953 23.3903 31.1316C23.0239 31.308 22.5739 31.3962 22.0402 31.3962H20.1847V30.3514H21.8706C22.1827 30.3514 22.4382 30.3085 22.6372 30.2225C22.8362 30.1343 22.9832 30.0066 23.0782 29.8392C23.1754 29.6696 23.224 29.4616 23.224 29.2151C23.224 28.9686 23.1754 28.7583 23.0782 28.5841C22.9809 28.4077 22.8328 28.2743 22.6338 28.1839C22.4348 28.0911 22.1781 28.0448 21.8638 28.0448H20.7105V33.9403H19.452ZM23.0409 30.7924L24.7607 33.9403H23.3563L21.6671 30.7924H23.0409ZM31.3736 26.9932V33.9403H30.2542L26.9808 29.2083H26.9232V33.9403H25.6647V26.9932H26.7909L30.0609 31.7286H30.1219V26.9932H31.3736Z" fill="#27AC57"/>
</svg>
