<svg width="47" height="38" viewBox="0 0 47 38" fill="none" xmlns="http://www.w3.org/2000/svg">
<path d="M24.5389 20.0158V20.6926C24.5389 20.8538 24.4099 21.0149 24.2165 21.0149H13.3223C13.1289 21.0149 13 20.8538 13 20.6926V20.0158C13 17.0827 15.3851 14.6976 18.3182 14.6976H19.2207C22.1537 14.6976 24.5389 17.0827 24.5389 20.0158Z" fill="#27AC57"/>
<path d="M33.6281 20.0158V20.6926C33.6281 20.8538 33.4669 21.0149 33.3058 21.0149H25.119C25.1512 20.9182 25.1834 20.8215 25.1834 20.6926C25.119 20.3381 25.5058 18.2108 23.7653 16.148C24.7322 15.2133 26.0537 14.6976 27.4074 14.6976H28.3099C31.243 14.6976 33.6281 17.0827 33.6281 20.0158Z" fill="#27AC57"/>
<path d="M30.405 11.3131C30.405 12.6991 29.2769 13.8594 27.8587 13.8594C26.4405 13.8594 25.3124 12.7313 25.3124 11.3131C25.3124 9.92719 26.4405 8.76686 27.8587 8.76686C29.2769 8.76686 30.405 9.89496 30.405 11.3131Z" fill="#27AC57"/>
<path d="M21.3158 11.3133C21.3158 12.6992 20.1877 13.8596 18.7695 13.8596C17.3835 13.8596 16.2232 12.7315 16.2232 11.3133C16.2232 9.92733 17.3513 8.767 18.7695 8.767C20.1554 8.767 21.3158 9.8951 21.3158 11.3133Z" fill="#27AC57"/>
<path d="M25.8926 3.06199C25.8926 4.77025 23.9909 6.12397 21.6702 6.12397C21.4769 6.12397 21.2835 6.12397 21.0901 6.09174L18.576 7.63885C18.3504 7.80001 18.0281 7.57439 18.0926 7.28431L18.6727 5.22149C17.8992 4.64133 17.4479 3.86777 17.4479 3.06199C17.4479 1.35372 19.3496 0 21.638 0C23.9909 0 25.8926 1.38595 25.8926 3.06199Z" fill="#27AC57"/>
<path d="M29.3736 8.18684C29.5348 8.47692 29.1803 8.76701 28.9224 8.60585L26.6984 7.2199C25.4736 7.34882 24.3455 7.02651 23.572 6.47858C25.3125 5.89841 26.5373 4.60915 26.5373 3.06204C26.5373 2.57857 26.4083 2.15956 26.215 1.74055C28.2778 1.74055 29.9538 2.99758 29.9538 4.51246C29.9538 5.25378 29.567 5.93064 28.8902 6.44634L29.3736 8.18684Z" fill="#27AC57"/>
<path d="M7.19692 30.3372H5.92826C5.89208 30.1291 5.82537 29.9448 5.72813 29.7843C5.63088 29.6214 5.5099 29.4835 5.36517 29.3704C5.22044 29.2573 5.05535 29.1725 4.86992 29.116C4.68674 29.0572 4.48887 29.0278 4.27629 29.0278C3.89864 29.0278 3.56395 29.1228 3.27222 29.3128C2.9805 29.5005 2.7521 29.7763 2.58701 30.1404C2.42193 30.5023 2.33939 30.9444 2.33939 31.4668C2.33939 31.9982 2.42193 32.446 2.58701 32.81C2.75436 33.1719 2.98276 33.4455 3.27222 33.6309C3.56395 33.8141 3.89751 33.9057 4.2729 33.9057C4.48095 33.9057 4.67543 33.8786 4.85635 33.8243C5.03952 33.7678 5.20348 33.6852 5.34821 33.5767C5.4952 33.4681 5.61845 33.3347 5.71795 33.1764C5.81971 33.0181 5.88982 32.8372 5.92826 32.6336L7.19692 32.6404C7.14943 32.9706 7.04653 33.2804 6.88823 33.5699C6.7322 33.8593 6.52754 34.1149 6.27426 34.3365C6.02098 34.5559 5.72473 34.7277 5.38552 34.8521C5.04631 34.9742 4.66978 35.0353 4.25594 35.0353C3.64536 35.0353 3.10036 34.8939 2.62093 34.6113C2.14151 34.3286 1.76386 33.9204 1.48796 33.3867C1.21207 32.853 1.07412 32.213 1.07412 31.4668C1.07412 30.7182 1.2132 30.0782 1.49136 29.5468C1.76951 29.0131 2.1483 28.6049 2.62772 28.3223C3.10714 28.0396 3.64988 27.8982 4.25594 27.8982C4.64264 27.8982 5.00221 27.9525 5.33464 28.0611C5.66707 28.1696 5.96331 28.329 6.22338 28.5393C6.48344 28.7474 6.69714 29.0029 6.86449 29.306C7.0341 29.6067 7.14491 29.9505 7.19692 30.3372ZM14.557 31.4668C14.557 32.2153 14.4168 32.8564 14.1364 33.3901C13.8582 33.9215 13.4783 34.3286 12.9966 34.6113C12.5172 34.8939 11.9733 35.0353 11.365 35.0353C10.7567 35.0353 10.2117 34.8939 9.72999 34.6113C9.25057 34.3263 8.87065 33.9181 8.59024 33.3867C8.31208 32.853 8.173 32.213 8.173 31.4668C8.173 30.7182 8.31208 30.0782 8.59024 29.5468C8.87065 29.0131 9.25057 28.6049 9.72999 28.3223C10.2117 28.0396 10.7567 27.8982 11.365 27.8982C11.9733 27.8982 12.5172 28.0396 12.9966 28.3223C13.4783 28.6049 13.8582 29.0131 14.1364 29.5468C14.4168 30.0782 14.557 30.7182 14.557 31.4668ZM13.2917 31.4668C13.2917 30.9398 13.2092 30.4955 13.0441 30.1336C12.8813 29.7696 12.6551 29.4948 12.3657 29.3094C12.0762 29.1217 11.7427 29.0278 11.365 29.0278C10.9873 29.0278 10.6538 29.1217 10.3643 29.3094C10.0749 29.4948 9.84759 29.7696 9.6825 30.1336C9.51968 30.4955 9.43827 30.9398 9.43827 31.4668C9.43827 31.9937 9.51968 32.4392 9.6825 32.8033C9.84759 33.1651 10.0749 33.4398 10.3643 33.6275C10.6538 33.813 10.9873 33.9057 11.365 33.9057C11.7427 33.9057 12.0762 33.813 12.3657 33.6275C12.6551 33.4398 12.8813 33.1651 13.0441 32.8033C13.2092 32.4392 13.2917 31.9937 13.2917 31.4668ZM21.4557 27.9932V34.9403H20.3363L17.0629 30.2083H17.0053V34.9403H15.7468V27.9932H16.873L20.143 32.7286H20.204V27.9932H21.4557ZM26.6024 29.903C26.5708 29.6067 26.4374 29.3761 26.2022 29.211C25.9692 29.0459 25.6662 28.9634 25.2931 28.9634C25.0308 28.9634 24.8057 29.0029 24.6181 29.0821C24.4304 29.1612 24.2868 29.2687 24.1873 29.4043C24.0877 29.54 24.0369 29.6949 24.0346 29.8691C24.0346 30.0138 24.0674 30.1393 24.133 30.2456C24.2008 30.3519 24.2924 30.4423 24.4077 30.517C24.5231 30.5893 24.6508 30.6504 24.791 30.7001C24.9313 30.7499 25.0726 30.7917 25.2151 30.8256L25.8664 30.9885C26.1287 31.0495 26.3808 31.1321 26.6228 31.2361C26.867 31.3401 27.0853 31.4713 27.2775 31.6296C27.472 31.7879 27.6257 31.979 27.7388 32.2028C27.8519 32.4267 27.9084 32.6891 27.9084 32.9898C27.9084 33.3969 27.8044 33.7553 27.5963 34.0651C27.3883 34.3727 27.0875 34.6135 26.694 34.7877C26.3028 34.9595 25.829 35.0455 25.2727 35.0455C24.7323 35.0455 24.263 34.9618 23.865 34.7944C23.4692 34.6271 23.1594 34.3829 22.9356 34.0617C22.7139 33.7406 22.5941 33.3494 22.576 32.8881H23.8141C23.8322 33.13 23.9068 33.3313 24.038 33.4919C24.1692 33.6524 24.3399 33.7723 24.5502 33.8514C24.7628 33.9306 25.0002 33.9701 25.2626 33.9701C25.5362 33.9701 25.7759 33.9294 25.9817 33.848C26.1897 33.7644 26.3526 33.649 26.4702 33.502C26.5877 33.3528 26.6477 33.1787 26.6499 32.9796C26.6477 32.7987 26.5945 32.6495 26.4905 32.5319C26.3865 32.412 26.2406 32.3125 26.0529 32.2334C25.8675 32.152 25.6504 32.0796 25.4016 32.0163L24.6113 31.8128C24.0391 31.6658 23.5868 31.443 23.2544 31.1445C22.9242 30.8437 22.7592 30.4446 22.7592 29.9471C22.7592 29.5378 22.87 29.1793 23.0916 28.8718C23.3155 28.5642 23.6196 28.3256 24.0041 28.156C24.3885 27.9842 24.8238 27.8982 25.31 27.8982C25.803 27.8982 26.235 27.9842 26.6058 28.156C26.979 28.3256 27.2718 28.562 27.4844 28.865C27.697 29.1658 27.8067 29.5118 27.8134 29.903H26.6024ZM33.4096 27.9932H34.6681V32.5319C34.6681 33.0294 34.5505 33.467 34.3153 33.8446C34.0824 34.2223 33.7545 34.5174 33.3316 34.73C32.9087 34.9403 32.4146 35.0455 31.8492 35.0455C31.2816 35.0455 30.7864 34.9403 30.3635 34.73C29.9406 34.5174 29.6127 34.2223 29.3798 33.8446C29.1468 33.467 29.0304 33.0294 29.0304 32.5319V27.9932H30.2888V32.4267C30.2888 32.7162 30.3522 32.974 30.4788 33.2001C30.6077 33.4263 30.7886 33.6038 31.0215 33.7327C31.2545 33.8593 31.5304 33.9227 31.8492 33.9227C32.1681 33.9227 32.444 33.8593 32.6769 33.7327C32.9121 33.6038 33.093 33.4263 33.2196 33.2001C33.3463 32.974 33.4096 32.7162 33.4096 32.4267V27.9932ZM36.036 34.9403V27.9932H37.2944V33.8853H40.3541V34.9403H36.036ZM40.2549 29.0482V27.9932H45.7977V29.0482H43.6504V34.9403H42.4021V29.0482H40.2549Z" fill="#27AC57"/>
</svg>
