<svg width="30" height="30" viewBox="0 0 30 30" fill="none" xmlns="http://www.w3.org/2000/svg">
<path d="M16.5061 28.4688V29.4029C16.5061 29.6253 16.3282 29.8477 16.0613 29.8477H1.02755C0.760678 29.8477 0.582764 29.6253 0.582764 29.4029V28.4688C0.582764 24.4213 3.87417 21.1299 7.92172 21.1299H9.16712C13.2147 21.1299 16.5061 24.4213 16.5061 28.4688Z" fill="white"/>
<path d="M29.049 28.4688V29.4029C29.049 29.6253 28.8266 29.8477 28.6042 29.8477H17.3066C17.3511 29.7142 17.3956 29.5808 17.3956 29.4029C17.3066 28.9136 17.8404 25.9781 15.4385 23.1314C16.7729 21.8416 18.5965 21.1299 20.4646 21.1299H21.71C25.7575 21.1299 29.049 24.4213 29.049 28.4688Z" fill="white"/>
<path d="M24.6011 16.4595C24.6011 18.3721 23.0444 19.9733 21.0873 19.9733C19.1303 19.9733 17.5735 18.4165 17.5735 16.4595C17.5735 14.5469 19.1303 12.9457 21.0873 12.9457C23.0444 12.9457 24.6011 14.5024 24.6011 16.4595Z" fill="white"/>
<path d="M12.0583 16.4597C12.0583 18.3723 10.5015 19.9735 8.54449 19.9735C6.63191 19.9735 5.03069 18.4167 5.03069 16.4597C5.03069 14.5471 6.58743 12.9459 8.54449 12.9459C10.4571 12.9459 12.0583 14.5026 12.0583 16.4597Z" fill="white"/>
<path d="M18.3742 5.07311C18.3742 7.43048 15.7499 9.29857 12.5475 9.29857C12.2806 9.29857 12.0137 9.29857 11.7469 9.2541L8.27753 11.3891C7.96618 11.6115 7.52139 11.3001 7.61035 10.8998L8.41096 8.05318C7.34348 7.25256 6.72078 6.18508 6.72078 5.07311C6.72078 2.71575 9.34501 0.847656 12.503 0.847656C15.7499 0.847656 18.3742 2.76023 18.3742 5.07311Z" fill="white"/>
<path d="M23.1779 12.1453C23.4003 12.5456 22.9111 12.9459 22.5552 12.7235L19.4862 10.8109C17.796 10.9888 16.2393 10.544 15.1718 9.78791C17.5736 8.9873 19.2638 7.20816 19.2638 5.07319C19.2638 4.40601 19.0859 3.82779 18.819 3.24957C21.6657 3.24957 23.9786 4.98423 23.9786 7.07472C23.9786 8.09773 23.4448 9.03178 22.5108 9.74343L23.1779 12.1453Z" fill="white"/>
</svg>
