<svg width="37" height="28" viewBox="0 0 37 28" fill="none" xmlns="http://www.w3.org/2000/svg">
<path d="M14.4783 15.8477H12.8696V18.8477H14.4783C15.3663 18.8477 16.0869 18.1742 16.0869 17.3477C16.0869 16.5211 15.3663 15.8477 14.4783 15.8477Z" fill="white"/>
<path d="M32.9783 11.3477H4.02172C1.80338 11.3477 0 13.0307 0 15.0977V24.0977C0 26.1647 1.80338 27.8477 4.02172 27.8477H32.9783C35.1967 27.8477 37 26.1647 37 24.0977V15.0977C37.0001 13.0307 35.1967 11.3477 32.9783 11.3477ZM8.84781 15.8477H4.82609V18.8477H7.23914C7.68314 18.8477 8.04352 19.1837 8.04352 19.5977C8.04352 20.0117 7.68314 20.3477 7.23914 20.3477H4.82609V24.0977C4.82609 24.5117 4.46572 24.8477 4.02172 24.8477C3.57772 24.8477 3.21742 24.5117 3.21742 24.0977V15.0977C3.21742 14.6836 3.57779 14.3476 4.0218 14.3476H8.84789C9.29189 14.3476 9.65226 14.6836 9.65226 15.0977C9.65226 15.5117 9.29181 15.8477 8.84781 15.8477ZM17.4608 24.6272C17.3031 24.7742 17.0973 24.8477 16.8913 24.8477C16.6854 24.8477 16.4795 24.7742 16.3218 24.6287L12.8696 21.4081V24.0977C12.8696 24.5117 12.5092 24.8477 12.0652 24.8477C11.6212 24.8477 11.2609 24.5117 11.2609 24.0977V19.6022C11.2609 19.5991 11.2609 19.5946 11.2609 19.5917V15.0977C11.2609 14.6836 11.6212 14.3476 12.0652 14.3476H14.4783C16.2527 14.3476 17.6957 15.6931 17.6957 17.3477C17.6957 19.0022 16.2527 20.3477 14.4783 20.3477H14.0069L17.4608 23.5667C17.7745 23.8592 17.7745 24.3347 17.4608 24.6272ZM23.3261 18.8476C23.7701 18.8476 24.1305 19.1837 24.1305 19.5977C24.1305 20.0117 23.7701 20.3477 23.3261 20.3477H20.913V23.3477H24.9348C25.3788 23.3477 25.7391 23.6837 25.7391 24.0977C25.7391 24.5117 25.3788 24.8478 24.9348 24.8478H20.1087C19.6647 24.8478 19.3043 24.5117 19.3043 24.0977V15.0977C19.3043 14.6836 19.6647 14.3476 20.1087 14.3476H24.9348C25.3788 14.3476 25.7391 14.6836 25.7391 15.0977C25.7391 15.5117 25.3788 15.8477 24.9348 15.8477H20.913V18.8477L23.3261 18.8476ZM31.3696 18.8476C31.8136 18.8476 32.174 19.1837 32.174 19.5977C32.174 20.0117 31.8136 20.3477 31.3696 20.3477H28.9566V23.3477H32.9783C33.4223 23.3477 33.7827 23.6837 33.7827 24.0977C33.7827 24.5117 33.4223 24.8478 32.9783 24.8478H28.1522C27.7082 24.8478 27.3478 24.5117 27.3478 24.0977V15.0977C27.3478 14.6836 27.7082 14.3476 28.1522 14.3476H32.9783C33.4223 14.3476 33.7827 14.6836 33.7827 15.0977C33.7827 15.5117 33.4223 15.8477 32.9783 15.8477H28.9566V18.8477L31.3696 18.8476Z" fill="white"/>
<path d="M18.5 8.34763C20.7211 8.34763 22.5217 6.6687 22.5217 4.59764C22.5217 2.52658 20.7211 0.847656 18.5 0.847656C16.2789 0.847656 14.4783 2.52658 14.4783 4.59764C14.4783 6.6687 16.2789 8.34763 18.5 8.34763Z" fill="white"/>
<path d="M22.4848 4.25264L22.2869 4.06814C21.9716 3.77416 21.4632 3.77416 21.1479 4.06666C20.8342 4.35916 20.8342 4.83468 21.1479 5.12718L22.1823 6.09166C22.3995 5.63414 22.5217 5.13012 22.5217 4.59764C22.5218 4.47909 22.496 4.36816 22.4848 4.25264Z" fill="white"/>
<path d="M30.3304 11.5666L24.0098 5.67314C23.8876 6.21912 23.6543 6.72312 23.3647 7.19267L29.193 12.6272C29.3491 12.7742 29.555 12.8477 29.7609 12.8477C29.9669 12.8477 30.1727 12.7742 30.3304 12.6287C30.6441 12.3346 30.6441 11.8607 30.3304 11.5666Z" fill="white"/>
<path d="M15.8521 4.06666C15.5384 3.77416 15.0285 3.77416 14.7148 4.06666L14.5153 4.25263C14.5041 4.36816 14.4783 4.47909 14.4783 4.59764C14.4783 5.13012 14.6005 5.63414 14.8161 6.09314L15.8505 5.12866C16.1658 4.83461 16.1658 4.36063 15.8521 4.06666Z" fill="white"/>
<path d="M12.9903 5.67464L6.66966 11.5682C6.35597 11.8607 6.35597 12.3362 6.66966 12.6287C6.82734 12.7742 7.0332 12.8477 7.23914 12.8477C7.44508 12.8477 7.65094 12.7742 7.80862 12.6286L13.637 7.19409C13.3457 6.72314 13.1141 6.22061 12.9903 5.67464Z" fill="white"/>
</svg>
