<svg width="59" height="37" viewBox="0 0 59 37" fill="none" xmlns="http://www.w3.org/2000/svg">
<path d="M27.5077 11.7795H26.2556V14.1145H27.5077C28.1988 14.1145 28.7598 13.5902 28.7598 12.947C28.7598 12.3036 28.1988 11.7795 27.5077 11.7795Z" fill="#27AC57"/>
<path d="M41.9068 8.27696H19.369C17.6424 8.27696 16.2388 9.58689 16.2388 11.1957V18.2007C16.2388 19.8095 17.6424 21.1194 19.369 21.1194H41.9068C43.6335 21.1194 45.037 19.8095 45.037 18.2007V11.1957C45.0371 9.58689 43.6335 8.27696 41.9068 8.27696ZM23.1253 11.7794H19.9951V14.1145H21.8732C22.2188 14.1145 22.4993 14.376 22.4993 14.6982C22.4993 15.0205 22.2188 15.2819 21.8732 15.2819H19.9951V18.2007C19.9951 18.5229 19.7146 18.7844 19.369 18.7844C19.0234 18.7844 18.743 18.5229 18.743 18.2007V11.1957C18.743 10.8735 19.0235 10.6119 19.3691 10.6119H23.1254C23.471 10.6119 23.7515 10.8735 23.7515 11.1957C23.7515 11.5179 23.4709 11.7794 23.1253 11.7794ZM29.8291 18.6128C29.7064 18.7273 29.5461 18.7844 29.3858 18.7844C29.2255 18.7844 29.0653 18.7273 28.9426 18.614L26.2556 16.1073V18.2007C26.2556 18.5229 25.9751 18.7844 25.6295 18.7844C25.284 18.7844 25.0035 18.5229 25.0035 18.2007V14.7017C25.0035 14.6993 25.0035 14.6958 25.0035 14.6935V11.1957C25.0035 10.8735 25.284 10.6119 25.6295 10.6119H27.5077C28.8888 10.6119 30.0119 11.6592 30.0119 12.9469C30.0119 14.2347 28.8888 15.2819 27.5077 15.2819H27.1408L29.8291 17.7874C30.0732 18.015 30.0732 18.3852 29.8291 18.6128ZM34.3942 14.1144C34.7398 14.1144 35.0203 14.3759 35.0203 14.6982C35.0203 15.0204 34.7398 15.2819 34.3942 15.2819H32.5161V17.617H35.6463C35.9919 17.617 36.2724 17.8785 36.2724 18.2007C36.2724 18.523 35.9919 18.7845 35.6463 18.7845H31.89C31.5444 18.7845 31.2639 18.523 31.2639 18.2007V11.1957C31.2639 10.8735 31.5444 10.6119 31.89 10.6119H35.6463C35.9919 10.6119 36.2724 10.8735 36.2724 11.1957C36.2724 11.5179 35.9919 11.7794 35.6463 11.7794H32.5161V14.1145L34.3942 14.1144ZM40.6547 14.1144C41.0003 14.1144 41.2808 14.3759 41.2808 14.6982C41.2808 15.0204 41.0003 15.2819 40.6547 15.2819H38.7766V17.617H41.9068C42.2524 17.617 42.5329 17.8785 42.5329 18.2007C42.5329 18.523 42.2524 18.7845 41.9068 18.7845H38.1505C37.8049 18.7845 37.5244 18.523 37.5244 18.2007V11.1957C37.5244 10.8735 37.8049 10.6119 38.1505 10.6119H41.9068C42.2524 10.6119 42.5329 10.8735 42.5329 11.1957C42.5329 11.5179 42.2524 11.7794 41.9068 11.7794H38.7766V14.1145L40.6547 14.1144Z" fill="#27AC57"/>
<path d="M30.6379 5.94193C32.3667 5.94193 33.7681 4.63517 33.7681 3.0232C33.7681 1.41124 32.3667 0.104477 30.6379 0.104477C28.9091 0.104477 27.5077 1.41124 27.5077 3.0232C27.5077 4.63517 28.9091 5.94193 30.6379 5.94193Z" fill="#27AC57"/>
<path d="M33.7394 2.75468L33.5854 2.61107C33.34 2.38226 32.9443 2.38226 32.6989 2.60992C32.4547 2.83759 32.4547 3.2077 32.6989 3.43536L33.504 4.18605C33.673 3.82994 33.7681 3.43765 33.7681 3.0232C33.7682 2.93094 33.7481 2.84459 33.7394 2.75468Z" fill="#27AC57"/>
<path d="M39.8459 8.44737L34.9264 3.8603C34.8312 4.28525 34.6496 4.67753 34.4243 5.043L38.9606 9.27286C39.0821 9.38729 39.2424 9.44448 39.4026 9.44448C39.5629 9.44448 39.7232 9.38729 39.8459 9.27401C40.0901 9.04514 40.0901 8.67623 39.8459 8.44737Z" fill="#27AC57"/>
<path d="M28.577 2.60992C28.3328 2.38226 27.9359 2.38226 27.6917 2.60992L27.5365 2.75467C27.5278 2.84459 27.5077 2.93094 27.5077 3.0232C27.5077 3.43765 27.6028 3.82994 27.7706 4.1872L28.5757 3.43651C28.8212 3.20765 28.8212 2.83873 28.577 2.60992Z" fill="#27AC57"/>
<path d="M26.3495 3.86146L21.43 8.44858C21.1858 8.67624 21.1858 9.04636 21.43 9.27402C21.5527 9.38725 21.713 9.44444 21.8732 9.44444C22.0335 9.44444 22.1938 9.38725 22.3165 9.27397L26.8529 5.0441C26.6262 4.67754 26.4459 4.28641 26.3495 3.86146Z" fill="#27AC57"/>
<path d="M1.75984 33.9403V26.9932H6.21032V28.0482H3.01833V29.9342H5.90503V30.9891H3.01833V33.9403H1.75984ZM7.35686 33.9403V26.9932H9.96202C10.4957 26.9932 10.9435 27.0859 11.3053 27.2714C11.6694 27.4568 11.9442 27.7169 12.1296 28.0516C12.3173 28.384 12.4111 28.7718 12.4111 29.2151C12.4111 29.6606 12.3162 30.0473 12.1262 30.3752C11.9385 30.7008 11.6615 30.953 11.2951 31.1316C10.9288 31.308 10.4788 31.3962 9.94506 31.3962H8.08956V30.3514H9.77545C10.0875 30.3514 10.3431 30.3085 10.5421 30.2225C10.7411 30.1343 10.8881 30.0066 10.983 29.8392C11.0803 29.6696 11.1289 29.4616 11.1289 29.2151C11.1289 28.9686 11.0803 28.7583 10.983 28.5841C10.8858 28.4077 10.7377 28.2743 10.5387 28.1839C10.3397 28.0911 10.083 28.0448 9.76866 28.0448H8.61534V33.9403H7.35686ZM10.9457 30.7924L12.6655 33.9403H11.2612L9.57192 30.7924H10.9457ZM13.5695 33.9403V26.9932H18.0879V28.0482H14.828V29.9342H17.8538V30.9891H14.828V32.8853H18.115V33.9403H13.5695ZM19.3718 33.9403V26.9932H23.8901V28.0482H20.6303V29.9342H23.656V30.9891H20.6303V32.8853H23.9172V33.9403H19.3718ZM33.4898 29.3372H32.2212C32.185 29.1291 32.1183 28.9448 32.021 28.7843C31.9238 28.6214 31.8028 28.4835 31.6581 28.3704C31.5133 28.2573 31.3483 28.1725 31.1628 28.116C30.9797 28.0572 30.7818 28.0278 30.5692 28.0278C30.1915 28.0278 29.8569 28.1228 29.5651 28.3128C29.2734 28.5005 29.045 28.7763 28.8799 29.1404C28.7148 29.5023 28.6323 29.9444 28.6323 30.4668C28.6323 30.9982 28.7148 31.446 28.8799 31.81C29.0473 32.1719 29.2757 32.4455 29.5651 32.6309C29.8569 32.8141 30.1904 32.9057 30.5658 32.9057C30.7739 32.9057 30.9683 32.8786 31.1493 32.8243C31.3324 32.7678 31.4964 32.6852 31.6411 32.5767C31.7881 32.4681 31.9114 32.3347 32.0109 32.1764C32.1126 32.0181 32.1827 31.8372 32.2212 31.6336L33.4898 31.6404C33.4423 31.9706 33.3394 32.2804 33.1811 32.5699C33.0251 32.8593 32.8204 33.1149 32.5672 33.3365C32.3139 33.5559 32.0176 33.7277 31.6784 33.8521C31.3392 33.9742 30.9627 34.0353 30.5489 34.0353C29.9383 34.0353 29.3933 33.8939 28.9138 33.6113C28.4344 33.3286 28.0568 32.9204 27.7809 32.3867C27.505 31.853 27.367 31.213 27.367 30.4668C27.367 29.7182 27.5061 29.0782 27.7843 28.5468C28.0624 28.0131 28.4412 27.6049 28.9206 27.3223C29.4001 27.0396 29.9428 26.8982 30.5489 26.8982C30.9356 26.8982 31.2951 26.9525 31.6276 27.0611C31.96 27.1696 32.2562 27.329 32.5163 27.5393C32.7764 27.7474 32.9901 28.0029 33.1574 28.306C33.327 28.6067 33.4378 28.9505 33.4898 29.3372ZM34.6423 33.9403V26.9932H35.9008V32.8853H38.9605V33.9403H34.6423ZM41.2061 33.9403H39.8628L42.3085 26.9932H43.8621L46.3112 33.9403H44.968L43.1125 28.4179H43.0582L41.2061 33.9403ZM41.2502 31.2164H44.9137V32.2273H41.2502V31.2164ZM50.8898 28.903C50.8581 28.6067 50.7247 28.3761 50.4895 28.211C50.2566 28.0459 49.9535 27.9634 49.5804 27.9634C49.3181 27.9634 49.0931 28.0029 48.9054 28.0821C48.7177 28.1612 48.5741 28.2687 48.4746 28.4043C48.3751 28.54 48.3242 28.6949 48.3219 28.8691C48.3219 29.0138 48.3547 29.1393 48.4203 29.2456C48.4881 29.3519 48.5797 29.4423 48.6951 29.517C48.8104 29.5893 48.9382 29.6504 49.0784 29.7001C49.2186 29.7499 49.3599 29.7917 49.5024 29.8256L50.1537 29.9885C50.416 30.0495 50.6681 30.1321 50.9101 30.2361C51.1543 30.3401 51.3726 30.4713 51.5648 30.6296C51.7593 30.7879 51.9131 30.979 52.0261 31.2028C52.1392 31.4267 52.1957 31.6891 52.1957 31.9898C52.1957 32.3969 52.0917 32.7553 51.8837 33.0651C51.6756 33.3727 51.3748 33.6135 50.9814 33.7877C50.5901 33.9595 50.1164 34.0455 49.56 34.0455C49.0196 34.0455 48.5503 33.9618 48.1523 33.7944C47.7566 33.6271 47.4468 33.3829 47.2229 33.0617C47.0013 32.7406 46.8814 32.3494 46.8633 31.8881H48.1014C48.1195 32.13 48.1941 32.3313 48.3253 32.4919C48.4565 32.6524 48.6272 32.7723 48.8375 32.8514C49.0501 32.9306 49.2875 32.9701 49.5499 32.9701C49.8235 32.9701 50.0632 32.9294 50.269 32.848C50.4771 32.7644 50.6399 32.649 50.7575 32.502C50.8751 32.3528 50.935 32.1787 50.9373 31.9796C50.935 31.7987 50.8818 31.6495 50.7778 31.5319C50.6738 31.412 50.5279 31.3125 50.3402 31.2334C50.1548 31.152 49.9377 31.0796 49.6889 31.0163L48.8986 30.8128C48.3264 30.6658 47.8742 30.443 47.5417 30.1445C47.2116 29.8437 47.0465 29.4446 47.0465 28.9471C47.0465 28.5378 47.1573 28.1793 47.3789 27.8718C47.6028 27.5642 47.9069 27.3256 48.2914 27.156C48.6758 26.9842 49.1112 26.8982 49.5974 26.8982C50.0904 26.8982 50.5223 26.9842 50.8932 27.156C51.2663 27.3256 51.5591 27.562 51.7717 27.865C51.9843 28.1658 52.094 28.5118 52.1008 28.903H50.8898ZM57.0931 28.903C57.0615 28.6067 56.928 28.3761 56.6928 28.211C56.4599 28.0459 56.1569 27.9634 55.7838 27.9634C55.5214 27.9634 55.2964 28.0029 55.1087 28.0821C54.921 28.1612 54.7774 28.2687 54.6779 28.4043C54.5784 28.54 54.5275 28.6949 54.5253 28.8691C54.5253 29.0138 54.5581 29.1393 54.6236 29.2456C54.6915 29.3519 54.7831 29.4423 54.8984 29.517C55.0137 29.5893 55.1415 29.6504 55.2817 29.7001C55.4219 29.7499 55.5633 29.7917 55.7057 29.8256L56.357 29.9885C56.6194 30.0495 56.8715 30.1321 57.1135 30.2361C57.3577 30.3401 57.5759 30.4713 57.7682 30.6296C57.9626 30.7879 58.1164 30.979 58.2295 31.2028C58.3426 31.4267 58.3991 31.6891 58.3991 31.9898C58.3991 32.3969 58.2951 32.7553 58.087 33.0651C57.879 33.3727 57.5782 33.6135 57.1847 33.7877C56.7935 33.9595 56.3197 34.0455 55.7634 34.0455C55.2229 34.0455 54.7537 33.9618 54.3557 33.7944C53.9599 33.6271 53.6501 33.3829 53.4262 33.0617C53.2046 32.7406 53.0848 32.3494 53.0667 31.8881H54.3048C54.3229 32.13 54.3975 32.3313 54.5287 32.4919C54.6598 32.6524 54.8306 32.7723 55.0409 32.8514C55.2535 32.9306 55.4909 32.9701 55.7532 32.9701C56.0269 32.9701 56.2666 32.9294 56.4724 32.848C56.6804 32.7644 56.8432 32.649 56.9608 32.502C57.0784 32.3528 57.1383 32.1787 57.1406 31.9796C57.1383 31.7987 57.0852 31.6495 56.9812 31.5319C56.8772 31.412 56.7313 31.3125 56.5436 31.2334C56.3582 31.152 56.1411 31.0796 55.8923 31.0163L55.1019 30.8128C54.5298 30.6658 54.0775 30.443 53.7451 30.1445C53.4149 29.8437 53.2498 29.4446 53.2498 28.9471C53.2498 28.5378 53.3606 28.1793 53.5823 27.8718C53.8061 27.5642 54.1103 27.3256 54.4947 27.156C54.8792 26.9842 55.3145 26.8982 55.8007 26.8982C56.2937 26.8982 56.7256 26.9842 57.0965 27.156C57.4696 27.3256 57.7625 27.562 57.9751 27.865C58.1876 28.1658 58.2973 28.5118 58.3041 28.903H57.0931Z" fill="#27AC57"/>
</svg>
