<svg width="30" height="25" viewBox="0 0 30 25" fill="none" xmlns="http://www.w3.org/2000/svg">
<path d="M16.9255 18.5294C16.3916 18.8504 15.7078 19.0272 15.0001 19.0272C14.2923 19.0272 13.6085 18.8504 13.0746 18.5294L4.35723 13.2897C4.35723 13.2897 3.5704 12.817 3.5704 13.8878C3.5704 15.1037 3.5704 18.7515 3.5704 18.7515C3.5704 18.8002 3.5704 19.0443 3.5704 19.12C3.5704 21.8763 8.68756 24.8477 14.9998 24.8477C21.3121 24.8477 26.4293 21.8764 26.4293 19.12C26.4293 19.0443 26.4293 18.8002 26.4293 18.7515C26.4293 18.7515 26.4293 14.8825 26.4293 13.5928C26.4293 12.7333 25.8699 13.1533 25.8699 13.1533L16.9255 18.5294Z" fill="white"/>
<path d="M29.4976 9.12186C30.1675 8.71927 30.1675 8.06045 29.4976 7.6578L16.2178 1.1496C15.548 0.74701 14.4519 0.74701 13.7821 1.1496L0.502369 7.6578C-0.167456 8.06038 -0.167456 8.7192 0.502369 9.12186L13.7821 17.1039C14.4519 17.5065 15.548 17.5065 16.2178 17.1039" fill="white"/>
<path d="M28.9485 20.9531C28.9485 18.7493 28.9485 12.1376 28.9485 12.1376C28.9485 12.1376 28.9547 11.72 28.7019 11.8579C28.4991 11.9685 28.002 12.2401 27.8269 12.3894C27.6247 12.5616 27.6702 12.9482 27.6702 12.9482C27.6702 12.9482 27.6702 18.9519 27.6702 20.9531C27.6702 21.0667 27.5706 21.121 27.5231 21.1484C27.064 21.4129 26.7554 21.9011 26.7554 22.4608C26.7554 23.3019 27.4511 23.9838 28.3094 23.9838C29.1676 23.9838 29.8633 23.3019 29.8633 22.4608C29.8633 21.899 29.5524 21.4092 29.0904 21.1454C29.0445 21.1191 28.9485 21.0667 28.9485 20.9531Z" fill="white"/>
</svg>
