<svg width="26" height="26" viewBox="0 0 26 26" fill="none" xmlns="http://www.w3.org/2000/svg">
<rect x="0.5" y="0.5" width="25" height="25" rx="4.16667" fill="#17C7DE"/>
<path d="M13.0001 4.66663C8.39754 4.66663 4.66675 8.39742 4.66675 13C4.66675 17.6025 8.39754 21.3333 13.0001 21.3333C17.6023 21.3333 21.3334 17.6025 21.3334 13C21.3334 8.39742 17.6026 4.66663 13.0001 4.66663ZM18.2022 18.2021C16.8126 19.5918 14.9653 20.3567 13.0001 20.3567C11.0349 20.3567 9.18758 19.5914 7.79793 18.2021C6.40828 16.8125 5.64331 14.9651 5.64331 13C5.64331 11.0348 6.40861 9.18746 7.79793 7.79781C9.18758 6.40816 11.0349 5.64319 13.0001 5.64319C14.9653 5.64319 16.8126 6.40849 18.2022 7.79781C19.5919 9.18746 20.3569 11.0348 20.3569 13C20.3569 14.9651 19.5916 16.8125 18.2022 18.2021ZM14.9584 10.679H16.2553L15.8988 12.0472H14.9457C14.8461 12.6481 14.616 13.1386 14.2553 13.5188C13.8943 13.8994 13.3809 14.191 12.7156 14.3942L15.3481 17.6233V17.7203H12.9102L9.93433 14.1673L9.92782 12.916H11.4581C12.0763 12.903 12.476 12.6136 12.6576 12.0472H9.73999L10.0964 10.679H12.6056C12.4154 10.2685 12.0437 10.0543 11.4903 10.0371H9.74617L10.1612 8.27991H16.2621L15.9057 9.64807H14.5896C14.7797 9.95308 14.9031 10.2968 14.9591 10.679H14.9584Z" fill="white"/>
</svg>
