<svg xmlns="http://www.w3.org/2000/svg" xml:space="preserve" width="85" height="85" style="shape-rendering:geometricPrecision;text-rendering:geometricPrecision;image-rendering:optimizeQuality;fill-rule:evenodd;clip-rule:evenodd" viewBox="0 0 16667.18 16667.18"><defs><style>.fil1{fill:#1187ba}</style></defs><g id="Layer_x0020_1"><path d="M16667.18 8333.59C16667.18 3731.1 12936.08 0 8333.59 0S0 3731.1 0 8333.59s3731.1 8333.59 8333.59 8333.59 8333.59-3731.1 8333.59-8333.59" data-name="Ellipse 372" style="fill:#00aeef;fill-rule:nonzero;fill-opacity:.301961"/><g id="_2156880371680"><g id="Layer_x0020_1_6"><g id="_214286816"><path id="_214288760" d="M9880.57 12843.29H4842.09c-54.32 0-98.49-44.1-98.49-98.49V3922.38c0-54.4 44.1-98.49 98.49-98.49h6517.66c54.55 0 98.49 44.1 98.49 98.49v5927.74c0 54.32-43.95 98.42-98.49 98.42-54.32 0-98.49-44.1-98.49-98.42l.07-5829.32H4940.51v8625.58h4940.06c54.4 0 98.49 44.1 98.49 98.42 0 54.4-44.1 98.49-98.49 98.49" class="fil1"/><path id="_214289048" d="M6441.47 8161.87v746.89l646.54-373.52zm-98.49 1015.83c-16.97 0-34.02-4.37-49.21-13.19-30.53-17.64-49.28-50.25-49.28-85.3l.07-1087.8c0-35.28 18.6-67.66 49.21-85.3 30.39-17.64 67.89-17.64 98.42 0l942.17 543.97c30.39 17.42 49.21 50.02 49.21 85.08 0 35.35-18.82 67.74-49.21 85.38l-942.17 543.97c-15.34 8.82-32.39 13.12-49.21 13.12z" class="fil1"/><path id="_214288352" d="M5643.67 6428.2h2242.07V4921.75H5643.67zm2340.49 196.91H5545.25c-54.4 0-98.49-44.1-98.49-98.49l.07-1703.36c0-54.4 44.02-98.42 98.42-98.42l2438.91-.07c54.4 0 98.49 44.1 98.49 98.49v1703.36c0 54.4-44.1 98.49-98.49 98.49" class="fil1"/><path id="_214288688" d="M5774.33 6625.12c-16.6 0-33.57-4.3-48.99-13.12-47.21-27.35-63.36-87.45-36.09-134.58l450.44-780.31c17.64-30.53 50.25-49.21 85.3-49.21 35.13 0 67.74 18.68 85.38 49.21l316.16 547.45c27.27 47.21 10.97 107.53-36.17 134.58-46.91 27.27-107.31 11.12-134.36-36.09l-230.93-399.83-365.37 632.61c-18.23 31.65-51.28 49.28-85.38 49.28z" class="fil1"/><path id="_214289024" d="M7755.08 6625.12c-34.09 0-67.07-17.64-85.38-49.28L7080.82 5556l-588.66 1019.84c-27.27 47.21-87.45 63.22-134.66 36.17-46.91-27.35-63.14-87.45-35.87-134.58l674.11-1167.61c17.42-30.31 49.95-49.21 85.08-49.21 35.28 0 67.66 18.9 85.3 49.21l674.04 1167.61c27.35 47.13 11.12 107.31-36.09 134.58-15.34 8.82-32.39 13.12-48.99 13.12z" class="fil1"/><path id="_214288664" d="M10656.58 5066.57H8527.75c-54.32 0-98.42-44.1-98.42-98.49 0-54.4 44.1-98.42 98.42-98.42h2128.83c54.4 0 98.42 44.1 98.42 98.42 0 54.4-44.1 98.49-98.42 98.49" class="fil1"/><path id="_214288952" d="M10656.58 5773.44H8527.75c-54.32 0-98.42-44.1-98.42-98.49 0-54.32 44.1-98.49 98.42-98.49h2128.83c54.4 0 98.42 44.17 98.42 98.49 0 54.4-44.1 98.49-98.42 98.49" class="fil1"/><path id="_214287608" d="M10656.58 6480.23H8527.75c-54.32 0-98.42-44.02-98.42-98.42 0-54.32 44.1-98.49 98.42-98.49l2128.83.07c54.4 0 98.42 44.1 98.42 98.42 0 54.4-44.1 98.49-98.42 98.49z" class="fil1"/><path id="_214287704" d="M5643.67 9288.43h2242.07V7781.98H5643.67zm2340.49 196.91H5545.25c-54.4 0-98.49-44.1-98.49-98.42l.07-1703.36c0-54.4 44.02-98.49 98.42-98.49h2438.91c54.4 0 98.49 44.1 98.49 98.49v1703.36c0 54.32-44.1 98.42-98.49 98.42" class="fil1"/><path id="_214288160" d="M10656.58 7926.79H8527.75c-54.32 0-98.42-44.1-98.42-98.42 0-54.4 44.1-98.49 98.42-98.49h2128.83c54.4 0 98.42 44.1 98.42 98.49 0 54.32-44.1 98.42-98.42 98.42" class="fil1"/><path id="_214287680" d="M10656.58 8633.66H8527.75c-54.32 0-98.42-44.1-98.42-98.42 0-54.4 44.1-98.49 98.42-98.49h2128.83c54.4 0 98.42 44.1 98.42 98.49 0 54.32-44.1 98.42-98.42 98.42" class="fil1"/><path id="_214288040" d="M10656.58 9340.53H8527.75c-54.32 0-98.42-44.1-98.42-98.42 0-54.4 44.1-98.49 98.42-98.49h2128.83c54.4 0 98.42 44.1 98.42 98.49 0 54.32-44.1 98.42-98.42 98.42" class="fil1"/><path id="_214287920" d="M9410.49 10528.45H5545.25c-54.4 0-98.49-43.87-98.49-98.49.07-54.32 44.1-98.42 98.49-98.42h3865.24c54.55 0 98.42 44.1 98.42 98.42 0 54.62-43.95 98.49-98.42 98.49" class="fil1"/><path id="_214287728" d="M9410.49 11235.31H5545.25c-54.4 0-98.49-44.1-98.49-98.49.07-54.32 44.1-98.42 98.49-98.42h3865.24c54.55 0 98.42 44.1 98.42 98.42 0 54.4-43.95 98.49-98.42 98.49" class="fil1"/><path id="_214287824" d="M9410.49 11942.18H5545.25c-54.4 0-98.49-44.1-98.49-98.49.07-54.32 44.1-98.49 98.49-98.49l3865.24.07c54.55 0 98.42 44.1 98.42 98.42 0 54.4-43.95 98.49-98.42 98.49" class="fil1"/><path id="_214288136" d="M9979.07 12646.38h1747.68V11144.6l-1747.68.07v1501.7zm1846.17 196.91H9880.58c-54.32 0-98.49-44.1-98.49-98.49l.07-1698.61c0-54.4 44.1-98.49 98.42-98.49h1944.66c54.32 0 98.42 44.1 98.42 98.49v1698.61c0 54.4-44.1 98.49-98.42 98.49" class="fil1"/><path id="_214288064" d="M11652.85 11144.68c-54.32 0-98.42-43.95-98.42-98.49v-578.51c0-386.78-314.67-701.53-701.53-701.53s-701.53 314.75-701.53 701.6v578.43c0 54.55-44.17 98.42-98.49 98.42s-98.49-43.87-98.49-98.42v-578.51c0-495.36 403.09-898.44 898.44-898.44 495.43 0 898.52 403.09 898.52 898.52v578.43c0 54.55-44.17 98.42-98.49 98.42v.07z" class="fil1"/><path id="_214287152" d="M11308.31 11144.68c-54.4 0-98.49-43.95-98.49-98.49v-578.51c0-196.69-160-356.84-356.92-356.84-196.69 0-356.92 160.15-356.92 356.92v578.43c0 54.55-44.1 98.49-98.49 98.49-54.32 0-98.49-43.95-98.49-98.49l.07-578.51c0-305.41 248.34-553.83 553.83-553.83 305.41 0 553.83 248.42 553.83 553.9v578.43c0 54.55-44.1 98.42-98.42 98.42v.07z" class="fil1"/><path id="_214287104" d="M10852.9 11551.02c-82.26 0-149.18 66.85-149.18 149.11.07 38.54 14.82 75.07 41.43 103.16 17.49 18.23 27.35 42.69 27.35 68.11v288.36c0 44.32 36.09 80.48 80.41 80.48s80.41-36.17 80.41-80.48v-288.36c0-25.42 9.78-49.88 27.27-68.11 26.68-27.94 41.43-64.62 41.43-103.16 0-82.26-66.85-149.11-149.11-149.11zm0 886.07c-152.82 0-277.32-124.43-277.32-277.32v-252.64c-44.54-59.51-68.77-131.77-68.77-206.99 0-190.98 155.26-346.02 346.1-346.02 190.76 0 346.02 155.04 346.02 346.02 0 75.22-24.23 147.48-68.7 206.99v252.64c0 152.89-124.51 277.32-277.32 277.32z" class="fil1"/></g></g></g></g></svg>