<svg xmlns="http://www.w3.org/2000/svg" xml:space="preserve" width="85" height="85" style="shape-rendering:geometricPrecision;text-rendering:geometricPrecision;image-rendering:optimizeQuality;fill-rule:evenodd;clip-rule:evenodd" viewBox="0 0 823.17 823.17"><defs><style>.str0{stroke:#039;stroke-width:7.32;stroke-miterlimit:22.9256}.fil1{fill:#039;fill-rule:nonzero}</style></defs><g id="Layer_x0020_1"><path d="M823.17 411.59C823.17 184.28 638.9 0 411.58 0 184.27 0-.01 184.27-.01 411.59c0 227.31 184.27 411.59 411.59 411.59 227.31 0 411.59-184.27 411.59-411.59" data-name="Ellipse 372" style="fill:#a3a3ff;fill-rule:nonzero;fill-opacity:.301961"/><g id="_2157249489328"><g id="_319_Team_Work"><path d="M411.59 195.94c-77.89 0-141.26 63.37-141.26 141.26 0 17.51 3.29 34.23 9.15 49.7-24.08 3.96-42.54 24.86-42.54 50.05 0 28 22.78 50.77 50.78 50.77 21.41 0 39.72-13.33 47.18-32.11 22.12 14.38 48.4 22.84 76.69 22.84 28.28 0 54.59-8.44 76.7-22.82 7.47 18.77 25.78 32.09 47.17 32.09 28 0 50.78-22.78 50.78-50.77 0-25.22-18.5-46.14-42.62-50.06 5.9-15.46 9.23-32.17 9.23-49.69 0-77.89-63.37-141.26-141.26-141.26zM287.72 477.21c-22.2 0-40.26-18.06-40.26-40.26s18.06-40.26 40.26-40.26 40.26 18.06 40.26 40.26-18.06 40.26-40.26 40.26zm123.87-9.27c-27.38 0-52.76-8.55-73.78-22.99.42-2.61.7-5.27.7-7.99 0-27.06-21.29-49.17-47.99-50.64-6.2-15.17-9.66-31.74-9.66-49.11 0-72.09 58.65-130.74 130.74-130.74 72.08 0 130.73 58.65 130.73 130.74 0 17.4-3.55 33.95-9.79 49.12-26.64 1.53-47.86 23.62-47.86 50.63 0 2.75.28 5.42.7 8.05-21.02 14.44-46.42 22.94-73.79 22.94zm164.12-30.99c0 22.2-18.06 40.26-40.26 40.26s-40.26-18.06-40.26-40.26 18.06-40.26 40.26-40.26 40.26 18.06 40.26 40.26z" class="fil1 str0"/><path d="M411.59 255.48c2.9 0 5.26-2.36 5.26-5.26v-21.61a5.26 5.26 0 0 0-5.26-5.26c-2.91 0-5.26 2.35-5.26 5.26v21.61c0 2.91 2.35 5.26 5.26 5.26zM411.59 418.91c-2.91 0-5.26 2.35-5.26 5.26v21.61c0 2.9 2.35 5.26 5.26 5.26 2.9 0 5.26-2.36 5.26-5.26v-21.61a5.26 5.26 0 0 0-5.26-5.26zM498.56 342.46h21.61a5.26 5.26 0 0 0 5.26-5.26c0-2.91-2.35-5.26-5.26-5.26h-21.61c-2.91 0-5.26 2.35-5.26 5.26 0 2.9 2.35 5.26 5.26 5.26zM324.61 331.94H303c-2.91 0-5.26 2.35-5.26 5.26 0 2.9 2.35 5.26 5.26 5.26h21.61c2.9 0 5.26-2.36 5.26-5.26a5.26 5.26 0 0 0-5.26-5.26zM483.2 261.69a5.25 5.25 0 0 0-7.43.2l-49.89 52.6c-4.15-2.62-9.04-4.16-14.3-4.16-13.02 0-23.89 9.3-26.35 21.61h-38.49c-2.9 0-5.26 2.36-5.26 5.26a5.26 5.26 0 0 0 5.26 5.26h38.49c2.45 12.31 13.33 21.62 26.35 21.62 14.82 0 26.87-12.06 26.87-26.88 0-5.76-1.84-11.09-4.94-15.48l49.89-52.59c2-2.11 1.91-5.44-.2-7.44zm-71.62 91.86c-9.02 0-16.35-7.34-16.35-16.35 0-9.02 7.34-16.35 16.35-16.35 9.02 0 16.35 7.34 16.35 16.35 0 9.02-7.34 16.35-16.35 16.35zM234.06 627.24h107.31c21.93 0 39.77-17.84 39.77-39.76 0-47.33-38.51-85.84-85.84-85.84h-15.16c-47.33 0-85.84 38.51-85.84 85.84 0 21.92 17.84 39.76 39.77 39.76zm46.08-115.09h15.16c41.53 0 75.32 33.79 75.32 75.32 0 16.12-13.12 29.25-29.25 29.25H234.06c-16.13 0-29.25-13.12-29.25-29.25 0-41.54 33.79-75.32 75.32-75.32zM543.03 501.63h-15.16c-47.33 0-85.84 38.51-85.84 85.84 0 21.92 17.84 39.76 39.76 39.76H589.1c21.93 0 39.77-17.84 39.77-39.76 0-47.33-38.51-85.84-85.84-85.84zm46.08 115.09H481.8c-16.13 0-29.25-13.12-29.25-29.25 0-41.54 33.79-75.32 75.32-75.32h15.16c41.53 0 75.32 33.79 75.32 75.32 0 16.12-13.12 29.25-29.25 29.25z" class="fil1 str0"/></g></g></g></svg>