<svg xmlns="http://www.w3.org/2000/svg" xml:space="preserve" width="85" height="85" style="shape-rendering:geometricPrecision;text-rendering:geometricPrecision;image-rendering:optimizeQuality;fill-rule:evenodd;clip-rule:evenodd" viewBox="0 0 283.73 283.73"><defs><style>.fil1{fill:#cc8512;fill-rule:nonzero}</style></defs><g id="Layer_x0020_1"><path d="M283.73 141.87C283.73 63.52 220.21 0 141.86 0S-.01 63.52-.01 141.87s63.52 141.87 141.87 141.87 141.87-63.52 141.87-141.87" data-name="Ellipse 372" style="fill:#ffe550;fill-rule:nonzero;fill-opacity:.301961"/><g id="_2157270938608"><path d="M227.73 109.14c-1.23-47.48-66.61-55.31-79.3-10.01H77.41c-5.94.01-10.75 4.82-10.76 10.76v79.1h-7.59a3.07 3.07 0 0 0-3.07 3.07v6.38c.01 8.98 7.29 16.26 16.27 16.27h126.4c8.98-.01 16.26-7.29 16.28-16.27v-6.38c0-1.7-1.38-3.07-3.07-3.07h-7.01v-43.56c13.95-6.7 22.85-20.8 22.87-36.28zm-40.3-34.15c18.85.02 34.13 15.3 34.15 34.15-1.87 45.31-66.44 45.3-68.31 0 .02-18.85 15.3-34.13 34.16-34.15m21.37 123.45c-.01 5.59-4.54 10.12-10.13 10.12H72.27c-5.59-.01-10.12-4.54-10.13-10.13v-3.31c3.38.02 49.22-.01 54.04 0v6.72c0 1.7 1.38 3.07 3.07 3.07h33.01c1.7 0 3.07-1.38 3.07-3.07v-6.72h53.44v3.31zm-59.59-3.3v3.64h-26.87v-3.64zm49.51-6.15H72.81v-79.1c0-2.54 2.07-4.61 4.61-4.61h69.9c-.13 1.31-.19 2.63-.19 3.94 0 22.21 18.01 40.22 40.22 40.22 3.84 0 7.68-.56 11.36-1.64v41.18z" class="fil1"/><path d="M166.4 126.66c.35.13.73.21 1.11.21 1.27 0 2.41-.78 2.87-1.97l3.21-8.31h10.48l3.21 8.31c.47 1.16 1.6 1.91 2.84 1.91 1.7 0 3.07-1.38 3.07-3.07 0-.36-.06-.72-.19-1.05l-11.32-29.31a3.1 3.1 0 0 0-5.74 0l-11.32 29.31c-.14.35-.21.73-.21 1.11 0 1.27.78 2.41 1.97 2.87zm12.43-23.64 2.87 7.42h-5.73l2.87-7.42zM197.53 112.22h5.5v5.52a3.07 3.07 0 0 0 6.14 0v-5.52h5.51a3.07 3.07 0 0 0 0-6.14h-5.51v-5.51a3.07 3.07 0 0 0-6.14 0v5.51h-5.5a3.071 3.071 0 0 0 .01 6.14zM105.83 124.11H85.25a3.071 3.071 0 0 0 0 6.14h20.57a3.08 3.08 0 0 0 3.02-3.07c0-1.67-1.34-3.04-3.02-3.07zM105.83 144.12H85.25a3.071 3.071 0 0 0 0 6.14h20.57a3.071 3.071 0 0 0 0-6.14zM105.83 164.14H85.25a3.071 3.071 0 0 0 0 6.14h20.57c1.68-.03 3.02-1.4 3.02-3.07 0-1.68-1.34-3.04-3.02-3.07zM132.71 120.2l-7.46 7.45-2.38-2.38a3.07 3.07 0 0 0-4.34 4.34c1.82 1.55 4.85 5.73 6.73 5.45.81 0 1.59-.32 2.17-.9l9.63-9.63a3.07 3.07 0 0 0-4.34-4.34zM132.71 140.21l-7.46 7.46-2.38-2.38a3.07 3.07 0 0 0-4.34 4.34c1.91 1.64 4.84 5.73 6.73 5.45.82 0 1.6-.32 2.17-.9l9.63-9.63a3.07 3.07 0 0 0-4.34-4.34zM132.04 160.31l-7.58 7.32-2.34-2.42a3.07 3.07 0 0 0-4.42 4.26c1.98 1.77 4.75 5.84 6.68 5.57.8 0 1.56-.31 2.14-.87l9.79-9.46c.57-.58.89-1.35.89-2.17 0-1.7-1.38-3.07-3.07-3.07-.78 0-1.53.29-2.1.82zM165.44 164.14h-15.36a3.071 3.071 0 0 0 .01 6.14h15.36a3.071 3.071 0 0 0-.01-6.14M181.01 165.45a3.06 3.06 0 0 0-2.38-1.13c-1.7 0-3.08 1.38-3.08 3.08 0 .67.22 1.32.62 1.85l3.63 4.62c.59.74 1.48 1.16 2.42 1.16.9 0 1.76-.4 2.35-1.08l8-9.49c.44-.55.69-1.23.69-1.94a3.07 3.07 0 0 0-5.38-2.02l-5.56 6.6-1.29-1.65z" class="fil1"/></g></g></svg>