<svg xmlns="http://www.w3.org/2000/svg" xml:space="preserve" width="85" height="85" style="shape-rendering:geometricPrecision;text-rendering:geometricPrecision;image-rendering:optimizeQuality;fill-rule:evenodd;clip-rule:evenodd" viewBox="0 0 283.73 283.73"><defs><style>.fil1{fill:#5d42a6;fill-rule:nonzero}</style></defs><g id="Layer_x0020_1"><path d="M283.73 141.87C283.73 63.52 220.21 0 141.86 0S-.01 63.52-.01 141.87s63.52 141.87 141.87 141.87 141.87-63.52 141.87-141.87" data-name="Ellipse 372" style="fill:#7e50ff;fill-rule:nonzero;fill-opacity:.301961"/><g id="_2157260508256"><g id="Page-1"><g id="_010---Secure-Password"><path id="Shape" d="M75.43 188.62h12.3v14.76c.01 6.79 5.51 12.3 12.3 12.3h83.66c6.79-.01 12.29-5.51 12.3-12.3v-14.76h12.3c4.08 0 7.38-3.3 7.38-7.38v-24.61c0-4.08-3.31-7.38-7.38-7.38h-12.3v-14.76c-.01-6.79-5.51-12.29-12.3-12.3v-12.3c0-23.1-18.73-41.83-41.83-41.83s-41.83 18.73-41.83 41.83v12.3c-6.79.01-12.29 5.51-12.3 12.3v14.76h-12.3c-4.08 0-7.38 3.31-7.38 7.38v24.61c0 4.08 3.31 7.38 7.38 7.38m115.65 14.76c0 4.08-3.31 7.38-7.38 7.38h-83.66c-4.08 0-7.38-3.3-7.38-7.38v-14.76h98.42zm-86.12-93.5c0-20.38 16.52-36.91 36.91-36.91 20.38 0 36.91 16.52 36.91 36.91v12.3h-9.84v-12.3c0-14.95-12.12-27.07-27.07-27.07s-27.07 12.12-27.07 27.07v12.3h-9.84zm14.76 12.3v-12.3c0-12.23 9.92-22.15 22.15-22.15s22.15 9.91 22.15 22.15v12.3h-44.29zm-27.07 12.3c0-4.08 3.31-7.38 7.38-7.38h83.66c4.08 0 7.38 3.31 7.38 7.38v14.76H92.65zm-19.68 22.15c0-1.36 1.1-2.46 2.46-2.46H208.3c1.36 0 2.46 1.1 2.46 2.46v24.61c0 1.36-1.1 2.46-2.46 2.46H75.43c-1.36 0-2.46-1.1-2.46-2.46z" class="fil1"/><path id="Shape_0" d="M78.31 175.22a2.463 2.463 0 0 0 3.42.68l3.56-2.37v2.79c0 1.36 1.1 2.46 2.46 2.46s2.46-1.1 2.46-2.46v-2.79l3.56 2.37c.73.49 1.67.55 2.46.16a2.463 2.463 0 0 0 .28-4.26l-4.32-2.87 4.31-2.87a2.463 2.463 0 0 0-.28-4.26c-.79-.39-1.72-.33-2.46.16l-3.55 2.37v-2.78c0-1.36-1.1-2.46-2.46-2.46s-2.46 1.1-2.46 2.46v2.78l-3.56-2.37a2.46 2.46 0 0 0-3.41.68 2.46 2.46 0 0 0 .68 3.41l4.32 2.87-4.32 2.87c-.54.36-.92.92-1.05 1.56s0 1.3.37 1.85z" class="fil1"/><path id="Shape_1" d="M105.37 175.22c.36.54.92.92 1.56 1.05s1.3 0 1.85-.37l3.56-2.37v2.79c0 1.36 1.1 2.46 2.46 2.46s2.46-1.1 2.46-2.46v-2.79l3.56 2.37c.73.49 1.67.55 2.46.16a2.463 2.463 0 0 0 .28-4.26l-4.32-2.87 4.31-2.87a2.463 2.463 0 0 0-.28-4.26c-.79-.39-1.72-.33-2.46.16l-3.55 2.37v-2.78c0-1.36-1.1-2.46-2.46-2.46s-2.46 1.1-2.46 2.46v2.78l-3.56-2.37a2.46 2.46 0 0 0-3.41.68 2.46 2.46 0 0 0 .68 3.41l4.32 2.87-4.31 2.87c-.55.36-.92.92-1.05 1.56s0 1.31.36 1.85z" class="fil1"/><path id="Shape_2" d="M159.5 175.22a2.463 2.463 0 0 0 3.42.68l3.56-2.37v2.79c0 1.36 1.1 2.46 2.46 2.46s2.46-1.1 2.46-2.46v-2.79l3.56 2.37c.73.49 1.67.55 2.46.16a2.463 2.463 0 0 0 .28-4.26l-4.32-2.87 4.31-2.87a2.463 2.463 0 0 0-.28-4.26c-.79-.39-1.72-.33-2.46.16l-3.55 2.37v-2.78c0-1.36-1.1-2.46-2.46-2.46s-2.46 1.1-2.46 2.46v2.78l-3.56-2.37a2.46 2.46 0 0 0-3.41.68 2.46 2.46 0 0 0 .68 3.41l4.32 2.87-4.31 2.87a2.461 2.461 0 0 0-.69 3.41z" class="fil1"/><path id="Shape_3" d="M132.44 175.22c.36.54.93.92 1.57 1.05s1.3 0 1.85-.37l3.56-2.37v2.79c0 1.36 1.1 2.46 2.46 2.46s2.46-1.1 2.46-2.46v-2.79l3.56 2.37c.73.49 1.67.55 2.46.16a2.463 2.463 0 0 0 .28-4.26l-4.32-2.87 4.31-2.87a2.463 2.463 0 0 0-.28-4.26c-.79-.39-1.72-.33-2.46.16l-3.55 2.37v-2.78c0-1.36-1.1-2.46-2.46-2.46s-2.46 1.1-2.46 2.46v2.78l-3.56-2.37a2.46 2.46 0 0 0-3.41.68 2.46 2.46 0 0 0 .68 3.41l4.32 2.87-4.31 2.87a2.461 2.461 0 0 0-.69 3.41z" class="fil1"/><path id="Shape_4" d="M107.42 132.03h-7.38c-1.36 0-2.46 1.1-2.46 2.46v7.38c0 1.36 1.1 2.46 2.46 2.46s2.46-1.1 2.46-2.46v-4.92h4.92c1.36 0 2.46-1.1 2.46-2.46s-1.1-2.46-2.46-2.46" class="fil1"/><path id="Shape_5" d="M188.62 178.78h14.76c1.36 0 2.46-1.1 2.46-2.46s-1.1-2.46-2.46-2.46h-14.76c-1.36 0-2.46 1.1-2.46 2.46s1.1 2.46 2.46 2.46" class="fil1"/></g></g></g></g></svg>