<svg xmlns="http://www.w3.org/2000/svg" xml:space="preserve" width="85" height="85" style="shape-rendering:geometricPrecision;text-rendering:geometricPrecision;image-rendering:optimizeQuality;fill-rule:evenodd;clip-rule:evenodd" viewBox="0 0 422.01 422.01"><path d="M422.01 211c0-116.53-94.47-211-211-211S.01 94.47.01 211s94.47 211 211 211 211-94.47 211-211" data-name="Ellipse 372" style="fill:#ffab00;fill-rule:nonzero;fill-opacity:.301961"/><path d="M266.97 293.67c-1.88 0-3.41 1.53-3.41 3.41v6.81c0 12.17-9.9 22.07-22.07 22.07H136.46c-12.17 0-22.07-9.9-22.07-22.07v-79.73c0-12.17 9.9-22.07 22.07-22.07h105.03c8.41 0 15.99 4.71 19.78 12.3a3.413 3.413 0 0 0 4.58 1.53 3.413 3.413 0 0 0 1.53-4.58c-4.95-9.92-14.87-16.08-25.89-16.08h-3.15v-28.11c0-27.22-22.14-49.37-49.36-49.37s-49.37 22.15-49.37 49.37v28.11h-3.15c-15.93 0-28.9 12.96-28.9 28.9v79.73c0 15.93 12.96 28.9 28.9 28.9h105.03c15.93 0 28.9-12.96 28.9-28.9v-6.81c0-1.89-1.53-3.41-3.41-3.41zm-62.31-98.41h-31.37v-28.11c0-8.51 7.19-15.69 15.69-15.69s15.68 7.18 15.68 15.69zm-58.23-28.11c0-23.46 19.09-42.55 42.55-42.55 23.45 0 42.53 19.09 42.53 42.55v28.11h-20.03v-28.11c0-12.41-10.09-22.52-22.5-22.52-12.42 0-22.52 10.1-22.52 22.52v28.11h-20.03zm171.49 52.05H161.31c-9.83 0-17.83 8-17.83 17.83v35.88c0 9.83 8 17.83 17.83 17.83h14.26v23.41a3.407 3.407 0 0 0 3.41 3.41c.87 0 1.72-.33 2.37-.96l26.69-25.87h109.87c9.84 0 17.85-8 17.85-17.83v-35.88c0-9.83-8.01-17.83-17.85-17.83zm11.02 53.71c0 6.07-4.94 11.01-11.02 11.01H206.66c-.89 0-1.74.35-2.37.96l-21.9 21.22v-18.77c0-1.88-1.53-3.41-3.41-3.41h-17.67c-6.07 0-11.01-4.94-11.01-11.01v-35.88c0-6.07 4.94-11.01 11.01-11.01h156.61c6.08 0 11.02 4.94 11.02 11.01zm-119.98-22.66-8.17 4.72 8.17 4.72a3.415 3.415 0 0 1-1.71 6.37c-.58 0-1.17-.15-1.7-.46l-8.17-4.72v9.43c0 1.88-1.53 3.41-3.41 3.41s-3.41-1.53-3.41-3.41v-9.43l-8.17 4.72c-.54.31-1.12.46-1.7.46a3.414 3.414 0 0 1-1.71-6.37l8.17-4.72-8.17-4.72a3.415 3.415 0 0 1-1.25-4.66 3.415 3.415 0 0 1 4.66-1.25l8.17 4.72v-9.43c0-1.88 1.53-3.41 3.41-3.41s3.41 1.53 3.41 3.41v9.43l8.17-4.72c1.63-.94 3.72-.38 4.66 1.25s.38 3.72-1.25 4.66m45.66 0-8.17 4.72 8.17 4.72a3.415 3.415 0 0 1-1.71 6.37c-.58 0-1.17-.15-1.7-.46l-8.17-4.72v9.43c0 1.89-1.53 3.41-3.41 3.41s-3.41-1.53-3.41-3.41v-9.43l-8.17 4.72a3.402 3.402 0 0 1-4.66-1.25 3.415 3.415 0 0 1 1.25-4.66l8.17-4.72-8.17-4.72a3.415 3.415 0 0 1-1.25-4.66 3.415 3.415 0 0 1 4.66-1.25l8.17 4.72v-9.43c0-1.88 1.53-3.41 3.41-3.41s3.41 1.53 3.41 3.41v9.43l8.17-4.72c1.63-.94 3.72-.38 4.66 1.25s.38 3.72-1.25 4.66m45.64 0-8.17 4.72 8.17 4.72a3.415 3.415 0 0 1-1.71 6.37c-.58 0-1.17-.15-1.7-.46l-8.16-4.71v9.43c0 1.88-1.53 3.41-3.41 3.41s-3.41-1.53-3.41-3.41v-9.43l-8.17 4.72c-.54.31-1.13.46-1.7.46a3.414 3.414 0 0 1-1.71-6.37l8.17-4.72-8.17-4.72a3.415 3.415 0 0 1-1.25-4.66 3.415 3.415 0 0 1 4.66-1.25l8.17 4.72v-9.43c0-1.88 1.53-3.41 3.41-3.41s3.41 1.53 3.41 3.41v9.43l8.16-4.71c1.63-.94 3.72-.38 4.66 1.25s.38 3.72-1.25 4.66zM188.98 96.03c44.32 0 82.86 30.55 93.19 73.21h-15.69c-1.33 0-2.54.78-3.1 1.99a3.41 3.41 0 0 0 .51 3.65l21.14 24.67c.65.76 1.59 1.19 2.59 1.19s1.94-.44 2.59-1.19l21.12-24.67c.87-1.01 1.06-2.44.51-3.65a3.42 3.42 0 0 0-3.1-1.99h-19.56C278.7 122.7 237.01 89.2 188.99 89.2c-56.65 0-102.73 46.08-102.73 102.72 0 1.89 1.53 3.41 3.41 3.41s3.41-1.53 3.41-3.41c0-52.88 43.03-95.9 95.91-95.9zm98.63 96.05-13.72-16.01h27.43z" style="fill:#f2a100;fill-rule:nonzero"/></svg>