<svg xmlns="http://www.w3.org/2000/svg" xml:space="preserve" width="85" height="85" data-name="Line Expand" style="shape-rendering:geometricPrecision;text-rendering:geometricPrecision;image-rendering:optimizeQuality;fill-rule:evenodd;clip-rule:evenodd" viewBox="0 0 422.01 422.01"><defs><style>.fil1{fill:#ff0026;fill-rule:nonzero}</style></defs><g id="Layer_x0020_1"><path d="M422.01 211c0-116.53-94.47-211-211-211S.01 94.47.01 211s94.47 211 211 211 211-94.47 211-211" data-name="Ellipse 372" style="fill:#ff6363;fill-rule:nonzero;fill-opacity:.301961"/><g id="_2156741192112"><path d="M342.58 203.33h-1.34c-3.96-65.97-56.59-118.6-122.55-122.55l-.01-1.35c0-4.24-3.44-7.67-7.67-7.67-4.24 0-7.67 3.44-7.67 7.67v1.34c-65.97 3.96-118.6 56.59-122.55 122.55l-1.35.01c-4.24 0-7.67 3.44-7.67 7.67 0 4.24 3.44 7.67 7.67 7.67h1.34c3.96 65.97 56.59 118.6 122.55 122.55l.01 1.35c0 4.24 3.44 7.67 7.67 7.67 4.24 0 7.67-3.44 7.67-7.67v-1.34c65.97-3.96 118.6-56.59 122.55-122.55l1.35-.01c4.24 0 7.67-3.44 7.67-7.67 0-4.24-3.44-7.67-7.67-7.67M203.33 96.16v15.39c-49 3.84-87.94 42.78-91.78 91.77l-15.39.01c3.9-57.46 49.7-103.27 107.17-107.16zm0 229.68c-57.46-3.9-103.27-49.7-107.16-107.17h15.39c3.84 49 42.78 87.94 91.77 91.78l.01 15.39zm7.67-39.19c-4.24 0-7.67 3.44-7.67 7.67v.71c-40.52-3.75-72.61-35.84-76.36-76.36h.7c4.24 0 7.67-3.44 7.67-7.67 0-4.24-3.44-7.67-7.67-7.67h-.71c3.75-40.52 35.84-72.61 76.36-76.36v.7c0 4.24 3.44 7.67 7.67 7.67 4.24 0 7.67-3.44 7.67-7.67v-.71c40.52 3.75 72.61 35.84 76.36 76.36h-.7c-4.24 0-7.67 3.44-7.67 7.67 0 4.24 3.44 7.67 7.67 7.67h.71c-3.75 40.52-35.84 72.61-76.36 76.36v-.7c0-4.24-3.44-7.67-7.67-7.67m7.67 39.19v-15.39c49-3.84 87.94-42.78 91.78-91.77l15.39-.01c-3.9 57.46-49.7 103.27-107.17 107.16zm91.78-122.52c-3.84-49-42.78-87.94-91.77-91.78l-.01-15.39c57.46 3.9 103.27 49.7 107.16 107.17h-15.39z" class="fil1"/><path d="M240.61 254.86c0-4.24-3.44-7.68-7.67-7.68h-35.96a33.15 33.15 0 0 1 21.93-27.53c12.99-4.55 21.7-16.82 21.71-30.58 0-16.35-13.26-29.6-29.6-29.6-16.35 0-29.6 13.26-29.6 29.6 0 4.24 3.44 7.67 7.67 7.67 4.24 0 7.67-3.44 7.67-7.67 0-7.87 6.38-14.25 14.25-14.25s14.25 6.38 14.25 14.25c0 7.24-4.57 13.69-11.4 16.1-19.43 6.81-32.45 25.15-32.45 45.74v3.95c0 4.24 3.44 7.67 7.68 7.67h43.86c4.24 0 7.67-3.44 7.67-7.67z" class="fil1"/></g></g></svg>