<svg xmlns="http://www.w3.org/2000/svg" xml:space="preserve" width="85" height="85" style="shape-rendering:geometricPrecision;text-rendering:geometricPrecision;image-rendering:optimizeQuality;fill-rule:evenodd;clip-rule:evenodd" viewBox="0 0 16667.18 16667.18"><defs><style>.fil1{fill:#f60;fill-rule:nonzero}</style></defs><g id="Layer_x0020_1"><path d="M16667.18 8333.59C16667.18 3731.1 12936.08 0 8333.59 0S0 3731.1 0 8333.59s3731.1 8333.59 8333.59 8333.59 8333.59-3731.1 8333.59-8333.59" data-name="Ellipse 372" style="fill:#ffaa69;fill-rule:nonzero;fill-opacity:.301961"/><g id="_2156880381136"><path d="M10780.72 3375.59h-5639.3v805.29h291.11V3666.7h5142.31v1552.39h1552.47v7781.46H5432.53V7635.02h-291.11v5656.64h7276.92V5013.28l-1637.62-1637.7zm85.23 1552.39V3872.5l1055.56 1055.48z" class="fil1"/><path d="M9973.28 6781.19V5034.7c0-294.22-239.38-533.6-533.6-533.6H4782.42c-294.29 0-533.67 239.38-533.67 533.6v1746.49c0 294.22 239.38 533.67 533.67 533.67h4657.26c294.22 0 533.6-239.45 533.6-533.67m-5433.42 0V5034.7c0-133.7 108.79-242.56 242.56-242.56h4657.26c133.77 0 242.56 108.79 242.56 242.56v1746.49c0 133.77-108.79 242.56-242.56 242.56H4782.42c-133.77 0-242.56-108.79-242.56-242.56" class="fil1"/><path d="M8013.36 6645.35h291.1V6053.5h436.59v-291.11h-436.59v-291.03h630.68v-291.1h-921.78zM6994.63 5180.26h-339.57v1455.38h339.57c401.23 0 727.69-326.38 727.69-727.69 0-401.23-326.46-727.69-727.69-727.69m0 1164.35h-48.54v-873.25h48.54c240.71 0 436.59 195.87 436.59 436.59 0 240.79-195.87 436.66-436.59 436.66M5888.53 5180.26h-591.85v1465.09h291.03V6131.1h300.81c262.13 0 475.42-213.22 475.42-475.42 0-262.13-213.29-475.42-475.42-475.42zm0 659.81h-300.81v-368.7h300.81c101.61 0 184.31 82.71 184.31 184.31 0 101.68-82.71 184.39-184.31 184.39M8779.88 12422.64l1572.11-1886.56h-805.58v-1474.8H8013.36v1474.8h-805.51zm-475.42-1595.45v-1474.8h950.84v1474.8h475.2l-950.62 1140.71-950.62-1140.71zM5723.56 11826.57h291.11v291.03h-291.11zM5723.56 12408.71h291.11v291.1h-291.11zM11545.17 6160.22h291.03v291.11h-291.03zM11545.17 5578.08h291.03v291.11h-291.03zM8003.72 8479.14h1552.4v291.11h-1552.4zM8003.72 7897h1552.4v291.11h-1552.4z" class="fil1"/></g></g></svg>