<svg xmlns="http://www.w3.org/2000/svg" xml:space="preserve" width="85" height="85" data-name="Layer 1" style="shape-rendering:geometricPrecision;text-rendering:geometricPrecision;image-rendering:optimizeQuality;fill-rule:evenodd;clip-rule:evenodd" viewBox="0 0 283.73 283.73"><path d="M283.73 141.87C283.73 63.52 220.21 0 141.86 0S-.01 63.52-.01 141.87s63.52 141.87 141.87 141.87 141.87-63.52 141.87-141.87" data-name="Ellipse 372" style="fill:#50ffeb;fill-rule:nonzero;fill-opacity:.301961"/><path d="M220.72 160.65a8.64 8.64 0 0 0-5.33-5.07 11.2 11.2 0 0 0-3.67-.62c-1.95 0-3.87.51-5.57 1.48a10.5 10.5 0 0 0-4.26 4.62c-2-2.23-4.86-3.51-7.85-3.51-4.03 0-7.7 2.29-9.47 5.91-2-2.55-5.06-4.04-8.3-4.04-3.98 0-7.62 2.24-9.41 5.8l-10.62-18.39a10.56 10.56 0 0 0-9.14-5.26c-1.85 0-3.67.49-5.27 1.41a10.56 10.56 0 0 0-5.26 9.14c0 1.85.48 3.67 1.4 5.27l27.78 48.11-14.49-3.88c-.89-.23-1.8-.35-2.72-.35-4.78 0-8.96 3.2-10.21 7.81-1.26 4.71 1.02 8.96 6.79 12.63 13.56 8.62 31.24 14.64 46.94 14.64 9.8 0 18.83-2.35 25.59-7.87 10.07-8.22 18.77-26.65 3.06-67.81zm-6.08 64.11c-9.01 7.35-21.86 7.44-31.05 6.22-12-1.59-25.09-6.45-35.9-13.32-5.14-3.27-5.17-5.77-4.74-7.36a5.77 5.77 0 0 1 5.57-4.28c.51 0 1.01.07 1.5.2l20.06 5.37a2.39 2.39 0 0 0 3.01-2.31c0-.42-.11-.83-.32-1.2l-30.66-53.11c-.5-.87-.76-1.87-.76-2.87 0-2.06 1.09-3.96 2.87-5 .88-.5 1.87-.77 2.89-.77 2.06 0 3.97 1.1 5 2.88l24.19 41.91.01.01c.43.74 1.22 1.2 2.07 1.2a2.39 2.39 0 0 0 2.07-3.58l-9.16-15.88a5.766 5.766 0 1 1 9.98-5.78l10.14 17.57a2.393 2.393 0 0 0 4.46-1.2c0-.42-.11-.83-.32-1.19l-6.5-11.27c-.5-.88-.77-1.87-.77-2.88 0-2.06 1.1-3.97 2.88-5a5.81 5.81 0 0 1 7.89 2.12l6.5 11.27c.43.74 1.22 1.2 2.07 1.2a2.39 2.39 0 0 0 2.07-3.58l-3.25-5.63a5.77 5.77 0 0 1 2.12-7.88c.97-.55 2.06-.84 3.18-.84.7 0 1.4.11 2.07.34 1.12.35 2.03 1.19 2.47 2.27 11.63 30.47 11.07 52.05-1.61 62.41zM109.95 142.4l-4.31-4.3 4.3-4.3c4.35-4.33 7.74-8.99 10.07-13.83a2.39 2.39 0 0 0-2.15-3.43H79.1a2.39 2.39 0 0 0-2.15 3.43c2.34 4.84 5.72 9.49 10.07 13.82l4.31 4.31-4.31 4.3c-10.1 10.09-14.79 21.52-13.92 34a2.4 2.4 0 0 0 2.38 2.23h46.02c1.26 0 2.3-.97 2.38-2.23.87-12.47-3.82-23.91-13.92-34zm-32.18 31.44c-.09-10.18 4.15-19.61 12.62-28.06l6.01-5.99a2.39 2.39 0 0 0 0-3.38l-6.01-6a49 49 0 0 1-7.26-9.08h30.71c-2.05 3.31-4.5 6.37-7.27 9.09l-6 6a2.39 2.39 0 0 0 0 3.38l6 5.99c8.47 8.45 12.71 17.88 12.62 28.06H77.77zm64.65 17.37c0-4.91-3.98-8.9-8.89-8.9h-1.84c2.77-16.16-2.08-31.36-14.11-44.21 12.03-12.85 16.88-28.05 14.11-44.22h1.84c4.91 0 8.9-3.99 8.9-8.9s-3.99-8.9-8.9-8.9H63.46c-4.91 0-8.9 3.99-8.9 8.9s3.98 8.9 8.9 8.9h1.83c-2.76 16.17 2.09 31.38 14.11 44.22-12.02 12.84-16.87 28.04-14.11 44.21h-1.88c-4.91 0-8.9 3.99-8.9 8.9s3.99 8.9 8.9 8.9h70.13a8.92 8.92 0 0 0 8.9-8.9zM59.33 84.98a4.12 4.12 0 0 1 4.12-4.12h70.07a4.12 4.12 0 0 1 0 8.24H63.45c-2.27 0-4.12-1.84-4.12-4.11zm25.08 54.8a2.39 2.39 0 0 0 0-3.38c-12.45-12.42-17.24-26.73-14.26-42.53h56.68c2.98 15.8-1.81 30.1-14.27 42.53a2.39 2.39 0 0 0 0 3.38c12.46 12.43 17.25 26.73 14.27 42.52H70.15c-2.97-15.8 1.82-30.1 14.26-42.52m49.11 55.54H63.41a4.12 4.12 0 0 1 0-8.24h70.11c2.26.02 4.08 1.86 4.08 4.12s-1.82 4.1-4.08 4.12M180.3 93.09V81.37a2.39 2.39 0 1 1 4.78 0v11.72a2.39 2.39 0 1 1-4.78 0m10.09 1.42 5.85-10.14a2.393 2.393 0 0 1 4.46 1.2c0 .42-.11.83-.32 1.19l-5.86 10.14a2.393 2.393 0 0 1-4.46-1.2c0-.42.11-.83.32-1.19zm8.02 6.28 10.15-5.87a2.386 2.386 0 0 1 3.58 2.07c0 .85-.46 1.64-1.2 2.07l-10.15 5.87a2.395 2.395 0 0 1-3.59-2.07c0-.85.46-1.64 1.19-2.07zm3.82 9.44h11.71a2.39 2.39 0 1 1 0 4.78h-11.71a2.39 2.39 0 1 1 0-4.78m8.73 15.94a2.393 2.393 0 0 1-2.4 4.14l-10.15-5.87a2.393 2.393 0 0 1 2.4-4.14zm-20.56 4.55a2.386 2.386 0 0 1 2.07-3.58c.85 0 1.64.46 2.07 1.2l5.86 10.14a2.386 2.386 0 0 1-2.07 3.58c-.85 0-1.64-.46-2.07-1.2zm-10.09 13.14v-11.72a2.39 2.39 0 1 1 4.78 0v11.72a2.39 2.39 0 1 1-4.78 0m-15.3-5.39 5.86-10.14a2.393 2.393 0 0 1 4.46 1.2c0 .42-.11.83-.32 1.19l-5.85 10.14a2.393 2.393 0 0 1-4.46-1.2c0-.42.11-.83.32-1.19zm1.98-14.03-10.15 5.87a2.395 2.395 0 0 1-3.59-2.07c0-.85.46-1.64 1.19-2.07l10.15-5.87a2.395 2.395 0 0 1 3.59 2.07c0 .85-.46 1.64-1.19 2.07m-17.92-11.83a2.39 2.39 0 0 1 2.39-2.39h11.71a2.39 2.39 0 1 1 0 4.78h-11.71a2.39 2.39 0 0 1-2.39-2.39m4.5-16.83c.43-.74 1.22-1.19 2.07-1.19.42 0 .83.11 1.2.32l10.15 5.87c.74.43 1.2 1.22 1.2 2.07a2.39 2.39 0 0 1-3.58 2.07l-10.15-5.87c-.74-.43-1.2-1.22-1.2-2.07 0-.42.11-.83.32-1.19zm11.44-9.04a2.386 2.386 0 0 1 2.07-3.58c.85 0 1.64.46 2.07 1.2l5.86 10.14a2.386 2.386 0 0 1-2.07 3.58c-.85 0-1.64-.46-2.07-1.2z" style="fill:#0bbda8;fill-rule:nonzero"/></svg>