<svg xmlns="http://www.w3.org/2000/svg" xml:space="preserve" width="85" height="85" style="shape-rendering:geometricPrecision;text-rendering:geometricPrecision;image-rendering:optimizeQuality;fill-rule:evenodd;clip-rule:evenodd" viewBox="0 0 823.17 823.17"><path d="M823.17 411.59C823.17 184.28 638.9 0 411.58 0 184.27 0-.01 184.27-.01 411.59c0 227.31 184.27 411.59 411.59 411.59 227.31 0 411.59-184.27 411.59-411.59" data-name="Ellipse 372" style="fill:#43d477;fill-rule:nonzero;fill-opacity:.301961"/><path d="M582.44 315.75h-45.26c.01-.66.03-1.31.03-1.98 0-48.18-39.2-87.38-87.38-87.38s-87.38 39.2-87.38 87.38q0 .99.03 1.98h-51.65l-11.95-49.5c-1.69-7.03-5.55-13.07-11.15-17.48-5.62-4.43-12.4-6.76-19.6-6.76h-27.39c-9.87 0-17.89 8.03-17.89 17.89s8.03 17.89 17.89 17.89h24.2l43.76 181.26a51.3 51.3 0 0 0-14.31 10.07c-9.6 9.6-14.88 22.32-14.88 35.83s5.29 26.23 14.88 35.83a50.67 50.67 0 0 0 27.91 14.25c1.74 23.31 21.26 41.75 45.01 41.75 23.54 0 42.91-18.11 44.96-41.12h55.31c2.05 23.01 21.42 41.12 44.96 41.12 24.9 0 45.15-20.25 45.15-45.15 0-24.89-20.25-45.15-45.15-45.15-12.53 0-23.87 5.13-32.06 13.4h-81.1c-8.19-8.26-19.53-13.4-32.06-13.4s-23.87 5.13-32.06 13.4h-5.03c-3.95 0-7.69-1.56-10.53-4.4s-4.4-6.58-4.4-10.53 1.56-7.69 4.4-10.53 6.58-4.4 10.53-4.4h78.1c7.94 0 14.68-5.26 16.91-12.49h93.79c11.09 0 21.63-3.44 30.46-9.96 8.78-6.48 15.15-15.53 18.43-26.16l31.27-101.4c.78-2.04 1.17-4.17 1.17-6.37 0-9.86-8.03-17.89-17.89-17.89zm-132.62-77.56c41.68 0 75.58 33.91 75.58 75.58 0 41.68-33.9 75.59-75.58 75.59s-75.59-33.91-75.59-75.59 33.91-75.58 75.59-75.58m58.6 227.55h-52.7v-38.68h52.7zm-100.12-11.5h-17.08v-27.18h52.7v38.68h-19.05c-2.51-6.71-8.99-11.5-16.57-11.5m35.62-38.97h-52.7v-36.72c14.15 12.81 32.5 21.06 52.7 22.41v14.3zm-64.49 0h-44.59l-9.22-38.2h53.81zm0 11.8v27.18h-35.18l-6.56-27.18zm76.29-11.8v-14.3c20.2-1.35 38.55-9.6 52.7-22.41v36.72h-52.7zm64.5-38.2h55.17l-11.78 38.2h-43.39zm-156.69-49.51c2.21 13.94 7.74 26.79 15.74 37.72h-56.5l-9.1-37.72zm148.98 190.73c18.39 0 33.35 14.96 33.35 33.35s-14.96 33.35-33.35 33.35-33.35-14.96-33.35-33.35 14.96-33.35 33.35-33.35m-40.49 13.39c-1.88 3.8-3.23 7.89-3.98 12.19h-56.29c-.75-4.3-2.1-8.4-3.98-12.19zm-104.74-13.39c18.39 0 33.35 14.96 33.35 33.35s-14.96 33.35-33.35 33.35-33.35-14.96-33.35-33.35 14.96-33.35 33.35-33.35m46.91-45.96c0 3.25-2.65 5.9-5.9 5.9h-78.1c-7.1 0-13.81 2.79-18.87 7.85-5.07 5.07-7.85 11.77-7.85 18.87s2.79 13.81 7.85 18.88c4.28 4.27 9.72 6.92 15.58 7.64a45 45 0 0 0-3.97 11.72c-7.61-1.45-14.65-5.16-20.23-10.74-7.37-7.37-11.43-17.13-11.43-27.49 0-10.35 4.06-20.12 11.43-27.49 4.17-4.17 9.29-7.39 14.82-9.3 2.87-1 4.52-4 3.8-6.96l-45.71-189.33c-.85-3.52-3.87-5.88-7.51-5.88h-27.39c-3.36 0-6.1-2.73-6.1-6.09s2.73-6.09 6.1-6.09h27.39c4.53 0 8.78 1.46 12.3 4.23 3.5 2.75 5.91 6.55 6.98 10.98l46.47 192.5a5.896 5.896 0 0 0 5.74 4.51h68.7c3.25 0 5.9 2.65 5.9 5.9zm128.26-14.25c-6.47 4.77-14.13 7.4-22.24 7.64v-38.66h39.75l-3.35 10.87c-2.53 8.21-7.43 15.18-14.16 20.15m45.65-122.19c-.06.15-.11.29-.16.44l-8.92 28.93h-58.65c8-10.93 13.52-23.78 15.74-37.72h46.32c3.36 0 6.1 2.73 6.1 6.09 0 .78-.15 1.54-.43 2.25zM367.28 573.51c12.06 0 21.88-9.81 21.88-21.88 0-12.06-9.82-21.88-21.88-21.88s-21.88 9.82-21.88 21.88 9.82 21.88 21.88 21.88m0-31.96c5.56 0 10.08 4.52 10.08 10.08s-4.52 10.08-10.08 10.08-10.08-4.52-10.08-10.08 4.52-10.08 10.08-10.08m145.22 31.96c12.06 0 21.88-9.81 21.88-21.88 0-12.06-9.82-21.88-21.88-21.88s-21.88 9.82-21.88 21.88 9.82 21.88 21.88 21.88m0-31.96c5.56 0 10.08 4.52 10.08 10.08s-4.52 10.08-10.08 10.08-10.08-4.52-10.08-10.08 4.52-10.08 10.08-10.08m-85.12-192.39c3.28 3.28 7.65 5.09 12.29 5.09s9.01-1.81 12.29-5.09c9.66-9.65 40.12-40.55 45.78-46.27 6.73-6.79 6.69-17.8-.08-24.53a17.25 17.25 0 0 0-12.25-5.05h-.07c-4.64.02-8.99 1.84-12.25 5.14l-33.47 33.81-13.11-13.11c-6.78-6.78-17.8-6.78-24.58 0s-6.78 17.8 0 24.58l25.44 25.44zm-17.1-41.68a5.56 5.56 0 0 1 3.95-1.63c1.43 0 2.86.55 3.95 1.63l17.3 17.3a5.9 5.9 0 0 0 4.17 1.73h.01c1.57 0 3.07-.63 4.18-1.75l37.65-38.02a5.52 5.52 0 0 1 3.91-1.64h.02c1.48 0 2.87.57 3.93 1.62 2.17 2.16 2.18 5.69.02 7.87-5.67 5.73-36.12 36.61-45.75 46.23a5.56 5.56 0 0 1-3.95 1.63c-1.49 0-2.9-.58-3.95-1.63l-25.44-25.45c-2.18-2.17-2.18-5.72 0-7.9z" style="fill:#21b056;fill-rule:nonzero"/></svg>