<svg width="37" height="37" viewBox="0 0 37 37" fill="none" xmlns="http://www.w3.org/2000/svg">
<path d="M18.3763 0C23.4462 0 28.022 2.06824 31.3531 5.38109C34.6843 8.71227 36.7342 13.3063 36.7342 18.3763C36.7342 23.4463 34.6843 28.022 31.3531 31.3531C28.022 34.6843 23.4463 36.7342 18.3763 36.7342C13.3063 36.7342 8.71227 34.6843 5.38109 31.3531C2.06823 28.022 0 23.4463 0 18.3763C0 13.3064 2.06823 8.71227 5.38109 5.38109C8.71236 2.06824 13.3064 0 18.3763 0ZM30.6943 6.04004C27.5462 2.89194 23.19 0.933515 18.3764 0.933515C13.5626 0.933515 9.18823 2.89194 6.04013 6.04004C2.89203 9.18814 0.933607 13.5626 0.933607 18.3763C0.933607 23.19 2.89203 27.5461 6.04013 30.6942C9.18823 33.8423 13.5627 35.8007 18.3764 35.8007C23.1901 35.8007 27.5462 33.8423 30.6943 30.6942C33.8424 27.5461 35.8008 23.1899 35.8008 18.3763C35.8008 13.5625 33.8424 9.18814 30.6943 6.04004Z" fill="white"/>
<path fill-rule="evenodd" clip-rule="evenodd" d="M15.9059 31.0238H20.4817V20.4812H23.8495L24.5267 16.2166H20.4817V12.9953C20.4817 11.8056 21.6165 11.1283 22.7147 11.1283H24.6731V7.59586L21.1407 7.4311C17.7729 7.2298 15.906 9.88372 15.906 13.0501V16.2165H12.0623V20.4811H15.906L15.9059 31.0238Z" fill="white"/>
</svg>
