<svg width="37" height="37" viewBox="0 0 37 37" fill="none" xmlns="http://www.w3.org/2000/svg">
<path d="M18.358 0C23.4279 0 28.022 2.06824 31.3531 5.38109C34.666 8.71227 36.7342 13.3063 36.7342 18.3763C36.7342 23.4463 34.666 28.022 31.3531 31.3531C28.022 34.6843 23.4279 36.7342 18.358 36.7342C13.288 36.7342 8.69395 34.6843 5.38109 31.3531C2.04991 28.022 0 23.4463 0 18.3763C0 13.3064 2.04991 8.71227 5.38109 5.38109C8.69395 2.06824 13.288 0 18.358 0ZM30.6942 6.04004C27.5278 2.89194 23.1716 0.933515 18.358 0.933515C13.5442 0.933515 9.18814 2.89194 6.04004 6.04004C2.87362 9.18814 0.933512 13.5626 0.933512 18.3763C0.933512 23.19 2.87362 27.5461 6.04004 30.6942C9.18814 33.8423 13.5443 35.8007 18.358 35.8007C23.1717 35.8007 27.5278 33.8423 30.6942 30.6942C33.8423 27.5461 35.8007 23.1899 35.8007 18.3763C35.8007 13.5625 33.8423 9.18814 30.6942 6.04004Z" fill="white"/>
<path fill-rule="evenodd" clip-rule="evenodd" d="M13.4887 9.53584H23.2442C25.4405 9.53584 27.2342 11.3295 27.2342 13.526V23.2266C27.2342 25.423 25.4405 27.2166 23.2442 27.2166H13.4887C11.2923 27.2166 9.51696 25.423 9.51696 23.2266V13.526C9.51686 11.3296 11.2923 9.53584 13.4887 9.53584ZM18.3573 14.5509H18.3939C20.4988 14.5509 22.2376 16.2897 22.2376 18.3762C22.2376 20.5177 20.4988 22.2565 18.3939 22.2565H18.3573C16.2524 22.2565 14.5136 20.5176 14.5136 18.3762C14.5136 16.2897 16.2524 14.5509 18.3573 14.5509ZM18.3573 12.5559H18.3939C21.5603 12.5559 24.2142 15.2098 24.2142 18.3762C24.2142 21.5976 21.5603 24.1967 18.3939 24.1967H18.3573C15.1725 24.1967 12.5735 21.5976 12.5735 18.3762C12.5735 15.2098 15.1725 12.5559 18.3573 12.5559ZM24.1227 11.4394C24.7816 11.4394 25.349 11.9885 25.349 12.6657C25.349 13.3247 24.7817 13.892 24.1227 13.892C23.4089 13.892 22.8964 13.3247 22.8964 12.6657C22.8964 11.9885 23.4089 11.4394 24.1227 11.4394ZM13.452 7.70554H23.2991C26.4655 7.70554 29.0829 10.3046 29.0829 13.471V23.2815C29.0829 26.4479 26.4655 29.0469 23.2991 29.0469H13.452C10.2856 29.0469 7.66825 26.4479 7.66825 23.2815V13.471C7.66825 10.3046 10.2856 7.70554 13.452 7.70554Z" fill="white"/>
</svg>
