<svg width="37" height="37" viewBox="0 0 37 37" fill="none" xmlns="http://www.w3.org/2000/svg">
<path d="M18.358 0C23.4279 0 28.022 2.04992 31.3348 5.38109C34.666 8.69395 36.7159 13.288 36.7159 18.358C36.7159 23.4279 34.666 28.022 31.3348 31.3531C28.022 34.666 23.4279 36.7159 18.358 36.7159C13.2881 36.7159 8.69395 34.666 5.3811 31.3531C2.04992 28.022 0 23.4279 0 18.358C0 13.2881 2.04992 8.69395 5.3811 5.38109C8.69395 2.04992 13.288 0 18.358 0ZM30.6942 6.04004C27.5278 2.87362 23.1716 0.933512 18.358 0.933512C13.5443 0.933512 9.18814 2.87362 6.04004 6.04004C2.87363 9.18814 0.933427 13.5443 0.933427 18.358C0.933427 23.1717 2.87354 27.5278 6.04004 30.6942C9.18814 33.8423 13.5442 35.8007 18.358 35.8007C23.1717 35.8007 27.5278 33.8423 30.6942 30.6942C33.8423 27.5278 35.8007 23.1716 35.8007 18.358C35.8007 13.5442 33.8423 9.18814 30.6942 6.04004Z" fill="white"/>
<path fill-rule="evenodd" clip-rule="evenodd" d="M15.2278 14.99H18.9616V16.7472C19.7487 15.594 21.0665 14.8437 22.549 14.8437H23.574C25.9535 14.8437 27.8569 16.8021 27.8569 19.1266V27.6558H24.1414V20.8104C24.0864 19.3644 23.1164 18.2479 21.6705 18.2479C20.2245 18.2479 19.0166 19.3644 18.9616 20.8104V27.6558H15.2278V14.99ZM11.0913 8.54739C12.3543 8.54739 13.3792 9.5724 13.3792 10.8352C13.3792 12.0982 12.3542 13.1231 11.0913 13.1231C9.82841 13.1231 8.85835 12.0981 8.85835 10.8352C8.85835 9.5724 9.82841 8.54739 11.0913 8.54739ZM9.22442 14.99H12.9948V27.6558H9.22442V14.99Z" fill="white"/>
</svg>
