<svg width="37" height="37" viewBox="0 0 37 37" fill="none" xmlns="http://www.w3.org/2000/svg">
<path d="M18.358 0C23.4279 0 28.022 2.06824 31.3531 5.3811C34.666 8.71227 36.7342 13.3063 36.7342 18.3763C36.7342 23.4462 34.666 28.022 31.3531 31.3531C28.022 34.6843 23.4279 36.7342 18.358 36.7342C13.288 36.7342 8.69395 34.6843 5.38109 31.3531C2.04991 28.022 0 23.4463 0 18.3763C0 13.3063 2.04991 8.71227 5.38109 5.3811C8.69395 2.06824 13.288 0 18.358 0ZM30.6942 6.04004C27.5278 2.89195 23.1716 0.933517 18.358 0.933517C13.5442 0.933517 9.18814 2.89195 6.04004 6.04004C2.87362 9.18814 0.933512 13.5626 0.933512 18.3763C0.933512 23.1899 2.87362 27.5461 6.04004 30.6942C9.18814 33.8423 13.5443 35.8007 18.358 35.8007C23.1717 35.8007 27.5278 33.8423 30.6942 30.6942C33.8423 27.5461 35.8007 23.1899 35.8007 18.3763C35.8007 13.5625 33.8423 9.18814 30.6942 6.04004Z" fill="white"/>
<path fill-rule="evenodd" clip-rule="evenodd" d="M12.4632 21.3781L13.1038 19.1818C13.1038 19.1818 10.9807 16.5278 12.3717 13.3248C13.3784 11.0369 15.5565 9.62755 18.0457 9.48111C21.5232 9.31635 24.2687 11.586 24.4518 15.1734C24.5068 16.1252 24.342 17.2233 23.8844 18.468C23.8844 18.468 22.4202 22.6227 19.2355 21.7808C19.2355 21.7808 17.1856 21.2317 17.698 19.1269C17.698 19.1269 18.7595 16.0703 18.9243 15.0271C19.3818 13.1236 17.6796 11.824 15.9958 12.8673C15.0989 13.4164 14.0923 14.7526 15.0074 17.9007L13.4699 24.6728C13.4699 24.6728 12.8293 27.6745 13.5614 29.8526C13.5614 29.8526 14.4948 29.6879 15.648 26.5764C15.648 26.5764 16.618 23.7577 16.6546 22.3118C16.6546 22.3118 17.9358 24.3434 20.3884 24.2336C23.3902 24.1238 26.1173 21.3418 26.9958 18.6512C28.0574 15.4665 27.6181 12.2451 25.3485 9.6827C22.9325 6.93729 18.8509 6.35152 15.4649 7.32158C13.3966 7.90725 10.944 9.29832 9.73604 12.5197C9.73604 12.5195 7.33837 18.5778 12.4632 21.3781Z" fill="white"/>
</svg>
