<svg width="40" height="40" viewBox="0 0 40 40" fill="none" xmlns="http://www.w3.org/2000/svg">
<rect width="40" height="40" rx="20" fill="white"/>
<rect x="0.5" y="0.5" width="39" height="39" rx="19.5" stroke="black" stroke-opacity="0.04"/>
<path d="M26.5 19.134C27.1667 19.5189 27.1667 20.4811 26.5 20.866L17.5 26.0622C16.8333 26.4471 16 25.966 16 25.1962L16 14.8038C16 14.034 16.8333 13.5529 17.5 13.9378L26.5 19.134Z" fill="#32A128"/>
<path d="M26.25 19.5674C26.5831 19.7599 26.5831 20.2401 26.25 20.4326L17.25 25.6289C16.9167 25.8213 16.5001 25.5811 16.5 25.1963L16.5 14.8037C16.5001 14.4189 16.9167 14.1787 17.25 14.3711L26.25 19.5674Z" stroke="black" stroke-opacity="0.02"/>
</svg>
