<svg width="37" height="37" viewBox="0 0 37 37" fill="none" xmlns="http://www.w3.org/2000/svg">
<path d="M18.358 0C23.4279 0 28.022 2.04992 31.3348 5.38109C34.666 8.69395 36.7159 13.288 36.7159 18.358C36.7159 23.4279 34.666 28.022 31.3348 31.3531C28.022 34.666 23.4279 36.7159 18.358 36.7159C13.288 36.7159 8.69395 34.666 5.36278 31.3531C2.04992 28.022 0 23.4279 0 18.358C0 13.2881 2.04992 8.69395 5.36278 5.38109C8.69395 2.04992 13.2881 0 18.358 0ZM30.6759 6.04004C27.5278 2.87362 23.1716 0.933512 18.358 0.933512C13.5443 0.933512 9.18814 2.87362 6.02173 6.04004C2.87363 9.18814 0.915199 13.5443 0.915199 18.358C0.915199 23.1717 2.87363 27.5278 6.02173 30.6942C9.18814 33.8423 13.5443 35.8007 18.358 35.8007C23.1716 35.8007 27.5278 33.8423 30.6759 30.6942C33.8423 27.5278 35.7824 23.1716 35.7824 18.358C35.7825 13.5442 33.8423 9.18814 30.6759 6.04004Z" fill="white"/>
<path fill-rule="evenodd" clip-rule="evenodd" d="M11.6772 26.5756L13.1964 26.3193L14.1116 26.1545C15.3929 26.85 16.8022 27.2344 18.3579 27.2344C23.2448 27.2344 27.2349 23.2444 27.2349 18.3392C27.2349 13.4523 23.2448 9.46223 18.3579 9.46223C13.4527 9.46223 9.48087 13.4523 9.48087 18.3392C9.48087 20.1328 10.0117 21.7435 10.8719 23.1346L10.7621 23.9399L10.5608 25.5506L10.3961 26.7952L11.6772 26.5756ZM18.3578 7.74174C24.2148 7.74174 28.9552 12.4822 28.9552 18.3393C28.9552 24.2145 24.2148 28.955 18.3578 28.955C16.7471 28.955 15.228 28.6256 13.8919 27.9849L8.23625 28.955L8.98669 23.3543L8.93173 23.2445C8.18129 21.7986 7.76038 20.1329 7.76038 18.3393C7.76038 12.4822 12.4825 7.74174 18.3578 7.74174ZM14.5874 13.5071C15.1731 13.1227 15.5575 13.3973 15.7771 13.983L16.3079 15.3924C16.3079 15.3924 16.6923 16.1428 15.7222 16.8932C15.5575 17.003 15.5575 17.003 15.6124 17.2776C15.832 17.9182 16.6923 19.8584 19.4378 21.3592C19.694 21.524 19.7489 21.524 20.0234 21.3043C20.2431 21.0847 20.4993 20.8284 20.7189 20.6088C21.2131 20.1696 21.4694 20.0231 21.9086 20.3342C22.238 20.5538 22.5492 20.8284 22.8787 21.0297C23.1898 21.3043 23.7389 21.6337 23.1898 22.2743L22.7139 22.86C22.0184 23.7203 21.4144 23.7752 20.4992 23.5738C17.0034 22.6587 14.4226 20.1695 13.2878 16.6735C12.9219 15.3375 13.4526 14.2027 14.5874 13.5071Z" fill="white"/>
</svg>
