<svg width="38" height="37" viewBox="0 0 38 37" fill="none" xmlns="http://www.w3.org/2000/svg">
<path d="M18.5185 0C23.6276 0 28.2388 2.06578 31.5957 5.42273C34.9527 8.76122 37.0185 13.3908 37.0185 18.5C37.0185 23.6092 34.9527 28.2388 31.5957 31.5957C28.2388 34.9342 23.6277 37 18.5185 37C13.4092 37 8.77968 34.9342 5.42273 31.5957C2.08424 28.2388 0 23.6092 0 18.5C0 13.3909 2.08424 8.76122 5.42273 5.42273C8.77977 2.06578 13.4093 0 18.5185 0ZM30.9318 6.08677C27.7593 2.89586 23.3694 0.940735 18.5186 0.940735C13.6676 0.940735 9.25932 2.89586 6.08687 6.08677C2.91441 9.25923 0.94083 13.6491 0.94083 18.5C0.94083 23.351 2.91441 27.7408 6.08687 30.9317C9.25932 34.1041 13.6677 36.0777 18.5186 36.0777C23.3695 36.0777 27.7593 34.1041 30.9318 30.9317C34.1042 27.7408 36.0778 23.3509 36.0778 18.5C36.0778 13.649 34.1042 9.25923 30.9318 6.08677Z" fill="white"/>
<path fill-rule="evenodd" clip-rule="evenodd" d="M12.2837 11.3433C14.3127 11.1773 16.692 11.1035 18.518 11.1035C20.3255 11.1035 22.668 11.1773 24.7339 11.3433C27.1317 11.5462 28.3306 11.952 28.6626 14.3314C28.8286 15.438 28.9023 16.9321 28.9023 18.4629C28.9023 19.9939 28.8286 21.5432 28.6626 22.5945C28.3306 25.0107 27.1316 25.3796 24.7339 25.5825C22.6681 25.7854 20.3256 25.8223 18.518 25.8223C16.692 25.8223 14.3126 25.7854 12.2837 25.5825C9.90432 25.3797 8.65007 25.0108 8.31809 22.5945C8.18898 21.5432 8.11523 19.9938 8.11523 18.4629C8.11523 16.932 8.18898 15.438 8.31809 14.3314C8.65007 11.952 9.90432 11.5462 12.2837 11.3433Z" fill="white"/>
<path fill-rule="evenodd" clip-rule="evenodd" d="M16.416 15.3467L21.8204 18.4638L16.416 21.6179V15.3467Z" fill="#172A4C"/>
</svg>
