<svg width="20" height="18" viewBox="0 0 20 18" fill="none" xmlns="http://www.w3.org/2000/svg">
<path d="M13.6204 7.42153C13.5764 7.30389 13.4638 7.22621 13.3384 7.22621C13.213 7.22621 13.1008 7.30389 13.0564 7.42153L11.3925 11.8429C11.3337 11.9986 11.4124 12.1728 11.5683 12.2316C11.6033 12.2448 11.6391 12.2512 11.6745 12.2512C11.7961 12.2512 11.911 12.1766 11.9565 12.0559L12.338 11.0428H14.3404L14.7218 12.0559C14.7806 12.2116 14.9545 12.2904 15.11 12.2316C15.2655 12.1728 15.3442 11.999 15.2855 11.8429L13.6204 7.42153ZM12.565 10.4395L13.3388 8.3834L14.1133 10.4395H12.565ZM17.6411 4.67204H11.879V2.46099C11.879 1.55756 11.1443 0.823059 10.2414 0.823059H1.63756C0.734622 0.822682 0 1.55756 0 2.46099V9.31737C0 10.2208 0.734622 10.9553 1.63756 10.9553H2.59471V13.2915C2.59471 13.4077 2.66136 13.5132 2.76566 13.5634C2.80708 13.5834 2.85151 13.5932 2.89594 13.5932C2.96334 13.5932 3.02999 13.5706 3.08458 13.5268L6.28288 10.9557H7.40007V13.1675C7.40007 14.0709 8.13431 14.8054 9.03649 14.8054H12.9961L16.1944 17.3765C16.249 17.4203 16.3157 17.4429 16.3831 17.4429C16.4275 17.4429 16.472 17.4331 16.5134 17.4131C16.618 17.363 16.6843 17.2574 16.6843 17.1413V14.8054H17.6415C18.5444 14.8054 19.279 14.0705 19.279 13.1675V6.30997C19.2787 5.40692 18.544 4.67204 17.6411 4.67204ZM6.17708 10.352C6.10855 10.352 6.0419 10.3754 5.98843 10.4184L3.19717 12.6622V10.6536C3.19717 10.487 3.06237 10.352 2.89594 10.352H1.63756C1.06673 10.352 0.602458 9.88785 0.602458 9.31737V2.46099C0.602458 1.89013 1.06673 1.42597 1.63756 1.42597H10.2414C10.8122 1.42597 11.2765 1.89013 11.2765 2.46061V9.31699C11.2765 9.88747 10.8122 10.3516 10.2414 10.3516H6.17708V10.352ZM18.6762 13.1675C18.6762 13.738 18.2119 14.2021 17.6411 14.2021H16.3827C16.2163 14.2021 16.0815 14.3371 16.0815 14.5038V16.5123L13.2902 14.2685C13.2368 14.2255 13.1701 14.2021 13.1016 14.2021H9.03649C8.46642 14.2021 8.00252 13.738 8.00252 13.1675V10.9553H10.2414C11.1443 10.9553 11.879 10.2204 11.879 9.31737V5.27533H17.6411C18.2119 5.27533 18.6762 5.73949 18.6762 6.30997V13.1675ZM8.07896 7.66812C8.15954 7.81404 8.10645 7.99729 7.9611 8.07798C7.77924 8.17866 7.5793 8.27254 7.35074 8.27895C7.34359 8.27933 7.33605 8.27933 7.3289 8.27933C7.09244 8.27933 6.69368 8.16131 5.94174 7.28881C5.57537 7.69904 5.18076 8.05951 4.77674 8.34569C4.72402 8.38302 4.6634 8.40112 4.60315 8.40112C4.50864 8.40112 4.41564 8.35663 4.3569 8.27368C4.26088 8.13756 4.29327 7.94941 4.42882 7.85326C4.82117 7.57537 5.20448 7.22056 5.55805 6.81522C5.25343 6.41668 4.99099 6.02152 4.86485 5.7919C4.78465 5.64598 4.83811 5.46235 4.98383 5.38241C5.12955 5.3021 5.31293 5.35564 5.39275 5.50156C5.48312 5.66596 5.68909 5.98382 5.94777 6.33146C6.28175 5.8839 6.57696 5.39448 6.81305 4.89073H4.06471C3.89828 4.89073 3.76348 4.75575 3.76348 4.58909C3.76348 4.42243 3.89828 4.28745 4.06471 4.28745H5.63863V3.6785C5.63863 3.51184 5.77343 3.37686 5.93986 3.37686C6.10629 3.37686 6.24109 3.51184 6.24109 3.6785V4.28745H7.81501C7.98144 4.28745 8.11624 4.42243 8.11624 4.58909C8.11624 4.75575 7.98144 4.89073 7.81501 4.89073H7.47274C7.18318 5.56793 6.78857 6.22966 6.33221 6.819C6.33296 6.81975 6.33371 6.8205 6.33409 6.82126C6.90492 7.49883 7.23364 7.67642 7.33078 7.67642H7.33304C7.43358 7.67378 7.55407 7.61421 7.66929 7.55048C7.81538 7.46979 7.99838 7.52258 8.07896 7.66812Z" fill="#837979"/>
</svg>
