<svg width="17" height="18" viewBox="0 0 17 18" fill="none" xmlns="http://www.w3.org/2000/svg">
<path d="M15.9465 11.0515H14.7724C14.6565 10.3849 14.0742 9.87634 13.375 9.87634H12.1291C11.5548 9.87634 11.0594 10.2196 10.8365 10.7116L8.09227 9.64882V8.80432C8.6407 8.38448 9.01883 7.75357 9.10469 7.03389C9.75669 7.0049 10.2418 6.48326 10.2418 5.86332C10.2418 5.57601 10.1363 5.30195 9.94863 5.09044V4.02229C9.94857 2.10243 8.38676 0.540588 6.467 0.540588C4.54725 0.540588 2.9854 2.10243 2.9854 4.02222V5.11806C2.79564 5.32782 2.69235 5.58764 2.69235 5.86329C2.69235 6.48277 3.17679 7.00483 3.82932 7.03382C3.91488 7.75802 4.29711 8.41522 4.89912 8.84509V9.64882L1.47891 10.9748C1.47738 10.9754 1.47585 10.976 1.47433 10.9767C1.41411 11.0014 -0.000488281 11.602 -0.000488281 13.2554V16.6048C-0.000488281 16.9089 0.246894 17.1563 0.550986 17.1563C13.1643 17.1563 6.11188 17.1604 15.9465 17.1604C16.3023 17.1604 16.5918 16.8709 16.5918 16.5151C16.5918 16.2999 16.5918 11.9055 16.5918 11.6969C16.5918 11.341 16.3023 11.0515 15.9465 11.0515ZM12.1291 10.3634H13.375C13.8045 10.3634 14.1671 10.6555 14.2744 11.0515H11.6724C11.5857 11.0042 11.5287 10.98 11.5214 10.9769C11.5197 10.9762 11.5179 10.9755 11.5161 10.9748L11.2919 10.888C11.4433 10.5778 11.7614 10.3634 12.1291 10.3634ZM8.80388 10.4467L7.92718 12.2038L7.5991 11.9708C7.59868 11.9705 7.59835 11.9701 7.59793 11.9699L6.84829 11.4375L7.92624 10.1069L8.80388 10.4467ZM6.49661 11.7852L7.12336 12.2303L6.87276 12.6074H6.12042L5.86982 12.2303L6.49661 11.7852ZM6.49657 11.0978L5.38613 9.72711V9.11981C6.07465 9.41539 6.90129 9.42825 7.60514 9.09991V9.72939L6.49657 11.0978ZM9.75475 5.86329C9.75475 6.20744 9.49772 6.50682 9.12394 6.54402V5.18275C9.48133 5.21655 9.75475 5.50531 9.75475 5.86329ZM3.81023 6.54402C3.43625 6.50692 3.17939 6.2075 3.17939 5.86329C3.17939 5.51862 3.47838 5.24839 3.81023 5.19389V6.54402ZM3.81825 4.70169C3.70389 4.71214 3.57086 4.74522 3.47251 4.78355V4.02225C3.47248 2.37101 4.81583 1.02766 6.46704 1.02766C8.11824 1.02766 9.46159 2.37101 9.46159 4.02225V4.76219C9.35428 4.72405 9.24106 4.70091 9.124 4.69393V4.62881C9.12407 4.40399 9.09252 4.41454 8.24017 3.49834C8.08393 3.33042 7.83233 3.30455 7.64656 3.42595C6.64911 4.0775 5.43229 4.4048 4.30876 4.32423C4.30824 4.3242 4.30769 4.32423 4.30717 4.3242C4.07102 4.30716 3.86109 4.47193 3.81825 4.70169ZM4.29727 6.72145C4.29727 6.5176 4.29727 5.02305 4.29727 4.81163C5.51289 4.89304 6.82206 4.54114 7.8966 3.84427C8.33797 4.31855 8.57337 4.56243 8.63684 4.64433C8.63684 4.85815 8.63684 6.46745 8.63684 6.72149C8.63684 7.90523 7.67116 8.85678 6.50148 8.85678C5.16014 8.85678 4.29727 7.8085 4.29727 6.72145ZM5.06558 10.1074L6.14379 11.4383L5.39531 11.9699C5.39489 11.9701 5.39457 11.9705 5.39415 11.9708L5.06607 12.2038L4.18937 10.4467L5.06558 10.1074ZM2.73981 16.6692V13.774C2.73981 13.6396 2.6308 13.5305 2.49629 13.5305C2.36177 13.5305 2.25277 13.6396 2.25277 13.774V16.6692H0.550986C0.515474 16.6692 0.486551 16.6403 0.486551 16.6048V13.2554C0.486551 11.946 1.59242 11.4557 1.65796 11.4278L3.73307 10.6233L4.6459 12.4527C4.77058 12.7026 5.09002 12.7841 5.31932 12.6212L5.47247 12.5125L5.73359 12.9055L5.09655 16.6693H2.73981V16.6692ZM8.93109 16.6692H7.89664L7.68437 15.4151C7.66198 15.2826 7.53668 15.1934 7.40362 15.2156C7.27102 15.2381 7.18172 15.3638 7.20415 15.4964L7.40265 16.6692H5.59057L6.19563 13.0945H6.79762L7.01182 14.3599C7.03422 14.4925 7.15975 14.5819 7.29257 14.5594C7.42518 14.537 7.51448 14.4113 7.49205 14.2787L7.25963 12.9054L7.52074 12.5124L7.67389 12.6212C7.90261 12.7837 8.22221 12.7034 8.34729 12.4527C8.34732 12.4527 8.34732 12.4527 8.34732 12.4527L9.26011 10.6234L10.3655 11.0515H9.55761C9.20178 11.0515 8.91226 11.341 8.91226 11.6968V16.5151C8.91223 16.5624 8.91872 16.6195 8.93109 16.6692ZM16.1048 13.4019H15.5906V13.1278C15.5906 12.8924 15.3991 12.701 15.1638 12.701H14.5291C14.2938 12.701 14.1023 12.8924 14.1023 13.1278V13.4019H13.3129C13.1784 13.4019 13.0694 13.5109 13.0694 13.6454C13.0694 13.7799 13.1784 13.8889 13.3129 13.8889H14.1023V14.1869C14.1023 14.4223 14.2938 14.6137 14.5291 14.6137H15.1638C15.3991 14.6137 15.5906 14.4223 15.5906 14.1869V13.8889H16.1048V16.5151C16.1048 16.6023 16.0337 16.6734 15.9465 16.6734H9.55761C9.4727 16.6734 9.39933 16.6017 9.39933 16.5151V13.8889H9.8989V14.1869C9.8989 14.4223 10.0904 14.6137 10.3257 14.6137H10.9604C11.1957 14.6137 11.3872 14.4223 11.3872 14.1869V13.8889H12.1766C12.3111 13.8889 12.4201 13.7799 12.4201 13.6454C12.4201 13.5109 12.3111 13.4019 12.1766 13.4019H11.3872V13.1278C11.3872 12.8924 11.1957 12.701 10.9604 12.701H10.3257C10.0904 12.701 9.8989 12.8924 9.8989 13.1278V13.4019H9.39933V11.6969C9.39933 11.6096 9.47036 11.5385 9.55761 11.5385H15.9465C16.0338 11.5385 16.1048 11.6096 16.1048 11.6969L16.1048 13.4019ZM15.1035 13.188V13.6453V14.1267H14.5894V13.6453V13.188H15.1035ZM10.3859 14.1267V13.6454V13.1881H10.9001V13.6454V14.1267H10.3859Z" fill="#837979"/>
</svg>
