<svg width="17" height="17" viewBox="0 0 17 17" fill="none" xmlns="http://www.w3.org/2000/svg">
<path fill-rule="evenodd" clip-rule="evenodd" d="M2.99104 4.99198L2.55708 4.03314L2.1301 4.97626C2.11369 5.02068 2.08487 5.05966 2.04694 5.08872C2.00901 5.11777 1.96351 5.13574 1.91565 5.14054L0.854896 5.24949L1.64844 5.95061C1.68181 5.98012 1.70669 6.01773 1.72058 6.05967C1.73447 6.10162 1.73689 6.14641 1.72758 6.18956L1.50506 7.21516L2.42591 6.69225C2.46504 6.6693 2.50971 6.65705 2.55529 6.65677C2.60086 6.65648 2.64569 6.66817 2.68512 6.69062L3.60875 7.21516L3.38778 6.19669C3.37689 6.1526 3.37835 6.10644 3.39201 6.0631C3.40566 6.01975 3.431 5.98085 3.46534 5.95051L4.25888 5.24939L3.19826 5.14054V5.13999C3.15348 5.13549 3.1107 5.11943 3.07428 5.09343C3.03786 5.06744 3.00909 5.03243 2.9909 4.99198H2.99104ZM2.79042 3.31481L3.39733 4.65586L4.8842 4.80855C4.93344 4.8135 4.98016 4.83238 5.01869 4.86291C5.05722 4.89344 5.0859 4.93429 5.10126 4.98052C5.11661 5.02675 5.11798 5.07636 5.1052 5.12334C5.09241 5.17031 5.06602 5.21263 5.02923 5.24516L5.02944 5.24537L3.91798 6.22734L4.22962 7.66362C4.24003 7.71188 4.23576 7.76209 4.21734 7.80798C4.19891 7.85387 4.16715 7.89343 4.12601 7.92172C4.08486 7.95001 4.03616 7.96578 3.98595 7.96707C3.93575 7.96837 3.88627 7.95512 3.84367 7.92899L2.55694 7.1983L1.26316 7.93311C1.22036 7.95747 1.17128 7.96911 1.12188 7.96663C1.07247 7.96415 1.02486 7.94764 0.984814 7.91912C0.944766 7.89059 0.913998 7.85127 0.896239 7.80592C0.878479 7.76056 0.87449 7.71112 0.884755 7.66359L1.19639 6.2273L0.0847256 5.24537C0.0471852 5.21217 0.0204805 5.16881 0.0079729 5.12074C-0.00453466 5.07266 -0.00228608 5.02203 0.0144356 4.97521C0.0311572 4.92839 0.0616046 4.88747 0.101945 4.85761C0.142286 4.82775 0.190717 4.81028 0.241143 4.8074L1.71683 4.65586L2.32374 3.31481C2.34373 3.2704 2.37643 3.23265 2.41785 3.20614C2.45928 3.17964 2.50765 3.16553 2.55708 3.16553C2.60652 3.16553 2.65489 3.17964 2.69631 3.20614C2.73774 3.23265 2.77043 3.2704 2.79042 3.31481ZM14.497 4.99198L14.0632 4.03314L13.6364 4.97633C13.62 5.02075 13.5911 5.05972 13.5532 5.08878C13.5153 5.11784 13.4698 5.13581 13.422 5.14061L12.3612 5.24956L13.1547 5.95068C13.1881 5.9802 13.213 6.01781 13.2268 6.05975C13.2407 6.10169 13.2431 6.14648 13.2338 6.18963L13.0113 7.21523L13.9322 6.69232C13.9713 6.66937 14.016 6.65712 14.0616 6.65683C14.1071 6.65655 14.152 6.66824 14.1914 6.69069L15.115 7.21523L14.8941 6.19676C14.8832 6.15267 14.8846 6.10651 14.8983 6.06316C14.912 6.01982 14.9373 5.98092 14.9716 5.95058L15.7652 5.24946L14.7044 5.14051V5.13996C14.6596 5.13546 14.6169 5.1194 14.5804 5.0934C14.544 5.06741 14.5152 5.0324 14.4971 4.99195L14.497 4.99198ZM14.2964 3.31481L14.9033 4.65586L16.3902 4.80855C16.4394 4.8135 16.4861 4.83238 16.5247 4.86291C16.5632 4.89344 16.5919 4.93429 16.6072 4.98052C16.6226 5.02675 16.624 5.07636 16.6112 5.12334C16.5984 5.17031 16.572 5.21263 16.5352 5.24516V5.24537L15.424 6.22734L15.7356 7.66362C15.746 7.71188 15.7417 7.76209 15.7233 7.80798C15.7049 7.85388 15.6731 7.89344 15.632 7.92173C15.5908 7.95002 15.5421 7.9658 15.4919 7.96709C15.4417 7.96838 15.3922 7.95513 15.3496 7.92899L14.0629 7.1983L12.7691 7.93311C12.7263 7.95746 12.6773 7.9691 12.6279 7.96661C12.5785 7.96412 12.5309 7.94761 12.4908 7.91909C12.4508 7.89057 12.42 7.85125 12.4023 7.8059C12.3845 7.76055 12.3805 7.71112 12.3908 7.66359L12.7024 6.2273L11.591 5.24534C11.5534 5.21215 11.5267 5.16879 11.5142 5.12071C11.5016 5.07264 11.5039 5.022 11.5206 4.97517C11.5373 4.92834 11.5678 4.88743 11.6081 4.85757C11.6485 4.82771 11.6969 4.81024 11.7473 4.80737L13.223 4.65583L13.8299 3.31478C13.8499 3.27037 13.8826 3.23262 13.9241 3.20612C13.9655 3.17962 14.0139 3.16551 14.0633 3.16551C14.1127 3.16551 14.1611 3.17962 14.2025 3.20612C14.244 3.23262 14.2766 3.27037 14.2966 3.31478L14.2964 3.31481ZM13.2498 12.708C12.8858 12.3504 12.4069 12.1279 11.8947 12.0784C11.3824 12.0288 10.8685 12.1552 10.4406 12.4361C10.0126 12.7171 9.69699 13.135 9.54757 13.6189C9.39815 14.1028 9.42415 14.6225 9.62112 15.0897C9.81809 15.5568 10.1739 15.9424 10.6278 16.1808C11.0817 16.4191 11.6058 16.4955 12.1106 16.3968C12.6154 16.2982 13.0698 16.0307 13.3964 15.6398C13.7229 15.249 13.9014 14.759 13.9014 14.2533C13.9018 13.9663 13.8444 13.682 13.7326 13.4168C13.6208 13.1516 13.4567 12.9107 13.2498 12.708ZM10.4925 14.4127C10.4676 14.3903 10.4474 14.3633 10.4332 14.3332C10.419 14.3031 10.411 14.2706 10.4097 14.2374C10.4083 14.2043 10.4137 14.1712 10.4254 14.1401C10.4371 14.109 10.455 14.0805 10.478 14.0562C10.501 14.0319 10.5287 14.0123 10.5594 13.9986C10.5901 13.9849 10.6233 13.9773 10.6571 13.9762C10.6908 13.9752 10.7245 13.9807 10.756 13.9924C10.7876 14.0042 10.8165 14.022 10.841 14.0448L11.393 14.5503L12.5032 13.4304C12.5266 13.4068 12.5546 13.3879 12.5854 13.3748C12.6162 13.3618 12.6494 13.3548 12.683 13.3544C12.7166 13.3539 12.7499 13.36 12.7811 13.3722C12.8123 13.3844 12.8407 13.4025 12.8648 13.4255C12.8889 13.4485 12.9081 13.4759 12.9214 13.5062C12.9347 13.5365 12.9418 13.5691 12.9422 13.602C12.9427 13.635 12.9365 13.6678 12.9241 13.6984C12.9117 13.7291 12.8933 13.757 12.8699 13.7807L11.5889 15.0728C11.5427 15.1216 11.4787 15.1503 11.4109 15.1527C11.3431 15.1551 11.2771 15.131 11.2274 15.0856L10.4926 14.4129L10.4925 14.4127ZM8.98326 7.3826C8.77925 7.1591 8.47967 7.04634 8.1319 7.04634C7.77377 7.04634 7.44366 7.16529 7.21455 7.40102C7.00635 7.61517 6.87612 7.93145 6.87612 8.35019C6.87612 8.80935 7.01957 9.22163 7.25146 9.51695C7.46904 9.79399 7.76436 9.96544 8.08583 9.96544C8.4073 9.96544 8.70275 9.79406 8.92016 9.51695C9.15202 9.22163 9.29546 8.80935 9.29546 8.35019C9.29546 7.91922 9.17881 7.59682 8.9833 7.3826H8.98326ZM8.1319 6.54265C8.6241 6.54265 9.05718 6.71233 9.36381 7.04824C9.64231 7.35316 9.80821 7.78867 9.80821 8.35033C9.80821 8.92232 9.62342 9.44364 9.32472 9.82405C9.01171 10.2227 8.57383 10.4693 8.08579 10.4693C7.59775 10.4693 7.15984 10.2227 6.84683 9.82405C6.5481 9.44364 6.36334 8.92232 6.36334 8.35033C6.36334 7.79227 6.54831 7.35901 6.84397 7.05482C7.17482 6.71448 7.63773 6.54278 8.1319 6.54278V6.54265ZM9.36878 15.7002H4.49451C4.46084 15.7002 4.4275 15.6937 4.39639 15.681C4.36528 15.6683 4.33702 15.6498 4.31321 15.6264C4.2894 15.603 4.27052 15.5753 4.25763 15.5447C4.24475 15.5141 4.23811 15.4814 4.23811 15.4483V13.4171C4.23972 12.8139 4.48436 12.2358 4.91857 11.8093C5.35278 11.3828 5.94123 11.1425 6.55529 11.1409H9.61587C9.89795 11.1411 10.1776 11.1923 10.4408 11.292C10.661 11.3751 10.867 11.4907 11.0517 11.6348C11.5404 11.5225 12.0511 11.5444 12.528 11.6981C13.0049 11.8518 13.4296 12.1313 13.7556 12.5061C14.0817 12.8809 14.2965 13.3365 14.3767 13.8232C14.4569 14.3099 14.3993 14.8089 14.2103 15.2655C14.0212 15.7222 13.7079 16.1191 13.3048 16.4127C12.9016 16.7062 12.4239 16.8853 11.9241 16.9302C11.4243 16.975 10.9216 16.8841 10.4709 16.6672C10.0202 16.4503 9.63888 16.1158 9.36864 15.7004L9.36878 15.7002ZM4.75087 15.1964V13.4171C4.75248 12.9475 4.9431 12.4975 5.28115 12.1655C5.6192 11.8334 6.07723 11.6462 6.55529 11.6446H9.61587C9.90769 11.6435 10.1953 11.7131 10.4532 11.8472C9.84835 12.1446 9.37682 12.6511 9.12927 13.2694C8.88172 13.8877 8.87563 14.574 9.11218 15.1964H6.3327V14.3969C6.3331 14.3636 6.32676 14.3305 6.31406 14.2996C6.30135 14.2687 6.28253 14.2406 6.25868 14.2169C6.23484 14.1932 6.20644 14.1744 6.17514 14.1615C6.14383 14.1487 6.11025 14.1421 6.07632 14.1421C6.0424 14.1421 6.00882 14.1487 5.97751 14.1615C5.94621 14.1744 5.91781 14.1932 5.89397 14.2169C5.87012 14.2406 5.8513 14.2687 5.83859 14.2996C5.82589 14.3305 5.81955 14.3636 5.81995 14.3969V15.1964H4.75087ZM8.74403 2.14785L8.30993 1.18901L7.88337 2.1322C7.86698 2.17662 7.83817 2.2156 7.80024 2.24467C7.76232 2.27373 7.71681 2.29169 7.66896 2.29648L6.60803 2.40553L7.40157 3.10665C7.43494 3.13616 7.45982 3.17378 7.47371 3.21572C7.4876 3.25766 7.49001 3.30245 7.48071 3.3456L7.25819 4.37117L8.17904 3.84826C8.21817 3.82531 8.26284 3.81306 8.30842 3.81278C8.35399 3.81249 8.39882 3.82418 8.43825 3.84663L9.36188 4.37117L9.14091 3.3527C9.13003 3.30861 9.13149 3.26245 9.14515 3.21911C9.1588 3.17577 9.18414 3.13686 9.21847 3.10651L10.0121 2.40553L8.95153 2.29648V2.29596C8.90674 2.29146 8.86397 2.27539 8.82755 2.24939C8.79113 2.22338 8.76236 2.18838 8.74417 2.14792L8.74403 2.14785ZM8.54341 0.470753L9.15032 1.8118L10.6372 1.96449C10.6864 1.96944 10.7331 1.98832 10.7717 2.01885C10.8102 2.04938 10.8389 2.09023 10.8542 2.13646C10.8696 2.18269 10.871 2.2323 10.8582 2.27927C10.8454 2.32625 10.819 2.36857 10.7822 2.4011L10.7824 2.40131L9.67097 3.38328L9.98261 4.81956C9.99302 4.86782 9.98875 4.91803 9.97033 4.96392C9.9519 5.00981 9.92014 5.04937 9.879 5.07766C9.83785 5.10595 9.78914 5.12172 9.73894 5.12301C9.68874 5.12431 9.63926 5.11106 9.59666 5.08493L8.30993 4.35423L7.01615 5.08912C6.97335 5.11348 6.92427 5.12512 6.87487 5.12264C6.82546 5.12016 6.77785 5.10365 6.7378 5.07513C6.69776 5.0466 6.66699 5.00728 6.64923 4.96192C6.63147 4.91657 6.62748 4.86713 6.63774 4.81959L6.94938 3.38331L5.83771 2.40131C5.80016 2.36812 5.77344 2.32475 5.76092 2.27668C5.7484 2.2286 5.75065 2.17796 5.76737 2.13113C5.7841 2.0843 5.81455 2.04338 5.8549 2.01353C5.89526 1.98367 5.9437 1.96621 5.99413 1.96334L7.46982 1.8118L8.07673 0.470753C8.09672 0.426338 8.12942 0.388585 8.17084 0.362083C8.21227 0.335581 8.26064 0.321472 8.31007 0.321472C8.35951 0.321472 8.40788 0.335581 8.4493 0.362083C8.49073 0.388585 8.52342 0.426338 8.54341 0.470753Z" fill="#837979"/>
</svg>
