<svg width="26" height="26" viewBox="0 0 26 26" fill="none" xmlns="http://www.w3.org/2000/svg">
<rect x="0.5" y="0.5" width="25" height="25" rx="4.16667" fill="#0047FF"/>
<path fill-rule="evenodd" clip-rule="evenodd" d="M5.78603 14.7143C5.85472 14.7804 5.90407 14.8639 5.92874 14.956C5.9534 15.0481 5.95245 15.1451 5.92599 15.2367L5.67015 16.1911C5.57872 16.5327 5.62662 16.8966 5.80334 17.2029C5.98005 17.5092 6.27112 17.7328 6.6126 17.8246L7.60976 18.0916C7.7022 18.1142 7.78667 18.1617 7.85395 18.2291C7.92123 18.2964 7.96874 18.3809 7.99131 18.4733L8.24757 19.4302C8.33973 19.7714 8.56339 20.062 8.86951 20.2385C9.17563 20.4149 9.53923 20.4627 9.88057 20.3715L10.8777 20.1046C10.9691 20.0783 11.066 20.0775 11.1578 20.1023C11.2496 20.1271 11.333 20.1764 11.3988 20.2451L12.0986 20.9444C12.3492 21.1935 12.6882 21.3333 13.0415 21.3333C13.3948 21.3333 13.7338 21.1935 13.9843 20.9444L14.7143 20.2144C14.7801 20.1456 14.8635 20.0962 14.9554 20.0715C15.0473 20.0467 15.1442 20.0475 15.2356 20.0739L16.1914 20.3314C16.533 20.4214 16.8964 20.3727 17.2022 20.196C17.5081 20.0192 17.7316 19.7287 17.8242 19.3877L18.0914 18.3907C18.114 18.2983 18.1615 18.2138 18.2288 18.1464C18.2961 18.0791 18.3806 18.0316 18.473 18.0089L19.4288 17.7538C19.7698 17.6612 20.0603 17.4375 20.237 17.1314C20.4136 16.8254 20.462 16.4619 20.3716 16.1203L20.1044 15.1233C20.078 15.0317 20.077 14.9347 20.1017 14.8426C20.1263 14.7506 20.1757 14.667 20.2444 14.6009L20.9434 13.9016C21.193 13.6515 21.3332 13.3126 21.3332 12.9592C21.3332 12.6059 21.193 12.267 20.9434 12.0169L20.2129 11.2858C20.1447 11.2196 20.0957 11.1361 20.0713 11.0443C20.0468 10.9524 20.0477 10.8557 20.074 10.7643L20.3301 9.80984C20.421 9.46816 20.3728 9.10436 20.1961 8.79816C20.0193 8.49196 19.7283 8.26834 19.3869 8.17631L18.3917 7.90749C18.2989 7.88592 18.2138 7.83898 18.1461 7.7719C18.0784 7.70482 18.0307 7.62024 18.0083 7.52761L17.7523 6.5709C17.6597 6.22994 17.4361 5.93941 17.1302 5.76265C16.8243 5.5859 16.461 5.53725 16.1194 5.62732L15.1224 5.89424C15.0312 5.92104 14.9343 5.92233 14.8424 5.89798C14.7504 5.87362 14.6669 5.82455 14.6009 5.75609L13.9015 5.05661C13.6512 4.80688 13.3121 4.66663 12.9586 4.66663C12.6051 4.66663 12.266 4.80688 12.0158 5.05661L11.2859 5.78663C11.2199 5.85503 11.1365 5.90407 11.0446 5.92844C10.9527 5.95281 10.8559 5.95158 10.7647 5.92488L9.80886 5.6697C9.46723 5.57864 9.10342 5.62684 8.79729 5.80373C8.49116 5.98062 8.2677 6.27175 8.17596 6.61322L7.9086 7.61029C7.88598 7.70282 7.83839 7.78736 7.77102 7.85469C7.70364 7.92202 7.61907 7.96955 7.52653 7.9921L6.57126 8.24734C6.22977 8.33912 5.93868 8.56272 5.76195 8.86902C5.58522 9.17532 5.53731 9.53926 5.62874 9.88086L5.89565 10.8779C5.92201 10.9692 5.92302 11.0659 5.89859 11.1578C5.87416 11.2496 5.8252 11.3331 5.75696 11.3993L5.05623 12.0994C4.80666 12.3495 4.6665 12.6885 4.6665 13.0418C4.6665 13.3951 4.80666 13.7341 5.05623 13.9842L5.78596 14.7142L5.78603 14.7143ZM12.0164 14.8576C11.9117 14.8498 11.8144 14.8008 11.7458 14.7213L10.3216 13.0722C10.2559 12.9922 10.2242 12.8896 10.2331 12.7865C10.2419 12.6834 10.2907 12.5878 10.369 12.5201C10.4473 12.4524 10.549 12.4179 10.6523 12.4241C10.7556 12.4302 10.8525 12.4765 10.9222 12.553L12.0852 13.899L15.1161 11.2406C15.1551 11.2054 15.2006 11.1783 15.2501 11.1608C15.2996 11.1433 15.3521 11.1359 15.4045 11.1388C15.4569 11.1418 15.5082 11.1552 15.5554 11.1782C15.6026 11.2011 15.6448 11.2333 15.6795 11.2727C15.7142 11.3121 15.7407 11.358 15.7575 11.4078C15.7742 11.4575 15.781 11.5101 15.7773 11.5625C15.7736 11.6148 15.7595 11.666 15.7359 11.7128C15.7122 11.7597 15.6795 11.8014 15.6396 11.8356L12.3078 14.7604C12.2355 14.8242 12.1425 14.8595 12.0461 14.8599C12.0365 14.8593 12.0269 14.8581 12.0164 14.8576V14.8576ZM12.9998 9.15661C13.76 9.15666 14.5031 9.38214 15.1352 9.80453C15.7672 10.2269 16.2598 10.8273 16.5507 11.5297C16.8416 12.232 16.9177 13.0049 16.7694 13.7505C16.621 14.4962 16.2549 15.1811 15.7174 15.7186C15.1798 16.2562 14.495 16.6222 13.7494 16.7705C13.0038 16.9188 12.231 16.8427 11.5287 16.5518C10.8264 16.2608 10.2261 15.7681 9.80376 15.136C9.38142 14.5039 9.15601 13.7607 9.15601 13.0005C9.1569 11.9813 9.56217 11.004 10.2828 10.2834C11.0035 9.56269 11.9807 9.15745 12.9998 9.15661ZM12.9998 17.6382C10.4432 17.6382 8.36221 15.5574 8.36221 13.0005C8.36221 10.4424 10.4421 8.36277 12.9998 8.36277C15.5575 8.36277 17.6377 10.4422 17.6377 13.0005C17.6377 15.5575 15.5566 17.6382 12.9998 17.6382Z" fill="white"/>
</svg>
