<svg width="20" height="20" viewBox="0 0 20 20" fill="none" xmlns="http://www.w3.org/2000/svg">
<path d="M8.75991 6.32452V14.2669L13.393 10.2957L8.75991 6.32452Z" fill="#32BA7C"/>
<path d="M10.2607 0.647827C5.01509 0.647827 0.612793 4.93579 0.612793 10.2957C0.612793 15.4841 4.75784 19.9436 10.2607 19.9436C15.7921 19.9436 19.9086 15.4555 19.9086 10.2957C19.9086 5.27881 15.8779 0.647827 10.2607 0.647827ZM10.2607 18.6572C5.65016 18.6572 1.89917 14.9063 1.89917 10.2957C1.89917 5.68515 5.65016 1.9342 10.2607 1.9342C14.8712 1.9342 18.6222 5.68519 18.6222 10.2957C18.6222 14.9062 14.8712 18.6572 10.2607 18.6572Z" fill="#32BA7C"/>
</svg>
