<svg width="26" height="26" viewBox="0 0 26 26" fill="none" xmlns="http://www.w3.org/2000/svg">
<rect x="0.5" y="0.5" width="25" height="25" rx="4.16667" fill="#43D477"/>
<path d="M11.0978 12.001C11.134 11.9811 11.1735 11.9678 11.2145 11.9617C11.2972 11.9497 11.3815 11.968 11.4518 12.0132L16.3129 15.1382C16.3619 15.1697 16.4022 15.2129 16.4302 15.264C16.4581 15.315 16.4727 15.3723 16.4727 15.4305C16.4727 15.4887 16.4581 15.546 16.4302 15.5971C16.4022 15.6482 16.3619 15.6914 16.3129 15.7228L11.4518 18.8478C11.3994 18.8816 11.3388 18.9005 11.2764 18.9028C11.2141 18.905 11.1523 18.8904 11.0975 18.8605C11.0428 18.8306 10.9971 18.7865 10.9653 18.7328C10.9335 18.6792 10.9167 18.6179 10.9167 18.5555V12.3055C10.9168 12.2432 10.9337 12.182 10.9655 12.1284C10.9974 12.0749 11.0431 12.0309 11.0978 12.001Z" fill="white"/>
<path fill-rule="evenodd" clip-rule="evenodd" d="M7.96604 5.03691C8.08325 4.84421 8.2906 4.66663 8.56147 4.66663H17.4387C17.7096 4.66663 17.9169 4.84421 18.0341 5.03691C18.1513 5.22959 18.2084 5.45948 18.2084 5.70829V7.09718H19.0236C19.5676 7.09718 19.9445 7.60026 19.9445 8.13885V9.52774H20.2917C20.8629 9.52774 21.3334 9.99822 21.3334 10.5694V20.2916C21.3334 20.8628 20.8629 21.3333 20.2917 21.3333H5.70841C5.13723 21.3333 4.66675 20.8628 4.66675 20.2916V10.5694C4.66675 9.99822 5.13723 9.52774 5.70841 9.52774H6.05564V8.13885C6.05564 7.60026 6.43261 7.09718 6.97659 7.09718H7.79175V5.70829C7.79175 5.45948 7.84883 5.22959 7.96604 5.03691ZM8.58515 5.36116L8.58793 5.35768C8.58793 5.35768 8.58728 5.35731 8.58517 5.35789C8.58134 5.35893 8.57351 5.36107 8.56145 5.36107L8.58515 5.36116ZM17.4149 5.36116H8.58515C8.58515 5.36116 8.58413 5.36245 8.5833 5.36343C8.57984 5.36752 8.57252 5.37615 8.55943 5.39769C8.52376 5.45634 8.48619 5.57358 8.48619 5.70829V7.09718H17.514V5.70829C17.514 5.57358 17.4763 5.45635 17.4407 5.39778C17.4272 5.37565 17.4198 5.36697 17.4165 5.36305L17.4149 5.36116ZM17.4149 5.36116H17.4387C17.4292 5.36116 17.4229 5.3604 17.4191 5.35994C17.4147 5.35941 17.4136 5.35928 17.4149 5.36116ZM19.0236 7.79163H6.97659C6.88692 7.79163 6.75008 7.91037 6.75008 8.13885V9.52774H19.2501V8.13885C19.2501 7.91037 19.1132 7.79163 19.0236 7.79163ZM5.70841 10.2222C5.51254 10.2222 5.36119 10.3735 5.36119 10.5694V20.2916C5.36119 20.4875 5.51254 20.6388 5.70841 20.6388H20.2917C20.4876 20.6388 20.639 20.4875 20.639 20.2916V10.5694C20.639 10.3735 20.4876 10.2222 20.2917 10.2222H5.70841Z" fill="white"/>
</svg>
