<svg width="16" height="19" viewBox="0 0 16 19" fill="none" xmlns="http://www.w3.org/2000/svg">
<path d="M14.0334 0H1.96661C0.903172 0 0 0.762884 0 1.74922V17.6196C0.00312935 18.8715 1.72227 19.459 2.69963 18.5802L7.29915 14.4902C7.66775 14.1482 8.33225 14.1482 8.70085 14.4902L13.3004 18.5802C14.2781 19.4593 15.9971 18.871 16 17.6196V1.74922C16 0.762884 15.0968 0 14.0334 0ZM14.7483 17.6197C14.7467 17.8847 14.3763 17.9722 14.1846 17.7922C13.2652 16.9731 10.643 14.6415 9.58679 13.7037C8.75593 12.9308 7.24533 12.9306 6.41484 13.7023C5.68524 14.35 4.25709 15.6199 3.13127 16.621L1.82153 17.7854C1.63281 17.9635 1.25775 17.9041 1.2517 17.6298V1.74922C1.2517 1.39361 1.57577 1.11337 1.96661 1.11337H14.0333C14.4236 1.11337 14.7483 1.39316 14.7483 1.74922V17.6197Z" fill="black"/>
</svg>
