<svg width="47" height="35" viewBox="0 0 47 35" fill="none" xmlns="http://www.w3.org/2000/svg">
<path d="M30.806 15.9949L20.2331 9.41374C19.8256 9.16015 19.3121 9.14672 18.8919 9.37864C18.4716 9.61057 18.2109 10.0514 18.2109 10.5299V23.6923C18.2109 24.1708 18.4716 24.6116 18.8919 24.8436C19.0915 24.9538 19.3122 25.0085 19.5325 25.0085C19.776 25.0085 20.019 24.9416 20.233 24.8085L30.8059 18.2273C31.1923 17.9868 31.427 17.565 31.427 17.1111C31.427 16.6573 31.1924 16.2355 30.806 15.9949ZM20.8542 21.3175V12.9047L27.6119 17.1111L20.8542 21.3175Z" fill="white"/>
<path d="M39.4449 0H7.54997C3.90628 0 0.941895 2.95232 0.941895 6.5812V27.641C0.941895 31.2699 3.90628 34.2222 7.54997 34.2222H39.4449C43.0886 34.2222 46.053 31.2699 46.053 27.641V6.5812C46.053 2.95232 43.0886 0 39.4449 0ZM43.4098 27.641C43.4098 29.8183 41.6311 31.5897 39.4449 31.5897H7.54997C5.36375 31.5897 3.58512 29.8183 3.58512 27.641V6.5812C3.58512 4.40387 5.36375 2.63248 7.54997 2.63248H39.4449C41.6311 2.63248 43.4098 4.40387 43.4098 6.5812V27.641Z" fill="white"/>
</svg>
