<svg width="22" height="21" viewBox="0 0 22 21" fill="none" xmlns="http://www.w3.org/2000/svg">
<path fill-rule="evenodd" clip-rule="evenodd" d="M1.88059 12.5135C1.96614 12.5957 2.0276 12.6998 2.05832 12.8144C2.08904 12.9291 2.08786 13.0499 2.0549 13.164L1.73627 14.3527C1.62241 14.7781 1.68207 15.2313 1.90215 15.6128C2.12223 15.9942 2.48473 16.2727 2.91 16.3871L4.15187 16.7195C4.26701 16.7477 4.3722 16.8069 4.45599 16.8907C4.53978 16.9746 4.59895 17.0798 4.62706 17.195L4.94621 18.3867C5.06099 18.8115 5.33954 19.1735 5.72078 19.3932C6.10202 19.613 6.55484 19.6726 6.97995 19.5589L8.22182 19.2265C8.33567 19.1938 8.45627 19.1928 8.57063 19.2237C8.68499 19.2545 8.78876 19.316 8.87075 19.4015L9.74231 20.2724C10.0544 20.5826 10.4765 20.7568 10.9166 20.7568C11.3566 20.7568 11.7787 20.5826 12.0908 20.2724L12.9999 19.3633C13.0819 19.2777 13.1857 19.2161 13.3001 19.1853C13.4146 19.1544 13.5353 19.1555 13.6491 19.1883L14.8395 19.509C15.2649 19.6211 15.7174 19.5605 16.0984 19.3403C16.4793 19.1202 16.7577 18.7584 16.873 18.3337L17.2057 17.0921C17.2339 16.9769 17.2931 16.8717 17.3769 16.7878C17.4607 16.704 17.5659 16.6447 17.6811 16.6166L18.8714 16.2988C19.2961 16.1835 19.6579 15.9049 19.8779 15.5237C20.0978 15.1426 20.1581 14.6899 20.0455 14.2644L19.7128 13.0228C19.6798 12.9087 19.6787 12.7879 19.7094 12.6732C19.7401 12.5586 19.8015 12.4545 19.8871 12.3723L20.7577 11.5013C21.0685 11.1898 21.2431 10.7677 21.2431 10.3277C21.2431 9.88762 21.0685 9.46553 20.7577 9.15403L19.8479 8.24353C19.7629 8.16109 19.702 8.05712 19.6715 7.94274C19.641 7.82836 19.6422 7.70785 19.6749 7.59407L19.9938 6.40538C20.1071 5.97986 20.0471 5.52678 19.8269 5.14543C19.6067 4.76409 19.2444 4.48559 18.8192 4.37098L17.5798 4.03619C17.4641 4.00933 17.3583 3.95086 17.2739 3.86732C17.1896 3.78378 17.1302 3.67845 17.1022 3.56308L16.7835 2.3716C16.6682 1.94696 16.3897 1.58513 16.0087 1.365C15.6278 1.14487 15.1752 1.08428 14.7498 1.19645L13.5082 1.52888C13.3945 1.56225 13.2739 1.56386 13.1594 1.53353C13.0449 1.5032 12.9409 1.44209 12.8586 1.35683L11.9876 0.485694C11.676 0.174674 11.2537 0 10.8134 0C10.3731 0 9.95079 0.174674 9.63914 0.485694L8.7302 1.39486C8.648 1.48005 8.54405 1.54112 8.42963 1.57147C8.3152 1.60182 8.19465 1.60028 8.08103 1.56703L6.89064 1.24923C6.46517 1.13582 6.01209 1.19586 5.63083 1.41616C5.24957 1.63646 4.97128 1.99903 4.85703 2.4243L4.52405 3.66606C4.49589 3.7813 4.43662 3.88658 4.35271 3.97043C4.2688 4.05429 4.16347 4.11348 4.04822 4.14156L2.85852 4.45944C2.43322 4.57374 2.0707 4.85222 1.8506 5.23369C1.6305 5.61515 1.57083 6.0684 1.68471 6.49384L2.01712 7.73552C2.04994 7.84924 2.0512 7.96975 2.02077 8.08413C1.99034 8.19852 1.92937 8.30247 1.84439 8.38485L0.971689 9.25684C0.660882 9.56834 0.486328 9.99043 0.486328 10.4305C0.486328 10.8705 0.660882 11.2926 0.971689 11.6041L1.88059 12.5135ZM9.63991 12.6918C9.50954 12.6822 9.38834 12.6212 9.30296 12.5222L7.52915 10.4684C7.44745 10.3687 7.4079 10.241 7.41894 10.1125C7.42998 9.9841 7.49074 9.86504 7.58827 9.78073C7.68579 9.69642 7.81238 9.65353 7.94106 9.66119C8.06975 9.66885 8.19035 9.72645 8.27719 9.82173L9.72561 11.498L13.5004 8.1873C13.5488 8.14343 13.6056 8.10963 13.6672 8.08787C13.7289 8.0661 13.7942 8.05681 13.8595 8.06052C13.9248 8.06424 13.9887 8.08089 14.0475 8.10951C14.1062 8.13813 14.1588 8.17814 14.202 8.22723C14.2452 8.27632 14.2782 8.3335 14.2991 8.39545C14.32 8.45741 14.3284 8.5229 14.3237 8.58812C14.3191 8.65335 14.3016 8.717 14.2722 8.77539C14.2427 8.83378 14.202 8.88575 14.1523 8.92826L10.0028 12.5709C9.91282 12.6503 9.79701 12.6943 9.67696 12.6947C9.665 12.6941 9.65296 12.6924 9.63991 12.6918ZM10.8647 5.59185C11.8115 5.59191 12.7369 5.87272 13.5241 6.39878C14.3112 6.92484 14.9247 7.67251 15.287 8.54726C15.6493 9.42201 15.744 10.3845 15.5593 11.3131C15.3745 12.2418 14.9186 13.0947 14.2492 13.7642C13.5797 14.4337 12.7268 14.8896 11.7982 15.0743C10.8696 15.259 9.90719 15.1641 9.03252 14.8018C8.15785 14.4395 7.41026 13.8259 6.88429 13.0386C6.35831 12.2514 6.07758 11.3258 6.07758 10.379C6.07869 9.10969 6.58342 7.89266 7.48095 6.99512C8.37848 6.09758 9.59546 5.59289 10.8647 5.59185ZM10.8647 16.1549C7.6806 16.1549 5.08898 13.5634 5.08898 10.379C5.08898 7.19316 7.67934 4.60319 10.8647 4.60319C14.0501 4.60319 16.6407 7.19296 16.6407 10.379C16.6407 13.5636 14.049 16.1549 10.8647 16.1549Z" fill="#43D477"/>
</svg>
