<svg width="64" height="64" viewBox="0 0 64 64" fill="none" xmlns="http://www.w3.org/2000/svg">
<rect width="63.124" height="63.124" rx="10" fill="url(#paint0_linear_569_16)"/>
<path d="M28.6272 44.3835C28.4651 43.5718 28.1308 42.8043 27.6469 42.1327C27.1629 41.4612 26.5406 40.9012 25.8218 40.4906C25.1309 40.0981 24.3916 39.7976 23.6228 39.5968C24.3081 39.0822 24.8142 38.365 25.0694 37.5469C25.3246 36.7287 25.316 35.851 25.0448 35.0381C24.7735 34.2251 24.2534 33.518 23.5581 33.017C22.8628 32.516 22.0275 32.2464 21.1704 32.2464C20.3134 32.2464 19.4781 32.516 18.7828 33.017C18.0874 33.518 17.5673 34.2251 17.2961 35.0381C17.0249 35.851 17.0163 36.7287 17.2715 37.5469C17.5267 38.365 18.0328 39.0822 18.7181 39.5968C17.9499 39.7978 17.2112 40.0983 16.5208 40.4906C15.8021 40.9012 15.1799 41.4611 14.6959 42.1325C14.212 42.8039 13.8777 43.5713 13.7155 44.3829L13.0153 47.8913C12.9882 48.0263 13.0097 48.1665 13.076 48.2872C13.1423 48.4078 13.2492 48.5012 13.3777 48.5506C18.3943 50.4831 23.95 50.4831 28.9667 48.5506C29.0952 48.5012 29.202 48.4078 29.2683 48.2872C29.3347 48.1665 29.3562 48.0263 29.3291 47.8913L28.6272 44.3835ZM18.2549 36.3387C18.2549 35.7617 18.426 35.1977 18.7465 34.7179C19.0671 34.2381 19.5227 33.8642 20.0558 33.6434C20.5888 33.4226 21.1754 33.3648 21.7413 33.4774C22.3072 33.59 22.8271 33.8678 23.2351 34.2758C23.6431 34.6838 23.9209 35.2036 24.0335 35.7695C24.146 36.3354 24.0883 36.922 23.8675 37.4551C23.6467 37.9882 23.2727 38.4438 22.793 38.7644C22.3132 39.0849 21.7492 39.256 21.1722 39.256C20.3987 39.2551 19.6573 38.9474 19.1103 38.4005C18.5634 37.8536 18.2558 37.1121 18.2549 36.3387ZM14.2564 47.634L14.8614 44.6117C14.9908 43.9636 15.2578 43.3509 15.6442 42.8148C16.0306 42.2787 16.5275 41.8318 17.1013 41.5041C18.3454 40.8087 19.7469 40.4436 21.1722 40.4436C22.5974 40.4436 23.9989 40.8087 25.243 41.5041C25.817 41.8318 26.314 42.2789 26.7004 42.815C27.0868 43.3512 27.3537 43.9641 27.483 44.6122L28.088 47.634C23.6166 49.2357 18.7278 49.2357 14.2564 47.634Z" fill="white"/>
<path d="M50.3339 47.8913L49.6337 44.3812C49.4716 43.5695 49.1374 42.8019 48.6534 42.1304C48.1695 41.4588 47.5472 40.8989 46.8284 40.4883C46.1368 40.0965 45.3969 39.7967 44.6276 39.5968C45.3129 39.0822 45.819 38.365 46.0742 37.5469C46.3294 36.7287 46.3208 35.851 46.0496 35.0381C45.7784 34.2251 45.2583 33.518 44.5629 33.017C43.8676 32.516 43.0323 32.2464 42.1753 32.2464C41.3182 32.2464 40.4829 32.516 39.7876 33.017C39.0923 33.518 38.5722 34.2251 38.3009 35.0381C38.0297 35.851 38.0211 36.7287 38.2763 37.5469C38.5315 38.365 39.0376 39.0822 39.7229 39.5968C38.9547 39.7978 38.216 40.0983 37.5256 40.4906C36.8069 40.9012 36.1847 41.4611 35.7007 42.1325C35.2168 42.8039 34.8825 43.5713 34.7203 44.3829L34.0201 47.8913C33.993 48.0263 34.0145 48.1665 34.0809 48.2872C34.1472 48.4078 34.254 48.5012 34.3825 48.5506C39.3992 50.4831 44.9549 50.4831 49.9715 48.5506C50.1 48.5012 50.2069 48.4078 50.2732 48.2872C50.3395 48.1665 50.361 48.0263 50.3339 47.8913ZM39.2597 36.3387C39.2597 35.7617 39.4308 35.1977 39.7513 34.7179C40.0719 34.2381 40.5275 33.8642 41.0606 33.6434C41.5937 33.4226 42.1802 33.3648 42.7462 33.4774C43.3121 33.59 43.8319 33.8678 44.2399 34.2758C44.6479 34.6838 44.9257 35.2036 45.0383 35.7695C45.1509 36.3354 45.0931 36.922 44.8723 37.4551C44.6515 37.9882 44.2775 38.4438 43.7978 38.7644C43.318 39.0849 42.754 39.256 42.177 39.256C41.4036 39.2551 40.6621 38.9474 40.1152 38.4005C39.5683 37.8536 39.2606 37.1121 39.2597 36.3387ZM35.2612 47.634L35.8662 44.6117C35.9956 43.9636 36.2626 43.3509 36.649 42.8148C37.0354 42.2787 37.5323 41.8318 38.1062 41.5041C39.3503 40.8087 40.7518 40.4436 42.177 40.4436C43.6023 40.4436 45.0038 40.8087 46.2479 41.5041C46.8218 41.8318 47.3188 42.2789 47.7052 42.815C48.0916 43.3512 48.3585 43.9641 48.4878 44.6122L49.0928 47.634C44.6214 49.2357 39.7326 49.2357 35.2612 47.634Z" fill="white"/>
<path d="M35.7227 26.9705L38.1843 30.8214C38.2467 30.9192 38.3368 30.9962 38.4431 31.0425C38.5494 31.0889 38.6671 31.1025 38.7812 31.0817C38.8953 31.0608 39.0006 31.0064 39.0836 30.9255C39.1667 30.8445 39.2237 30.7406 39.2474 30.6271L40.087 26.6415C44.4951 25.6869 47.4282 23.0514 47.4282 20.0016C47.4282 16.1408 42.5854 13 36.6341 13C30.6827 13 25.8399 16.1408 25.8399 20.0016C25.8399 23.6471 30.1576 26.6706 35.7227 26.9705ZM36.6341 14.1669C41.9436 14.1669 46.2613 16.7844 46.2613 20.0016C46.2613 22.521 43.4752 24.8111 39.4866 25.5702C39.3735 25.5917 39.2693 25.6461 39.1871 25.7267C39.1049 25.8073 39.0483 25.9103 39.0245 26.023L38.3991 28.987L36.543 26.0848C36.4921 26.0053 36.4225 25.9393 36.3404 25.8925C36.2583 25.8458 36.166 25.8197 36.0716 25.8164C30.9884 25.6373 27.0069 23.0823 27.0069 20.0016C27.0069 16.7844 31.3245 14.1669 36.6341 14.1669Z" fill="white"/>
<path d="M35.1579 28.1544C35.1392 28.0801 35.1061 28.0101 35.0604 27.9486C35.0147 27.8871 34.9573 27.8352 34.8915 27.7958C34.8257 27.7565 34.7528 27.7305 34.677 27.7194C34.6012 27.7082 34.5239 27.7121 34.4496 27.7308C32.5581 28.1976 30.5945 28.2967 28.6657 28.0225C28.5283 28.0025 28.3884 28.033 28.2718 28.1083L25.5482 29.8389L25.9776 27.9052C26.0078 27.7694 25.9885 27.6273 25.9231 27.5045C25.8578 27.3817 25.7507 27.2862 25.6211 27.2354C22.8357 26.1432 21.1722 24.3111 21.1722 22.3355C21.1722 20.3954 22.7814 18.582 25.4764 17.4851C25.5474 17.4562 25.612 17.4136 25.6666 17.3598C25.7211 17.3059 25.7645 17.2419 25.7943 17.1712C25.824 17.1006 25.8396 17.0248 25.8401 16.9482C25.8406 16.8715 25.8259 16.7956 25.797 16.7246C25.7682 16.6536 25.7256 16.589 25.6717 16.5344C25.6179 16.4799 25.5538 16.4365 25.4832 16.4067C25.4125 16.377 25.3368 16.3614 25.2601 16.3609C25.1835 16.3604 25.1075 16.3751 25.0365 16.4039C21.8864 17.6864 20.0053 19.9042 20.0053 22.3355C20.0053 24.6898 21.7621 26.8282 24.7313 28.1299L24.1018 30.9609C24.0766 31.0736 24.0854 31.1913 24.1272 31.299C24.1689 31.4067 24.2417 31.4996 24.3363 31.5659C24.431 31.6322 24.5431 31.669 24.6586 31.6715C24.7741 31.6739 24.8878 31.6421 24.9851 31.5799L28.7193 29.204C30.7282 29.4642 32.7679 29.3482 34.7343 28.8621C34.8843 28.8244 35.0132 28.7287 35.0926 28.5959C35.172 28.4632 35.1955 28.3044 35.1579 28.1544Z" fill="white"/>
<path d="M32.8415 17.0843H35.7589V18.2512H32.8415V17.0843Z" fill="white"/>
<path d="M36.9258 17.0843H38.0927V18.2512H36.9258V17.0843Z" fill="white"/>
<path d="M39.2597 17.0843H42.177V18.2512H39.2597V17.0843Z" fill="white"/>
<path d="M31.0911 19.4181H38.0927V20.5851H31.0911V19.4181Z" fill="white"/>
<path d="M39.2597 19.4181H42.177V20.5851H39.2597V19.4181Z" fill="white"/>
<path d="M31.0911 21.752H33.425V22.9189H31.0911V21.752Z" fill="white"/>
<path d="M34.5919 21.752H41.0101V22.9189H34.5919V21.752Z" fill="white"/>
<defs>
<linearGradient id="paint0_linear_569_16" x1="0" y1="0" x2="63.124" y2="63.124" gradientUnits="userSpaceOnUse">
<stop offset="0.1" stop-color="#F761A1"/>
<stop offset="1" stop-color="#8C1BAB"/>
</linearGradient>
</defs>
</svg>
