<svg width="63" height="63" viewBox="0 0 63 63" fill="none" xmlns="http://www.w3.org/2000/svg">
<rect width="63" height="63" rx="10" fill="url(#paint0_linear_569_76)"/>
<path d="M31.249 11.7207C31.607 11.7207 31.965 11.7207 32.3229 11.7207C32.9468 11.9976 33.5943 12.2334 34.1905 12.5605C35.467 13.2619 36.7168 14.0104 37.9779 14.7405C38.0884 14.8041 38.204 14.8656 38.2991 14.9486C38.5313 15.1517 38.5824 15.407 38.4269 15.6736C38.2715 15.9412 38.0209 16.0171 37.7325 15.9166C37.6015 15.8705 37.4829 15.7884 37.3612 15.7177C35.9784 14.9179 34.5986 14.114 33.2128 13.3193C32.9622 13.1757 32.6932 13.066 32.4119 12.9307C32.3874 13.0363 32.3659 13.0845 32.3659 13.1327C32.3638 14.9394 32.3659 16.7472 32.3587 18.5539C32.3587 18.7805 32.4702 18.8349 32.6564 18.8595C33.4674 18.9641 34.2775 19.0728 35.0875 19.1825C37.8337 19.5557 40.5789 19.932 43.3251 20.3053C44.1188 20.4129 44.9135 20.5175 45.7072 20.6231C45.6356 20.5165 45.5517 20.4601 45.4648 20.4088C44.2272 19.6911 42.9886 18.9743 41.75 18.2565C41.1639 17.9171 40.5728 17.5859 39.9939 17.2353C39.6952 17.0548 39.6154 16.7502 39.7586 16.4754C39.91 16.1853 40.223 16.0878 40.5462 16.2355C40.6382 16.2775 40.7251 16.3339 40.8141 16.3852C42.9599 17.6259 45.1017 18.8749 47.2536 20.1053C48.6231 20.8887 49.2869 22.0505 49.2828 23.6327C49.2716 28.7719 49.2614 33.9112 49.289 39.0504C49.2982 40.7475 48.6078 41.9482 47.1421 42.7849C43.5245 44.8501 39.9366 46.9654 36.3179 49.0285C35.0159 49.7709 33.806 50.6999 32.3239 51.0957H31.25C30.6813 50.8496 30.082 50.6568 29.5481 50.3502C25.1286 47.8124 20.7235 45.2479 16.3081 42.7029C14.956 41.9236 14.2881 40.7792 14.2911 39.2114C14.3014 34.0353 14.3055 28.8601 14.2891 23.6839C14.284 22.0525 14.9641 20.8815 16.3756 20.0746C19.7569 18.1396 23.1086 16.1524 26.4992 14.235C28.0579 13.3531 29.5021 12.2457 31.25 11.7228L31.249 11.7207ZM22.2362 35.7241C25.4447 40.5055 28.5989 45.2079 31.787 49.9585C34.9832 45.1936 38.1406 40.486 41.3358 35.7241H40.7834C36.8079 35.7241 32.8323 35.7241 28.8567 35.7241C28.7288 35.7241 28.6 35.7302 28.4731 35.7189C28.1459 35.6902 27.9556 35.5098 27.9382 35.1796C27.9208 34.8443 28.109 34.6525 28.421 34.5869C28.556 34.5592 28.7012 34.5705 28.8414 34.5705C32.8302 34.5705 36.8181 34.5705 40.807 34.5705H41.3276C38.1262 29.7983 34.9689 25.0928 31.786 20.3483C28.5897 25.1144 25.4365 29.8147 22.2464 34.5705C23.4431 34.5705 24.5538 34.5674 25.6656 34.5715C26.1105 34.5736 26.3815 34.7951 26.3877 35.1437C26.3938 35.5016 26.134 35.7179 25.684 35.723C25.326 35.7261 24.968 35.723 24.6101 35.723C23.8471 35.723 23.0851 35.723 22.2362 35.723V35.7241ZM42.3217 33.984C44.175 29.9962 45.9956 26.0782 47.853 22.0823C42.8914 21.4076 37.9871 20.74 32.9796 20.0592C36.1267 24.7503 39.2043 29.3379 42.3217 33.984ZM30.5913 20.0612C25.5868 20.7421 20.6815 21.4096 15.721 22.0854C17.5804 26.0854 19.402 30.0055 21.2512 33.984C24.3707 29.3338 27.4514 24.7411 30.5913 20.0612ZM33.6832 49.1998C33.8336 49.1331 33.8765 49.1177 33.9154 49.0962C38.249 46.5871 42.5846 44.079 46.913 41.5616C47.1687 41.4129 47.3794 41.1863 47.6372 40.9751C45.9025 39.3078 44.218 37.6897 42.5068 36.046C39.5684 40.4265 36.6575 44.7649 33.6822 49.2008L33.6832 49.1998ZM29.769 49.1567C29.7864 49.1362 29.8028 49.1167 29.8202 49.0962C26.9083 44.7567 23.9974 40.4173 21.0651 36.0471C19.3417 37.7031 17.6571 39.3211 15.9164 40.9946C16.2631 41.2489 16.5515 41.5021 16.8757 41.6908C19.8899 43.4453 22.9102 45.1895 25.9284 46.9357C27.208 47.676 28.4895 48.4153 29.769 49.1557V49.1567ZM31.1641 12.8732C26.6679 15.4254 22.2617 18.0197 17.8443 20.5975C19.7181 20.376 21.5765 20.1238 23.4339 19.8715C25.9264 19.5332 28.4179 19.1938 30.9105 18.8595C31.1242 18.8308 31.2152 18.7518 31.2142 18.519C31.206 16.739 31.2091 14.9579 31.2081 13.1778C31.2081 13.1163 31.1907 13.0537 31.1641 12.8732ZM15.4868 24.3125V39.7795C15.5737 39.7098 15.6156 39.6811 15.6525 39.6462C17.1928 38.1676 18.729 36.6838 20.2796 35.2155C20.4739 35.0309 20.4084 34.8956 20.3256 34.7171C19.2404 32.3885 18.1573 30.0598 17.0741 27.7301C16.5576 26.6207 16.0432 25.5102 15.4878 24.3125H15.4868ZM48.1087 24.332C48.035 24.4437 48.0095 24.4735 47.9941 24.5073C46.4047 27.925 44.8184 31.3446 43.2218 34.7592C43.1175 34.9827 43.1768 35.0965 43.3333 35.2462C44.8409 36.6849 46.3413 38.1307 47.8458 39.5734C47.9133 39.638 47.9941 39.6872 48.1087 39.7723V24.332Z" fill="white"/>
<path d="M33.1462 41.7421C33.6075 42.3112 33.7578 42.9223 33.542 43.5991C33.273 44.443 32.42 44.9741 31.5374 44.8603C30.6823 44.7496 29.9766 43.9938 29.9418 43.151C29.9254 42.7398 30.0983 42.4958 30.4348 42.4537C30.7805 42.4106 31.0188 42.626 31.0884 43.0443C31.1651 43.5109 31.4913 43.7765 31.9015 43.7088C32.2799 43.6462 32.5509 43.2689 32.4691 42.8875C32.3883 42.5132 32.1326 42.3481 31.7573 42.3081C31.4249 42.2732 31.2152 42.0723 31.2244 41.7206C31.2326 41.3935 31.4197 41.2079 31.7481 41.1668C31.836 41.1556 31.926 41.1402 32.0089 41.1115C32.3883 40.9782 32.5775 40.5834 32.4436 40.2153C32.3116 39.8513 31.8841 39.6318 31.5404 39.8113C31.3584 39.9066 31.1998 40.1117 31.1078 40.3045C30.9227 40.6921 30.6721 40.8633 30.3448 40.7423C30.0165 40.6213 29.8876 40.3209 30.0155 39.922C30.2476 39.2012 30.7365 38.7531 31.4842 38.63C32.2482 38.5049 32.8762 38.7726 33.3109 39.4124C33.7466 40.0522 33.7466 40.73 33.3733 41.4058C33.3119 41.5165 33.2321 41.616 33.1452 41.7431L33.1462 41.7421Z" fill="white"/>
<path d="M31.5455 28.1475C32.6839 28.1813 33.4142 28.6314 33.7128 29.624C33.9511 30.4156 33.7476 31.1303 33.1329 31.684C32.5059 32.249 31.7654 32.3669 30.9932 32.0357C30.22 31.7045 29.7925 31.0893 29.7802 30.2382C29.7608 28.9257 30.3581 27.8501 31.1466 26.8596C31.3052 26.6606 31.4821 26.4709 31.6724 26.3028C31.9823 26.029 32.3269 26.0372 32.5581 26.2956C32.7892 26.554 32.7391 26.8708 32.4435 27.1723C32.1602 27.4615 31.8923 27.767 31.5445 28.1454L31.5455 28.1475ZM32.644 30.1931C32.6481 29.7132 32.2871 29.3359 31.8125 29.3246C31.3154 29.3123 30.9308 29.6825 30.9278 30.1777C30.9247 30.6597 31.2827 31.0339 31.7583 31.0473C32.2533 31.0606 32.6399 30.6874 32.644 30.1931Z" fill="white"/>
<path d="M41.5884 24.0931C41.3705 24.0931 41.2038 24.1084 41.0412 24.09C40.7139 24.0521 40.5011 23.7998 40.5267 23.486C40.5523 23.1559 40.7466 22.9733 41.0698 22.9508C41.3368 22.9323 41.6058 22.9446 41.8747 22.9457C42.5764 22.9457 42.739 23.1046 42.739 23.7957C42.74 25.0508 42.739 26.3059 42.739 27.5609C42.739 27.8429 42.7441 28.1249 42.737 28.4059C42.7257 28.8529 42.5027 29.1093 42.1417 29.099C41.795 29.0898 41.5914 28.8458 41.5894 28.412C41.5853 27.1313 41.5873 25.8506 41.5873 24.5699C41.5873 24.4314 41.5873 24.292 41.5873 24.092L41.5884 24.0931Z" fill="white"/>
<path d="M22.8714 24.0992C22.2423 24.0992 21.6573 24.1259 21.0764 24.0849C20.881 24.0705 20.6366 23.9249 20.5302 23.7629C20.4453 23.6337 20.4729 23.3445 20.567 23.2071C20.6632 23.0687 20.9004 22.9641 21.0794 22.959C21.9468 22.9344 22.8151 22.9416 23.6824 22.9498C24.2245 22.9549 24.4751 23.3291 24.2583 23.8285C23.5577 25.4456 22.8468 27.0575 22.1339 28.6684C21.9621 29.057 21.6604 29.1944 21.3443 29.0549C21.0262 28.9134 20.9178 28.5966 21.0835 28.2141C21.6164 26.9836 22.1585 25.7583 22.6965 24.5299C22.7517 24.4038 22.7998 24.2756 22.8693 24.1013L22.8714 24.0992Z" fill="white"/>
<defs>
<linearGradient id="paint0_linear_569_76" x1="0" y1="0" x2="63" y2="63" gradientUnits="userSpaceOnUse">
<stop stop-color="#0821FF"/>
<stop offset="1" stop-color="#B499FF"/>
</linearGradient>
</defs>
</svg>
