<svg width="64" height="64" viewBox="0 0 64 64" fill="none" xmlns="http://www.w3.org/2000/svg">
<rect width="64" height="64" rx="10" fill="url(#paint0_linear_569_10)"/>
<path d="M51.0018 45.4781H49.9871V25.0312C49.9871 23.5336 48.759 22.3153 47.2496 22.3153H45.9024C46.0497 22.0094 46.1309 21.6702 46.1309 21.3177C46.1309 20.4595 45.6563 19.6767 44.8921 19.2747L37.3929 15.3325C37.1131 15.1852 36.7659 15.2912 36.6177 15.569C36.4694 15.8467 36.5762 16.1912 36.8561 16.3383L44.3551 20.2805C44.7488 20.4876 44.9839 20.8753 44.9839 21.3177C44.9839 21.7602 44.7488 22.1479 44.3553 22.3549L37.0654 26.1872L32.4309 20.9425C32.222 20.7061 31.8597 20.6826 31.6215 20.8898C31.3834 21.0971 31.3596 21.4567 31.5685 21.693L36.0238 26.7349L33.2654 28.185C32.4728 28.6011 31.5266 28.6011 30.7342 28.1851L19.6441 22.355C19.2504 22.1479 19.0153 21.7602 19.0153 21.3178C19.0153 20.8755 19.2503 20.4877 19.6439 20.2806L30.7338 14.4505C31.5264 14.0344 32.4727 14.0344 33.265 14.4504L34.8525 15.2851C35.1323 15.4323 35.4795 15.3265 35.6278 15.0487C35.776 14.771 35.6694 14.4265 35.3896 14.2793L33.8018 13.4444C32.6733 12.8518 31.3258 12.8518 30.1972 13.4445L19.1069 19.2748C18.3429 19.6767 17.8683 20.4596 17.8683 21.3178C17.8683 21.6703 17.9495 22.0094 18.0968 22.3153H16.7496C15.2401 22.3153 14.0121 23.5337 14.0121 25.0313V45.4782H12.9973C12.6806 45.4782 12.4238 45.733 12.4238 46.0474V47.3088C12.4238 49.3441 14.0924 51 16.1433 51H47.8558C49.9067 51 51.5753 49.3442 51.5753 47.3088V46.0474C51.5753 45.733 51.3186 45.4781 51.0018 45.4781ZM36.933 35.6043L37.6808 36.8896C37.8353 37.1553 37.7322 37.3898 37.6808 37.4783C37.6293 37.5668 37.4761 37.7727 37.167 37.7727H36.6989C36.3898 37.7727 36.2367 37.5668 36.1851 37.4783C36.1336 37.3898 36.0306 37.1553 36.1851 36.8896L36.933 35.6043ZM37.5065 27.2435L39.8796 25.996V28.2561C39.8796 29.8793 38.9553 31.3344 37.5065 32.0254V27.2435ZM31.9995 29.6355C32.6185 29.6355 33.2377 29.4873 33.802 29.1911L36.3595 27.8466V32.4658C33.226 33.4959 29.7592 33.3802 26.7007 32.1187C25.1327 31.472 24.1196 29.9558 24.1196 28.2562V25.9959L30.1975 29.1911C30.7617 29.4875 31.3805 29.6355 31.9995 29.6355ZM15.1591 25.0312C15.1591 24.1612 15.8726 23.4535 16.7496 23.4535H19.2835L22.1704 24.9712H17.2619C16.9452 24.9712 16.6884 25.2261 16.6884 25.5404V43.3916C16.6884 43.7059 16.9452 43.9607 17.2619 43.9607H20.2893C20.606 43.9607 20.8628 43.7059 20.8628 43.3916C20.8628 43.0773 20.606 42.8225 20.2893 42.8225H17.8355V26.1095H22.9726V28.2561C22.9726 30.4172 24.2631 32.3459 26.2605 33.1698C28.0841 33.922 30.0419 34.2981 31.9997 34.2981C33.472 34.2981 34.9442 34.0852 36.3596 33.6598V34.3135L35.1919 36.3205C34.8773 36.8612 34.8773 37.5068 35.1919 38.0475C35.5065 38.5881 36.0698 38.911 36.699 38.911H37.1671C37.7962 38.911 38.3596 38.5881 38.6742 38.0475C38.9887 37.5068 38.9887 36.8612 38.6742 36.3205L37.5065 34.3135V33.2621C37.584 33.2317 37.6616 33.2016 37.7387 33.1698C39.7361 32.3459 41.0266 30.4172 41.0266 28.2561V26.1095H46.1637V42.8225H22.5833C22.2666 42.8225 22.0098 43.0773 22.0098 43.3916C22.0098 43.7059 22.2666 43.9607 22.5833 43.9607H46.7372C47.054 43.9607 47.3107 43.7059 47.3107 43.3916V25.5404C47.3107 25.2261 47.054 24.9712 46.7372 24.9712H41.8287L44.7156 23.4535H47.2495C48.1265 23.4535 48.84 24.1612 48.84 25.0312V45.4781H15.1591V25.0312ZM35.5462 46.6167C35.3343 47.2287 34.7483 47.6699 34.0606 47.6699H29.9386C29.2509 47.6699 28.665 47.2287 28.453 46.6167H35.5462ZM50.4283 47.3087C50.4283 48.7164 49.2743 49.8616 47.8558 49.8616H16.1433C14.7248 49.8616 13.5708 48.7164 13.5708 47.3087V46.6164H14.5797C14.5817 46.6164 14.5836 46.6167 14.5856 46.6167H27.2698C27.5089 47.8629 28.6143 48.8081 29.9386 48.8081H34.0606C35.3849 48.8081 36.4903 47.8628 36.7294 46.6167H49.4136C49.4156 46.6167 49.4175 46.6164 49.4195 46.6164H50.4283V47.3087Z" fill="white"/>
<path d="M32.173 40.7356C32.173 40.4213 31.9162 40.1665 31.5995 40.1665H20.1182C19.8015 40.1665 19.5447 40.4213 19.5447 40.7356C19.5447 41.0499 19.8015 41.3048 20.1182 41.3048H31.5996C31.9162 41.3048 32.173 41.0499 32.173 40.7356Z" fill="white"/>
<path d="M20.1182 38.911H27.7949C28.1116 38.911 28.3684 38.6562 28.3684 38.3419C28.3684 38.0276 28.1116 37.7728 27.7949 37.7728H20.1182C19.8015 37.7728 19.5447 38.0276 19.5447 38.3419C19.5447 38.6562 19.8014 38.911 20.1182 38.911Z" fill="white"/>
<defs>
<linearGradient id="paint0_linear_569_10" x1="0" y1="0" x2="64" y2="64" gradientUnits="userSpaceOnUse">
<stop offset="0.1" stop-color="#3C8CE7"/>
<stop offset="1" stop-color="#00EAFF"/>
</linearGradient>
</defs>
</svg>
