<svg width="64" height="64" viewBox="0 0 64 64" fill="none" xmlns="http://www.w3.org/2000/svg">
<rect width="63.124" height="63.124" rx="10" fill="url(#paint0_linear_569_23)"/>
<path d="M45.0996 13H21.0713C20.257 13.0009 19.4764 13.3248 18.9006 13.9006C18.3248 14.4764 18.0009 15.257 18 16.0713V46.9287C18.0009 47.743 18.3248 48.5236 18.9006 49.0994C19.4764 49.6752 20.257 49.9991 21.0713 50H45.0996C45.2338 50 45.3624 49.9467 45.4573 49.8518C45.5522 49.757 45.6055 49.6283 45.6055 49.4941V13.5059C45.6055 13.3717 45.5522 13.243 45.4573 13.1482C45.3624 13.0533 45.2338 13 45.0996 13ZM44.5938 43.8574H23.5884V14.0117H44.5938V43.8574ZM19.0117 16.0713C19.0123 15.5252 19.2295 15.0017 19.6156 14.6156C20.0017 14.2295 20.5252 14.0123 21.0713 14.0117H22.5767V43.8574H21.0713C20.3105 43.8607 19.5775 44.1437 19.0117 44.6523V16.0713ZM21.0713 48.9883C20.5251 48.9883 20.0012 48.7713 19.615 48.385C19.2287 47.9988 19.0117 47.4749 19.0117 46.9287C19.0117 46.3825 19.2287 45.8586 19.615 45.4724C20.0012 45.0861 20.5251 44.8691 21.0713 44.8691H44.5938V46.4229H21.3002C21.1661 46.4229 21.0374 46.4761 20.9425 46.571C20.8477 46.6659 20.7944 46.7945 20.7944 46.9287C20.7944 47.0629 20.8477 47.1915 20.9425 47.2864C21.0374 47.3813 21.1661 47.4346 21.3002 47.4346H44.5938V48.9883H21.0713Z" fill="white"/>
<path d="M30.1889 32.3308C29.4417 32.3317 28.7254 32.6289 28.197 33.1573C27.6687 33.6856 27.3715 34.4019 27.3705 35.1491C27.3705 35.2833 27.4238 35.412 27.5187 35.5068C27.6136 35.6017 27.7422 35.655 27.8764 35.655H35.2475C35.3817 35.655 35.5103 35.6017 35.6052 35.5068C35.7001 35.412 35.7534 35.2833 35.7534 35.1491V30.5967H37.4877V32.8366C37.4886 33.5838 37.7858 34.3002 38.3141 34.8286C38.8425 35.3569 39.5589 35.6541 40.3061 35.655C40.4402 35.655 40.5689 35.6017 40.6638 35.5068C40.7586 35.412 40.8119 35.2833 40.8119 35.1491V27.778C40.8119 27.6439 40.7586 27.5152 40.6638 27.4203C40.5689 27.3255 40.4402 27.2722 40.3061 27.2722H35.7534V25.5378H37.9933C38.7405 25.537 39.4569 25.2398 39.9852 24.7114C40.5136 24.183 40.8108 23.4667 40.8117 22.7194C40.8117 22.5853 40.7584 22.4566 40.6635 22.3617C40.5686 22.2669 40.44 22.2136 40.3058 22.2136H32.9347C32.8683 22.2135 32.8025 22.2266 32.7411 22.252C32.6797 22.2774 32.6239 22.3147 32.5769 22.3617C32.5299 22.4086 32.4927 22.4644 32.4673 22.5258C32.4419 22.5872 32.4288 22.653 32.4288 22.7194V27.2725H30.6945V25.0325C30.6936 24.2853 30.3964 23.5689 29.8681 23.0406C29.3397 22.5122 28.6233 22.215 27.8761 22.2142C27.7419 22.2142 27.6133 22.2675 27.5184 22.3623C27.4235 22.4572 27.3703 22.5859 27.3703 22.72V30.0911C27.3703 30.2253 27.4235 30.3539 27.5184 30.4488C27.6133 30.5437 27.7419 30.597 27.8761 30.597H32.4288V32.3313L30.1889 32.3308ZM32.935 29.5847H28.3823V23.2979C28.7573 23.4078 29.0866 23.6361 29.3211 23.9487C29.5555 24.2613 29.6825 24.6415 29.683 25.0322V27.7783C29.683 27.9125 29.7363 28.0412 29.8312 28.136C29.9261 28.2309 30.0547 28.2842 30.1889 28.2842H32.935C33.0692 28.2842 33.1978 28.2309 33.2927 28.136C33.3876 28.0412 33.4409 27.9125 33.4409 27.7783V23.2259H39.7277C39.6178 23.6009 39.3895 23.9303 39.0768 24.1648C38.7642 24.3992 38.3841 24.5262 37.9933 24.5267H35.2472C35.1808 24.5266 35.115 24.5397 35.0536 24.5651C34.9922 24.5905 34.9364 24.6278 34.8894 24.6747C34.8424 24.7217 34.8052 24.7775 34.7798 24.8389C34.7544 24.9003 34.7413 24.9661 34.7413 25.0325V27.7786C34.7413 27.8451 34.7544 27.9108 34.7798 27.9722C34.8052 28.0336 34.8424 28.0894 34.8894 28.1364C34.9364 28.1834 34.9922 28.2206 35.0536 28.246C35.115 28.2714 35.1808 28.2845 35.2472 28.2845H39.7999V34.5716C39.4249 34.4617 39.0956 34.2333 38.8611 33.9207C38.6267 33.6081 38.4997 33.228 38.4992 32.8372V30.0911C38.4992 29.9569 38.4459 29.8283 38.351 29.7334C38.2561 29.6385 38.1275 29.5852 37.9933 29.5852H35.2472C35.1808 29.5852 35.115 29.5983 35.0536 29.6237C34.9922 29.6491 34.9364 29.6863 34.8894 29.7333C34.8424 29.7803 34.8052 29.8361 34.7798 29.8975C34.7544 29.9589 34.7413 30.0247 34.7413 30.0911V34.6433H28.4545C28.5644 34.2682 28.7927 33.9389 29.1053 33.7044C29.418 33.4699 29.7981 33.343 30.1889 33.3425H32.935C33.0692 33.3425 33.1978 33.2892 33.2927 33.1943C33.3876 33.0995 33.4409 32.9708 33.4409 32.8366V30.0905C33.4408 29.9564 33.3874 29.8278 33.2926 29.733C33.1977 29.6382 33.0691 29.5847 32.935 29.5847Z" fill="white"/>
<defs>
<linearGradient id="paint0_linear_569_23" x1="0" y1="0" x2="63.124" y2="63.124" gradientUnits="userSpaceOnUse">
<stop stop-color="#11C99C"/>
<stop offset="1" stop-color="#00E31D"/>
</linearGradient>
</defs>
</svg>
